<?xml version="1.0" encoding="utf-8" standalone="no"?>
<!DOCTYPE svg PUBLIC "-//W3C//DTD SVG 1.1//EN"
  "http://www.w3.org/Graphics/SVG/1.1/DTD/svg11.dtd">
<svg xmlns:xlink="http://www.w3.org/1999/xlink" width="766.8pt" height="397.44pt" viewBox="0 0 766.8 397.44" xmlns="http://www.w3.org/2000/svg" version="1.1">
 <metadata>
  <rdf:RDF xmlns:dc="http://purl.org/dc/elements/1.1/" xmlns:cc="http://creativecommons.org/ns#" xmlns:rdf="http://www.w3.org/1999/02/22-rdf-syntax-ns#">
   <cc:Work>
    <dc:type rdf:resource="http://purl.org/dc/dcmitype/StillImage"/>
    <dc:date>2022-04-18T23:43:54.178384</dc:date>
    <dc:format>image/svg+xml</dc:format>
    <dc:creator>
     <cc:Agent>
      <dc:title>Matplotlib v3.5.1, https://matplotlib.org/</dc:title>
     </cc:Agent>
    </dc:creator>
   </cc:Work>
  </rdf:RDF>
 </metadata>
 <defs>
  <style type="text/css">*{stroke-linejoin: round; stroke-linecap: butt}</style>
 </defs>
 <g id="figure_1">
  <g id="patch_1">
   <path d="M 0 397.44 
L 766.8 397.44 
L 766.8 0 
L 0 0 
z
" style="fill: #ffffff"/>
  </g>
  <g id="axes_1">
   <g id="patch_2">
    <path d="M 95.85 337.824 
L 690.12 337.824 
L 690.12 47.6928 
L 95.85 47.6928 
z
" style="fill: #ffffff"/>
   </g>
   <g id="matplotlib.axis_1">
    <g id="xtick_1">
     <g id="line2d_1">
      <defs>
       <path id="me21911982a" d="M 0 0 
L 0 3.5 
" style="stroke: #000000; stroke-width: 0.8"/>
      </defs>
      <g>
       <use xlink:href="#me21911982a" x="95.85" y="337.824" style="stroke: #000000; stroke-width: 0.8"/>
      </g>
     </g>
     <g id="text_1">
      <!-- 300 -->
      <g style="fill: #595959" transform="translate(84.172031 354.899625)scale(0.14 -0.14)">
       <defs>
        <path id="Helvetica-Bold-33" d="M 1044 1391 
Q 1044 1119 1131 941 
Q 1294 613 1722 613 
Q 1984 613 2179 792 
Q 2375 972 2375 1309 
Q 2375 1756 2013 1906 
Q 1806 1991 1363 1991 
L 1363 2628 
Q 1797 2634 1969 2713 
Q 2266 2844 2266 3244 
Q 2266 3503 2114 3665 
Q 1963 3828 1688 3828 
Q 1372 3828 1223 3628 
Q 1075 3428 1081 3094 
L 250 3094 
Q 263 3431 366 3734 
Q 475 4000 709 4225 
Q 884 4384 1125 4468 
Q 1366 4553 1716 4553 
Q 2366 4553 2764 4217 
Q 3163 3881 3163 3316 
Q 3163 2916 2925 2641 
Q 2775 2469 2613 2406 
Q 2734 2406 2963 2197 
Q 3303 1881 3303 1334 
Q 3303 759 2904 323 
Q 2506 -113 1725 -113 
Q 763 -113 388 516 
Q 191 850 169 1391 
L 1044 1391 
z
" transform="scale(0.015625)"/>
        <path id="Helvetica-Bold-30" d="M 1109 2222 
Q 1109 1441 1237 1027 
Q 1366 613 1763 613 
Q 2159 613 2282 1027 
Q 2406 1441 2406 2222 
Q 2406 3041 2282 3434 
Q 2159 3828 1763 3828 
Q 1366 3828 1237 3434 
Q 1109 3041 1109 2222 
z
M 1763 4563 
Q 2628 4563 2976 3953 
Q 3325 3344 3325 2222 
Q 3325 1100 2976 493 
Q 2628 -113 1763 -113 
Q 897 -113 548 493 
Q 200 1100 200 2222 
Q 200 3344 548 3953 
Q 897 4563 1763 4563 
z
" transform="scale(0.015625)"/>
       </defs>
       <use xlink:href="#Helvetica-Bold-33"/>
       <use xlink:href="#Helvetica-Bold-30" x="55.615234"/>
       <use xlink:href="#Helvetica-Bold-30" x="111.230469"/>
      </g>
     </g>
    </g>
    <g id="xtick_2">
     <g id="line2d_2">
      <g>
       <use xlink:href="#me21911982a" x="155.277" y="337.824" style="stroke: #000000; stroke-width: 0.8"/>
      </g>
     </g>
     <g id="text_2">
      <!-- 320 -->
      <g style="fill: #595959" transform="translate(143.599031 354.899625)scale(0.14 -0.14)">
       <defs>
        <path id="Helvetica-Bold-32" d="M 200 0 
Q 213 488 409 891 
Q 600 1344 1309 1850 
Q 1925 2291 2106 2481 
Q 2384 2778 2384 3131 
Q 2384 3419 2225 3609 
Q 2066 3800 1769 3800 
Q 1363 3800 1216 3497 
Q 1131 3322 1116 2941 
L 250 2941 
Q 272 3519 459 3875 
Q 816 4553 1725 4553 
Q 2444 4553 2869 4154 
Q 3294 3756 3294 3100 
Q 3294 2597 2994 2206 
Q 2797 1947 2347 1628 
L 1991 1375 
Q 1656 1138 1532 1031 
Q 1409 925 1325 784 
L 3303 784 
L 3303 0 
L 200 0 
z
" transform="scale(0.015625)"/>
       </defs>
       <use xlink:href="#Helvetica-Bold-33"/>
       <use xlink:href="#Helvetica-Bold-32" x="55.615234"/>
       <use xlink:href="#Helvetica-Bold-30" x="111.230469"/>
      </g>
     </g>
    </g>
    <g id="xtick_3">
     <g id="line2d_3">
      <g>
       <use xlink:href="#me21911982a" x="214.704" y="337.824" style="stroke: #000000; stroke-width: 0.8"/>
      </g>
     </g>
     <g id="text_3">
      <!-- 340 -->
      <g style="fill: #595959" transform="translate(203.026031 354.899625)scale(0.14 -0.14)">
       <defs>
        <path id="Helvetica-Bold-34" d="M 3347 975 
L 2834 975 
L 2834 0 
L 1963 0 
L 1963 975 
L 169 975 
L 169 1753 
L 1834 4503 
L 2834 4503 
L 2834 1672 
L 3347 1672 
L 3347 975 
z
M 1963 1672 
L 1963 3628 
L 828 1672 
L 1963 1672 
z
" transform="scale(0.015625)"/>
       </defs>
       <use xlink:href="#Helvetica-Bold-33"/>
       <use xlink:href="#Helvetica-Bold-34" x="55.615234"/>
       <use xlink:href="#Helvetica-Bold-30" x="111.230469"/>
      </g>
     </g>
    </g>
    <g id="xtick_4">
     <g id="line2d_4">
      <g>
       <use xlink:href="#me21911982a" x="274.131" y="337.824" style="stroke: #000000; stroke-width: 0.8"/>
      </g>
     </g>
     <g id="text_4">
      <!-- 360 -->
      <g style="fill: #595959" transform="translate(262.453031 354.899625)scale(0.14 -0.14)">
       <defs>
        <path id="Helvetica-Bold-36" d="M 1094 1434 
Q 1094 1069 1291 837 
Q 1488 606 1791 606 
Q 2088 606 2258 829 
Q 2428 1053 2428 1409 
Q 2428 1806 2234 2017 
Q 2041 2228 1759 2228 
Q 1531 2228 1356 2091 
Q 1094 1888 1094 1434 
z
M 2347 3391 
Q 2347 3500 2263 3631 
Q 2119 3844 1828 3844 
Q 1394 3844 1209 3356 
Q 1109 3088 1072 2563 
Q 1238 2759 1456 2850 
Q 1675 2941 1956 2941 
Q 2559 2941 2945 2531 
Q 3331 2122 3331 1484 
Q 3331 850 2953 365 
Q 2575 -119 1778 -119 
Q 922 -119 516 597 
Q 200 1156 200 2041 
Q 200 2559 244 2884 
Q 322 3463 547 3847 
Q 741 4175 1055 4375 
Q 1369 4575 1806 4575 
Q 2438 4575 2813 4251 
Q 3188 3928 3234 3391 
L 2347 3391 
z
" transform="scale(0.015625)"/>
       </defs>
       <use xlink:href="#Helvetica-Bold-33"/>
       <use xlink:href="#Helvetica-Bold-36" x="55.615234"/>
       <use xlink:href="#Helvetica-Bold-30" x="111.230469"/>
      </g>
     </g>
    </g>
    <g id="xtick_5">
     <g id="line2d_5">
      <g>
       <use xlink:href="#me21911982a" x="333.558" y="337.824" style="stroke: #000000; stroke-width: 0.8"/>
      </g>
     </g>
     <g id="text_5">
      <!-- 380 -->
      <g style="fill: #595959" transform="translate(321.880031 354.899625)scale(0.14 -0.14)">
       <defs>
        <path id="Helvetica-Bold-38" d="M 1094 1316 
Q 1094 981 1267 797 
Q 1441 613 1747 613 
Q 2053 613 2226 797 
Q 2400 981 2400 1316 
Q 2400 1663 2223 1842 
Q 2047 2022 1747 2022 
Q 1447 2022 1270 1842 
Q 1094 1663 1094 1316 
z
M 169 1256 
Q 169 1638 342 1947 
Q 516 2256 850 2413 
Q 522 2631 423 2886 
Q 325 3141 325 3363 
Q 325 3856 697 4204 
Q 1069 4553 1747 4553 
Q 2425 4553 2797 4204 
Q 3169 3856 3169 3363 
Q 3169 3141 3070 2886 
Q 2972 2631 2644 2444 
Q 2978 2256 3147 1947 
Q 3316 1638 3316 1256 
Q 3316 684 2892 282 
Q 2469 -119 1709 -119 
Q 950 -119 559 282 
Q 169 684 169 1256 
z
M 1175 3263 
Q 1175 3016 1326 2859 
Q 1478 2703 1747 2703 
Q 2019 2703 2167 2859 
Q 2316 3016 2316 3263 
Q 2316 3531 2167 3682 
Q 2019 3834 1747 3834 
Q 1478 3834 1326 3682 
Q 1175 3531 1175 3263 
z
" transform="scale(0.015625)"/>
       </defs>
       <use xlink:href="#Helvetica-Bold-33"/>
       <use xlink:href="#Helvetica-Bold-38" x="55.615234"/>
       <use xlink:href="#Helvetica-Bold-30" x="111.230469"/>
      </g>
     </g>
    </g>
    <g id="xtick_6">
     <g id="line2d_6">
      <g>
       <use xlink:href="#me21911982a" x="392.985" y="337.824" style="stroke: #000000; stroke-width: 0.8"/>
      </g>
     </g>
     <g id="text_6">
      <!-- 400 -->
      <g style="fill: #595959" transform="translate(381.307031 354.899625)scale(0.14 -0.14)">
       <use xlink:href="#Helvetica-Bold-34"/>
       <use xlink:href="#Helvetica-Bold-30" x="55.615234"/>
       <use xlink:href="#Helvetica-Bold-30" x="111.230469"/>
      </g>
     </g>
    </g>
    <g id="xtick_7">
     <g id="line2d_7">
      <g>
       <use xlink:href="#me21911982a" x="452.412" y="337.824" style="stroke: #000000; stroke-width: 0.8"/>
      </g>
     </g>
     <g id="text_7">
      <!-- 420 -->
      <g style="fill: #595959" transform="translate(440.734031 354.899625)scale(0.14 -0.14)">
       <use xlink:href="#Helvetica-Bold-34"/>
       <use xlink:href="#Helvetica-Bold-32" x="55.615234"/>
       <use xlink:href="#Helvetica-Bold-30" x="111.230469"/>
      </g>
     </g>
    </g>
    <g id="xtick_8">
     <g id="line2d_8">
      <g>
       <use xlink:href="#me21911982a" x="511.839" y="337.824" style="stroke: #000000; stroke-width: 0.8"/>
      </g>
     </g>
     <g id="text_8">
      <!-- 440 -->
      <g style="fill: #595959" transform="translate(500.161031 354.899625)scale(0.14 -0.14)">
       <use xlink:href="#Helvetica-Bold-34"/>
       <use xlink:href="#Helvetica-Bold-34" x="55.615234"/>
       <use xlink:href="#Helvetica-Bold-30" x="111.230469"/>
      </g>
     </g>
    </g>
    <g id="xtick_9">
     <g id="line2d_9">
      <g>
       <use xlink:href="#me21911982a" x="571.266" y="337.824" style="stroke: #000000; stroke-width: 0.8"/>
      </g>
     </g>
     <g id="text_9">
      <!-- 460 -->
      <g style="fill: #595959" transform="translate(559.588031 354.899625)scale(0.14 -0.14)">
       <use xlink:href="#Helvetica-Bold-34"/>
       <use xlink:href="#Helvetica-Bold-36" x="55.615234"/>
       <use xlink:href="#Helvetica-Bold-30" x="111.230469"/>
      </g>
     </g>
    </g>
    <g id="xtick_10">
     <g id="line2d_10">
      <g>
       <use xlink:href="#me21911982a" x="630.693" y="337.824" style="stroke: #000000; stroke-width: 0.8"/>
      </g>
     </g>
     <g id="text_10">
      <!-- 480 -->
      <g style="fill: #595959" transform="translate(619.015031 354.899625)scale(0.14 -0.14)">
       <use xlink:href="#Helvetica-Bold-34"/>
       <use xlink:href="#Helvetica-Bold-38" x="55.615234"/>
       <use xlink:href="#Helvetica-Bold-30" x="111.230469"/>
      </g>
     </g>
    </g>
    <g id="xtick_11">
     <g id="line2d_11">
      <g>
       <use xlink:href="#me21911982a" x="690.12" y="337.824" style="stroke: #000000; stroke-width: 0.8"/>
      </g>
     </g>
     <g id="text_11">
      <!-- 500 -->
      <g style="fill: #595959" transform="translate(678.442031 354.899625)scale(0.14 -0.14)">
       <defs>
        <path id="Helvetica-Bold-35" d="M 1056 1213 
Q 1109 922 1259 764 
Q 1409 606 1697 606 
Q 2028 606 2201 839 
Q 2375 1072 2375 1425 
Q 2375 1772 2212 2011 
Q 2050 2250 1706 2250 
Q 1544 2250 1425 2209 
Q 1216 2134 1109 1931 
L 309 1969 
L 628 4472 
L 3125 4472 
L 3125 3716 
L 1272 3716 
L 1109 2725 
Q 1316 2859 1431 2903 
Q 1625 2975 1903 2975 
Q 2466 2975 2884 2597 
Q 3303 2219 3303 1497 
Q 3303 869 2900 375 
Q 2497 -119 1694 -119 
Q 1047 -119 631 228 
Q 216 575 169 1213 
L 1056 1213 
z
" transform="scale(0.015625)"/>
       </defs>
       <use xlink:href="#Helvetica-Bold-35"/>
       <use xlink:href="#Helvetica-Bold-30" x="55.615234"/>
       <use xlink:href="#Helvetica-Bold-30" x="111.230469"/>
      </g>
     </g>
    </g>
    <g id="text_12">
     <!-- Wavelength (nm) -->
     <g style="fill: #595959" transform="translate(312.433438 376.461187)scale(0.2 -0.2)">
      <defs>
       <path id="Helvetica-Bold-57" d="M 1116 4606 
L 1725 1969 
L 1856 1234 
L 1991 1953 
L 2509 4606 
L 3525 4606 
L 4072 1969 
L 4213 1234 
L 4353 1941 
L 4969 4606 
L 5947 4606 
L 4650 0 
L 3731 0 
L 3175 2694 
L 3013 3584 
L 2850 2694 
L 2294 0 
L 1400 0 
L 94 4606 
L 1116 4606 
z
" transform="scale(0.015625)"/>
       <path id="Helvetica-Bold-61" d="M 2294 1656 
Q 2209 1603 2123 1570 
Q 2038 1538 1888 1509 
L 1688 1472 
Q 1406 1422 1284 1350 
Q 1078 1228 1078 972 
Q 1078 744 1204 642 
Q 1331 541 1513 541 
Q 1800 541 2042 709 
Q 2284 878 2294 1325 
L 2294 1656 
z
M 1753 2072 
Q 2000 2103 2106 2150 
Q 2297 2231 2297 2403 
Q 2297 2613 2151 2692 
Q 2006 2772 1725 2772 
Q 1409 2772 1278 2616 
Q 1184 2500 1153 2303 
L 294 2303 
Q 322 2750 544 3038 
Q 897 3488 1756 3488 
Q 2316 3488 2750 3266 
Q 3184 3044 3184 2428 
L 3184 866 
Q 3184 703 3191 472 
Q 3200 297 3244 234 
Q 3288 172 3375 131 
L 3375 0 
L 2406 0 
Q 2366 103 2350 193 
Q 2334 284 2325 400 
Q 2141 200 1900 59 
Q 1613 -106 1250 -106 
Q 788 -106 486 158 
Q 184 422 184 906 
Q 184 1534 669 1816 
Q 934 1969 1450 2034 
L 1753 2072 
z
M 1800 3497 
L 1800 3497 
z
" transform="scale(0.015625)"/>
       <path id="Helvetica-Bold-76" d="M 2516 3406 
L 3472 3406 
L 2244 0 
L 1303 0 
L 81 3406 
L 1081 3406 
L 1791 894 
L 2516 3406 
z
" transform="scale(0.015625)"/>
       <path id="Helvetica-Bold-65" d="M 1759 2763 
Q 1450 2763 1279 2569 
Q 1109 2375 1066 2044 
L 2450 2044 
Q 2428 2397 2236 2580 
Q 2044 2763 1759 2763 
z
M 1759 3497 
Q 2184 3497 2525 3337 
Q 2866 3178 3088 2834 
Q 3288 2531 3347 2131 
Q 3381 1897 3375 1456 
L 1044 1456 
Q 1063 944 1366 738 
Q 1550 609 1809 609 
Q 2084 609 2256 766 
Q 2350 850 2422 1000 
L 3331 1000 
Q 3297 697 3016 384 
Q 2578 -113 1791 -113 
Q 1141 -113 644 306 
Q 147 725 147 1669 
Q 147 2553 595 3025 
Q 1044 3497 1759 3497 
z
M 1822 3497 
L 1822 3497 
z
" transform="scale(0.015625)"/>
       <path id="Helvetica-Bold-6c" d="M 1325 0 
L 434 0 
L 434 4606 
L 1325 4606 
L 1325 0 
z
" transform="scale(0.015625)"/>
       <path id="Helvetica-Bold-6e" d="M 2303 3488 
Q 2831 3488 3167 3211 
Q 3503 2934 3503 2294 
L 3503 0 
L 2591 0 
L 2591 2072 
Q 2591 2341 2519 2484 
Q 2388 2747 2019 2747 
Q 1566 2747 1397 2363 
Q 1309 2159 1309 1844 
L 1309 0 
L 422 0 
L 422 3400 
L 1281 3400 
L 1281 2903 
Q 1453 3166 1606 3281 
Q 1881 3488 2303 3488 
z
M 1975 3497 
L 1975 3497 
z
" transform="scale(0.015625)"/>
       <path id="Helvetica-Bold-67" d="M 1878 731 
Q 2191 731 2406 967 
Q 2622 1203 2622 1719 
Q 2622 2203 2417 2456 
Q 2213 2709 1869 2709 
Q 1400 2709 1222 2269 
Q 1128 2034 1128 1691 
Q 1128 1394 1228 1163 
Q 1409 731 1878 731 
z
M 1656 3488 
Q 1913 3488 2103 3409 
Q 2428 3275 2628 2916 
L 2628 3406 
L 3494 3406 
L 3494 175 
Q 3494 -484 3272 -819 
Q 2891 -1394 1809 -1394 
Q 1156 -1394 743 -1137 
Q 331 -881 288 -372 
L 1256 -372 
Q 1294 -528 1378 -597 
Q 1522 -719 1863 -719 
Q 2344 -719 2506 -397 
Q 2613 -191 2613 297 
L 2613 516 
Q 2484 297 2338 188 
Q 2072 -16 1647 -16 
Q 991 -16 598 445 
Q 206 906 206 1694 
Q 206 2453 584 2970 
Q 963 3488 1656 3488 
z
M 1941 3497 
L 1941 3497 
z
" transform="scale(0.015625)"/>
       <path id="Helvetica-Bold-74" d="M 66 2741 
L 66 3375 
L 541 3375 
L 541 4325 
L 1422 4325 
L 1422 3375 
L 1975 3375 
L 1975 2741 
L 1422 2741 
L 1422 941 
Q 1422 731 1475 679 
Q 1528 628 1800 628 
Q 1841 628 1886 629 
Q 1931 631 1975 634 
L 1975 -31 
L 1553 -47 
Q 922 -69 691 172 
Q 541 325 541 644 
L 541 2741 
L 66 2741 
z
" transform="scale(0.015625)"/>
       <path id="Helvetica-Bold-68" d="M 2294 3494 
Q 2609 3494 2867 3384 
Q 3125 3275 3291 3050 
Q 3431 2859 3462 2657 
Q 3494 2456 3494 2000 
L 3494 0 
L 2584 0 
L 2584 2072 
Q 2584 2347 2491 2516 
Q 2369 2753 2028 2753 
Q 1675 2753 1492 2517 
Q 1309 2281 1309 1844 
L 1309 0 
L 422 0 
L 422 4591 
L 1309 4591 
L 1309 2963 
Q 1503 3259 1758 3376 
Q 2013 3494 2294 3494 
z
" transform="scale(0.015625)"/>
       <path id="Helvetica-Bold-20" transform="scale(0.015625)"/>
       <path id="Helvetica-Bold-28" d="M 644 3444 
Q 891 4019 1366 4681 
L 2038 4681 
L 1847 4331 
Q 1453 3609 1300 2819 
Q 1200 2300 1200 1688 
Q 1200 731 1478 -72 
Q 1641 -547 2053 -1291 
L 1394 -1291 
L 1172 -988 
Q 956 -713 713 -169 
Q 278 803 278 1744 
Q 278 2600 644 3444 
z
" transform="scale(0.015625)"/>
       <path id="Helvetica-Bold-6d" d="M 4222 3481 
Q 4447 3481 4665 3393 
Q 4884 3306 5063 3088 
Q 5206 2909 5256 2650 
Q 5288 2478 5288 2147 
L 5281 0 
L 4369 0 
L 4369 2169 
Q 4369 2363 4306 2488 
Q 4188 2725 3869 2725 
Q 3500 2725 3359 2419 
Q 3288 2256 3288 2028 
L 3288 0 
L 2391 0 
L 2391 2028 
Q 2391 2331 2328 2469 
Q 2216 2716 1888 2716 
Q 1506 2716 1375 2469 
Q 1303 2328 1303 2050 
L 1303 0 
L 400 0 
L 400 3400 
L 1266 3400 
L 1266 2903 
Q 1431 3169 1578 3281 
Q 1838 3481 2250 3481 
Q 2641 3481 2881 3309 
Q 3075 3150 3175 2900 
Q 3350 3200 3609 3341 
Q 3884 3481 4222 3481 
z
" transform="scale(0.015625)"/>
       <path id="Helvetica-Bold-29" d="M 753 4681 
Q 1228 4019 1475 3444 
Q 1841 2600 1841 1744 
Q 1841 803 1406 -169 
Q 1163 -713 947 -988 
L 725 -1291 
L 66 -1291 
Q 478 -547 641 -72 
Q 919 731 919 1688 
Q 919 2300 819 2819 
Q 666 3609 272 4331 
L 81 4681 
L 753 4681 
z
" transform="scale(0.015625)"/>
      </defs>
      <use xlink:href="#Helvetica-Bold-57"/>
      <use xlink:href="#Helvetica-Bold-61" x="94.384766"/>
      <use xlink:href="#Helvetica-Bold-76" x="150"/>
      <use xlink:href="#Helvetica-Bold-65" x="205.615234"/>
      <use xlink:href="#Helvetica-Bold-6c" x="261.230469"/>
      <use xlink:href="#Helvetica-Bold-65" x="289.013672"/>
      <use xlink:href="#Helvetica-Bold-6e" x="344.628906"/>
      <use xlink:href="#Helvetica-Bold-67" x="405.712891"/>
      <use xlink:href="#Helvetica-Bold-74" x="466.796875"/>
      <use xlink:href="#Helvetica-Bold-68" x="500.097656"/>
      <use xlink:href="#Helvetica-Bold-20" x="561.181641"/>
      <use xlink:href="#Helvetica-Bold-28" x="588.964844"/>
      <use xlink:href="#Helvetica-Bold-6e" x="622.265625"/>
      <use xlink:href="#Helvetica-Bold-6d" x="683.349609"/>
      <use xlink:href="#Helvetica-Bold-29" x="772.265625"/>
     </g>
    </g>
   </g>
   <g id="matplotlib.axis_2">
    <g id="ytick_1">
     <g id="line2d_12">
      <defs>
       <path id="m9a0bc8ba72" d="M 0 0 
L -3.5 0 
" style="stroke: #000000; stroke-width: 0.8"/>
      </defs>
      <g>
       <use xlink:href="#m9a0bc8ba72" x="95.85" y="337.824" style="stroke: #000000; stroke-width: 0.8"/>
      </g>
     </g>
     <g id="text_13">
      <!-- 56.3 -->
      <g style="fill: #595959" transform="translate(61.604688 342.861812)scale(0.14 -0.14)">
       <defs>
        <path id="Helvetica-Bold-2e" d="M 400 931 
L 1347 931 
L 1347 0 
L 400 0 
L 400 931 
z
" transform="scale(0.015625)"/>
       </defs>
       <use xlink:href="#Helvetica-Bold-35"/>
       <use xlink:href="#Helvetica-Bold-36" x="55.615234"/>
       <use xlink:href="#Helvetica-Bold-2e" x="111.230469"/>
       <use xlink:href="#Helvetica-Bold-33" x="139.013672"/>
      </g>
     </g>
    </g>
    <g id="ytick_2">
     <g id="line2d_13">
      <g>
       <use xlink:href="#m9a0bc8ba72" x="95.85" y="305.127155" style="stroke: #000000; stroke-width: 0.8"/>
      </g>
     </g>
     <g id="text_14">
      <!-- 106.3 -->
      <g style="fill: #595959" transform="translate(53.819375 310.164968)scale(0.14 -0.14)">
       <defs>
        <path id="Helvetica-Bold-31" d="M 444 3125 
L 444 3731 
Q 866 3750 1034 3788 
Q 1303 3847 1472 4025 
Q 1588 4147 1647 4350 
Q 1681 4472 1681 4531 
L 2422 4531 
L 2422 0 
L 1509 0 
L 1509 3125 
L 444 3125 
z
" transform="scale(0.015625)"/>
       </defs>
       <use xlink:href="#Helvetica-Bold-31"/>
       <use xlink:href="#Helvetica-Bold-30" x="55.615234"/>
       <use xlink:href="#Helvetica-Bold-36" x="111.230469"/>
       <use xlink:href="#Helvetica-Bold-2e" x="166.845703"/>
       <use xlink:href="#Helvetica-Bold-33" x="194.628906"/>
      </g>
     </g>
    </g>
    <g id="ytick_3">
     <g id="line2d_14">
      <g>
       <use xlink:href="#m9a0bc8ba72" x="95.85" y="272.430311" style="stroke: #000000; stroke-width: 0.8"/>
      </g>
     </g>
     <g id="text_15">
      <!-- 156.3 -->
      <g style="fill: #595959" transform="translate(53.819375 277.468123)scale(0.14 -0.14)">
       <use xlink:href="#Helvetica-Bold-31"/>
       <use xlink:href="#Helvetica-Bold-35" x="55.615234"/>
       <use xlink:href="#Helvetica-Bold-36" x="111.230469"/>
       <use xlink:href="#Helvetica-Bold-2e" x="166.845703"/>
       <use xlink:href="#Helvetica-Bold-33" x="194.628906"/>
      </g>
     </g>
    </g>
    <g id="ytick_4">
     <g id="line2d_15">
      <g>
       <use xlink:href="#m9a0bc8ba72" x="95.85" y="239.733466" style="stroke: #000000; stroke-width: 0.8"/>
      </g>
     </g>
     <g id="text_16">
      <!-- 206.3 -->
      <g style="fill: #595959" transform="translate(53.819375 244.771278)scale(0.14 -0.14)">
       <use xlink:href="#Helvetica-Bold-32"/>
       <use xlink:href="#Helvetica-Bold-30" x="55.615234"/>
       <use xlink:href="#Helvetica-Bold-36" x="111.230469"/>
       <use xlink:href="#Helvetica-Bold-2e" x="166.845703"/>
       <use xlink:href="#Helvetica-Bold-33" x="194.628906"/>
      </g>
     </g>
    </g>
    <g id="ytick_5">
     <g id="line2d_16">
      <g>
       <use xlink:href="#m9a0bc8ba72" x="95.85" y="207.036621" style="stroke: #000000; stroke-width: 0.8"/>
      </g>
     </g>
     <g id="text_17">
      <!-- 256.3 -->
      <g style="fill: #595959" transform="translate(53.819375 212.074434)scale(0.14 -0.14)">
       <use xlink:href="#Helvetica-Bold-32"/>
       <use xlink:href="#Helvetica-Bold-35" x="55.615234"/>
       <use xlink:href="#Helvetica-Bold-36" x="111.230469"/>
       <use xlink:href="#Helvetica-Bold-2e" x="166.845703"/>
       <use xlink:href="#Helvetica-Bold-33" x="194.628906"/>
      </g>
     </g>
    </g>
    <g id="ytick_6">
     <g id="line2d_17">
      <g>
       <use xlink:href="#m9a0bc8ba72" x="95.85" y="174.339777" style="stroke: #000000; stroke-width: 0.8"/>
      </g>
     </g>
     <g id="text_18">
      <!-- 306.3 -->
      <g style="fill: #595959" transform="translate(53.819375 179.377589)scale(0.14 -0.14)">
       <use xlink:href="#Helvetica-Bold-33"/>
       <use xlink:href="#Helvetica-Bold-30" x="55.615234"/>
       <use xlink:href="#Helvetica-Bold-36" x="111.230469"/>
       <use xlink:href="#Helvetica-Bold-2e" x="166.845703"/>
       <use xlink:href="#Helvetica-Bold-33" x="194.628906"/>
      </g>
     </g>
    </g>
    <g id="ytick_7">
     <g id="line2d_18">
      <g>
       <use xlink:href="#m9a0bc8ba72" x="95.85" y="141.642932" style="stroke: #000000; stroke-width: 0.8"/>
      </g>
     </g>
     <g id="text_19">
      <!-- 356.3 -->
      <g style="fill: #595959" transform="translate(53.819375 146.680744)scale(0.14 -0.14)">
       <use xlink:href="#Helvetica-Bold-33"/>
       <use xlink:href="#Helvetica-Bold-35" x="55.615234"/>
       <use xlink:href="#Helvetica-Bold-36" x="111.230469"/>
       <use xlink:href="#Helvetica-Bold-2e" x="166.845703"/>
       <use xlink:href="#Helvetica-Bold-33" x="194.628906"/>
      </g>
     </g>
    </g>
    <g id="ytick_8">
     <g id="line2d_19">
      <g>
       <use xlink:href="#m9a0bc8ba72" x="95.85" y="108.946087" style="stroke: #000000; stroke-width: 0.8"/>
      </g>
     </g>
     <g id="text_20">
      <!-- 406.3 -->
      <g style="fill: #595959" transform="translate(53.819375 113.9839)scale(0.14 -0.14)">
       <use xlink:href="#Helvetica-Bold-34"/>
       <use xlink:href="#Helvetica-Bold-30" x="55.615234"/>
       <use xlink:href="#Helvetica-Bold-36" x="111.230469"/>
       <use xlink:href="#Helvetica-Bold-2e" x="166.845703"/>
       <use xlink:href="#Helvetica-Bold-33" x="194.628906"/>
      </g>
     </g>
    </g>
    <g id="ytick_9">
     <g id="line2d_20">
      <g>
       <use xlink:href="#m9a0bc8ba72" x="95.85" y="76.249243" style="stroke: #000000; stroke-width: 0.8"/>
      </g>
     </g>
     <g id="text_21">
      <!-- 456.3 -->
      <g style="fill: #595959" transform="translate(53.819375 81.287055)scale(0.14 -0.14)">
       <use xlink:href="#Helvetica-Bold-34"/>
       <use xlink:href="#Helvetica-Bold-35" x="55.615234"/>
       <use xlink:href="#Helvetica-Bold-36" x="111.230469"/>
       <use xlink:href="#Helvetica-Bold-2e" x="166.845703"/>
       <use xlink:href="#Helvetica-Bold-33" x="194.628906"/>
      </g>
     </g>
    </g>
    <g id="text_22">
     <!-- Fluorescence Intensity -->
     <g style="fill: #595959" transform="translate(45.513125 301.117775)rotate(-90)scale(0.2 -0.2)">
      <defs>
       <path id="Helvetica-Bold-46" d="M 488 4600 
L 3753 4600 
L 3753 3791 
L 1444 3791 
L 1444 2731 
L 3466 2731 
L 3466 1931 
L 1444 1931 
L 1444 0 
L 488 0 
L 488 4600 
z
" transform="scale(0.015625)"/>
       <path id="Helvetica-Bold-75" d="M 1303 3406 
L 1303 1353 
Q 1303 1063 1372 916 
Q 1494 656 1850 656 
Q 2306 656 2475 1025 
Q 2563 1225 2563 1553 
L 2563 3406 
L 3466 3406 
L 3466 0 
L 2600 0 
L 2600 481 
Q 2588 466 2538 387 
Q 2488 309 2419 250 
Q 2209 63 2014 -6 
Q 1819 -75 1556 -75 
Q 800 -75 538 469 
Q 391 769 391 1353 
L 391 3406 
L 1303 3406 
z
M 1928 3497 
L 1928 3497 
z
" transform="scale(0.015625)"/>
       <path id="Helvetica-Bold-6f" d="M 1944 628 
Q 2334 628 2543 906 
Q 2753 1184 2753 1697 
Q 2753 2209 2543 2486 
Q 2334 2763 1944 2763 
Q 1553 2763 1342 2486 
Q 1131 2209 1131 1697 
Q 1131 1184 1342 906 
Q 1553 628 1944 628 
z
M 3688 1697 
Q 3688 947 3256 414 
Q 2825 -119 1947 -119 
Q 1069 -119 637 414 
Q 206 947 206 1697 
Q 206 2434 637 2975 
Q 1069 3516 1947 3516 
Q 2825 3516 3256 2975 
Q 3688 2434 3688 1697 
z
M 1947 3497 
L 1947 3497 
z
" transform="scale(0.015625)"/>
       <path id="Helvetica-Bold-72" d="M 2266 3488 
Q 2291 3488 2308 3486 
Q 2325 3484 2384 3481 
L 2384 2569 
Q 2300 2578 2234 2581 
Q 2169 2584 2128 2584 
Q 1591 2584 1406 2234 
Q 1303 2038 1303 1628 
L 1303 0 
L 406 0 
L 406 3406 
L 1256 3406 
L 1256 2813 
Q 1463 3153 1616 3278 
Q 1866 3488 2266 3488 
z
" transform="scale(0.015625)"/>
       <path id="Helvetica-Bold-73" d="M 1109 1088 
Q 1138 850 1231 750 
Q 1397 572 1844 572 
Q 2106 572 2261 650 
Q 2416 728 2416 884 
Q 2416 1034 2291 1113 
Q 2166 1191 1363 1381 
Q 784 1525 547 1741 
Q 309 1953 309 2353 
Q 309 2825 679 3164 
Q 1050 3503 1722 3503 
Q 2359 3503 2761 3248 
Q 3163 2994 3222 2369 
L 2331 2369 
Q 2313 2541 2234 2641 
Q 2088 2822 1734 2822 
Q 1444 2822 1320 2731 
Q 1197 2641 1197 2519 
Q 1197 2366 1328 2297 
Q 1459 2225 2256 2050 
Q 2788 1925 3053 1672 
Q 3316 1416 3316 1031 
Q 3316 525 2939 204 
Q 2563 -116 1775 -116 
Q 972 -116 589 223 
Q 206 563 206 1088 
L 1109 1088 
z
M 1791 3497 
L 1791 3497 
z
" transform="scale(0.015625)"/>
       <path id="Helvetica-Bold-63" d="M 2450 2184 
Q 2425 2375 2322 2528 
Q 2172 2734 1856 2734 
Q 1406 2734 1241 2288 
Q 1153 2050 1153 1656 
Q 1153 1281 1241 1053 
Q 1400 628 1841 628 
Q 2153 628 2284 797 
Q 2416 966 2444 1234 
L 3353 1234 
Q 3322 828 3059 466 
Q 2641 -119 1819 -119 
Q 997 -119 609 368 
Q 222 856 222 1634 
Q 222 2513 650 3000 
Q 1078 3488 1831 3488 
Q 2472 3488 2880 3200 
Q 3288 2913 3363 2184 
L 2450 2184 
z
M 1847 3497 
L 1847 3497 
z
" transform="scale(0.015625)"/>
       <path id="Helvetica-Bold-49" d="M 1369 0 
L 413 0 
L 413 4606 
L 1369 4606 
L 1369 0 
z
M 891 4697 
L 891 4697 
z
" transform="scale(0.015625)"/>
       <path id="Helvetica-Bold-69" d="M 1331 3813 
L 428 3813 
L 428 4634 
L 1331 4634 
L 1331 3813 
z
M 428 3406 
L 1331 3406 
L 1331 0 
L 428 0 
L 428 3406 
z
" transform="scale(0.015625)"/>
       <path id="Helvetica-Bold-79" d="M 553 -653 
L 666 -659 
Q 797 -666 915 -650 
Q 1034 -634 1116 -578 
Q 1194 -525 1261 -356 
Q 1328 -188 1316 -150 
L 66 3406 
L 1056 3406 
L 1800 894 
L 2503 3406 
L 3450 3406 
L 2281 56 
Q 1944 -913 1747 -1145 
Q 1550 -1378 959 -1378 
Q 841 -1378 769 -1376 
Q 697 -1375 553 -1366 
L 553 -653 
z
M 1759 3497 
L 1759 3497 
z
" transform="scale(0.015625)"/>
      </defs>
      <use xlink:href="#Helvetica-Bold-46"/>
      <use xlink:href="#Helvetica-Bold-6c" x="61.083984"/>
      <use xlink:href="#Helvetica-Bold-75" x="88.867188"/>
      <use xlink:href="#Helvetica-Bold-6f" x="149.951172"/>
      <use xlink:href="#Helvetica-Bold-72" x="211.035156"/>
      <use xlink:href="#Helvetica-Bold-65" x="249.951172"/>
      <use xlink:href="#Helvetica-Bold-73" x="305.566406"/>
      <use xlink:href="#Helvetica-Bold-63" x="361.181641"/>
      <use xlink:href="#Helvetica-Bold-65" x="416.796875"/>
      <use xlink:href="#Helvetica-Bold-6e" x="472.412109"/>
      <use xlink:href="#Helvetica-Bold-63" x="533.496094"/>
      <use xlink:href="#Helvetica-Bold-65" x="589.111328"/>
      <use xlink:href="#Helvetica-Bold-20" x="644.726562"/>
      <use xlink:href="#Helvetica-Bold-49" x="672.509766"/>
      <use xlink:href="#Helvetica-Bold-6e" x="700.292969"/>
      <use xlink:href="#Helvetica-Bold-74" x="761.376953"/>
      <use xlink:href="#Helvetica-Bold-65" x="794.677734"/>
      <use xlink:href="#Helvetica-Bold-6e" x="850.292969"/>
      <use xlink:href="#Helvetica-Bold-73" x="911.376953"/>
      <use xlink:href="#Helvetica-Bold-69" x="966.992188"/>
      <use xlink:href="#Helvetica-Bold-74" x="994.775391"/>
      <use xlink:href="#Helvetica-Bold-79" x="1028.076172"/>
     </g>
    </g>
   </g>
   <g id="line2d_21">
    <path d="M 95.85 337.824 
L 98.82135 332.101855 
L 101.7927 332.171698 
L 104.76405 328.657311 
L 107.7354 320.410708 
L 110.70675 306.115582 
L 113.6781 304.780243 
L 116.64945 302.824973 
L 119.6208 293.410241 
L 122.59215 295.977599 
L 125.5635 297.902136 
L 128.53485 290.470793 
L 131.5062 285.587191 
L 134.47755 292.548352 
L 137.4489 292.458762 
L 140.42025 292.513039 
L 143.3916 296.19536 
L 146.36295 293.362505 
L 149.3343 285.846157 
L 152.30565 282.592817 
L 155.277 277.340398 
L 158.24835 277.647749 
L 161.2197 279.358446 
L 164.19105 271.333989 
L 167.1624 262.446979 
L 170.13375 251.494853 
L 173.1051 244.770417 
L 176.07645 235.716001 
L 179.0478 231.306507 
L 182.01915 232.681086 
L 184.9905 231.873473 
L 187.96185 218.919634 
L 190.9332 204.454553 
L 193.90455 202.568597 
L 196.8759 202.130451 
L 199.84725 194.787411 
L 202.8186 185.676757 
L 205.78995 170.39687 
L 208.7613 178.551464 
L 211.73265 179.26555 
L 214.704 168.287261 
L 217.67535 162.672559 
L 220.6467 161.834862 
L 223.61805 158.469706 
L 226.5894 153.088457 
L 229.56075 148.720821 
L 232.5321 144.118417 
L 235.50345 143.863372 
L 238.4748 124.927321 
L 241.44615 131.497423 
L 244.4175 129.508811 
L 247.38885 126.239126 
L 250.3602 127.989717 
L 253.33155 134.67425 
L 256.3029 120.661704 
L 259.27425 122.764109 
L 262.2456 122.241606 
L 265.21695 114.964602 
L 268.1883 116.083487 
L 271.15965 123.303595 
L 274.131 120.260178 
L 277.10235 122.148748 
L 280.0737 118.908499 
L 283.04505 120.430208 
L 286.0164 113.348719 
L 288.98775 106.607289 
L 291.9591 114.969172 
L 294.93045 113.031549 
L 297.9018 107.974015 
L 300.87315 111.279661 
L 303.8445 116.386248 
L 306.81585 104.876975 
L 309.7872 104.591855 
L 312.75855 109.492451 
L 315.7299 98.08779 
L 318.70125 100.994544 
L 321.6726 99.814193 
L 324.64395 115.621153 
L 327.6153 121.850557 
L 330.58665 121.736106 
L 333.558 110.665618 
L 336.52935 107.83865 
L 339.5007 114.982244 
L 342.47205 111.032479 
L 345.4434 108.639726 
L 348.41475 106.480426 
L 351.3861 117.211532 
L 354.35745 104.723289 
L 357.3288 101.711264 
L 360.30015 103.453353 
L 363.2715 98.277437 
L 366.24285 104.542144 
L 369.2142 103.253249 
L 372.18555 98.342176 
L 375.1569 106.972175 
L 378.12825 99.65462 
L 381.0996 87.425353 
L 384.07095 84.079156 
L 387.0423 90.869638 
L 390.01365 79.443404 
L 392.985 92.408349 
L 395.95635 86.288148 
L 398.9277 70.10321 
L 401.89905 83.59459 
L 404.8704 84.166126 
L 407.84175 86.388211 
L 410.8131 82.102298 
L 413.78445 85.43738 
L 416.7558 85.470727 
L 419.72715 88.905213 
L 422.6985 85.496232 
L 425.66985 99.009185 
L 428.6412 93.546852 
L 431.61255 89.485251 
L 434.5839 101.861018 
L 437.55525 94.744206 
L 440.5266 96.524232 
L 443.49795 105.45374 
L 446.4693 106.494156 
L 449.44065 118.248675 
L 452.412 121.153454 
L 458.3547 117.092511 
L 461.32605 114.523841 
L 464.2974 133.025677 
L 467.26875 138.852916 
L 470.2401 133.153858 
L 473.21145 142.293928 
L 476.1828 142.732074 
L 479.15415 142.490101 
L 482.1255 144.803746 
L 485.09685 149.04779 
L 488.0682 137.289997 
L 491.03955 142.760193 
L 494.0109 146.964344 
L 496.98225 143.141423 
L 499.9536 135.076435 
L 502.92495 154.635669 
L 505.8963 143.716232 
L 508.86765 154.174653 
L 511.839 153.924198 
L 514.81035 157.763463 
L 517.7817 156.154764 
L 520.75305 154.981617 
L 523.7244 155.703565 
L 526.69575 154.98946 
L 529.6671 165.17649 
L 532.63845 160.809494 
L 535.6098 155.961205 
L 538.58115 163.534444 
L 541.5525 161.164581 
L 544.52385 163.139463 
L 547.4952 171.603384 
L 550.46655 164.002006 
L 553.4379 154.411378 
L 559.3806 172.701335 
L 562.35195 177.282166 
L 565.3233 175.701605 
L 568.29465 179.039941 
L 571.266 174.149164 
L 574.23735 163.472319 
L 577.2087 165.514575 
L 583.1514 182.056556 
L 586.12275 172.565969 
L 589.0941 167.321403 
L 592.06545 166.799558 
L 595.0368 171.175695 
L 598.00815 165.039808 
L 600.9795 170.668898 
L 603.95085 171.120116 
L 606.9222 166.881959 
L 609.89355 177.517594 
L 612.8649 184.415961 
L 615.83625 189.923416 
L 618.8076 183.864042 
L 621.77895 179.488544 
L 624.7503 185.986723 
L 627.72165 187.020593 
L 630.693 183.676371 
L 633.66435 175.207221 
L 636.6357 189.122998 
L 639.60705 183.335652 
L 642.5784 181.437283 
L 645.54975 184.426418 
L 648.5211 195.762429 
L 654.4638 194.131498 
L 657.43515 189.644842 
L 660.4065 187.586901 
L 663.37785 189.092923 
L 666.3492 198.589397 
L 669.32055 196.769477 
L 672.2919 197.162502 
L 675.26325 193.440941 
L 678.2346 197.707895 
L 681.20595 198.155182 
L 684.1773 200.086898 
L 687.14865 208.759415 
L 690.12 208.34352 
L 690.12 208.34352 
" clip-path="url(#pf947484ed7)" style="fill: none; stroke: #1f77b4; stroke-width: 4; stroke-linecap: square"/>
   </g>
   <g id="patch_3">
    <path d="M 95.85 337.824 
L 95.85 47.6928 
" style="fill: none; stroke: #000000; stroke-width: 0.8; stroke-linejoin: miter; stroke-linecap: square"/>
   </g>
   <g id="patch_4">
    <path d="M 690.12 337.824 
L 690.12 47.6928 
" style="fill: none; stroke: #000000; stroke-width: 0.8; stroke-linejoin: miter; stroke-linecap: square"/>
   </g>
   <g id="patch_5">
    <path d="M 95.85 337.824 
L 690.12 337.824 
" style="fill: none; stroke: #000000; stroke-width: 0.8; stroke-linejoin: miter; stroke-linecap: square"/>
   </g>
   <g id="patch_6">
    <path d="M 95.85 47.6928 
L 690.12 47.6928 
" style="fill: none; stroke: #000000; stroke-width: 0.8; stroke-linejoin: miter; stroke-linecap: square"/>
   </g>
  </g>
 </g>
 <defs>
  <clipPath id="pf947484ed7">
   <rect x="95.85" y="47.6928" width="594.27" height="290.1312"/>
  </clipPath>
 </defs>
</svg>
