<svg id="Layer_1" data-name="Layer 1" xmlns="http://www.w3.org/2000/svg" xmlns:xlink="http://www.w3.org/1999/xlink" viewBox="0 0 600 600"><defs><style>.cls-1,.cls-10,.cls-11,.cls-12,.cls-13,.cls-2,.cls-3,.cls-4,.cls-5,.cls-6,.cls-7,.cls-9{stroke:#000;stroke-miterlimit:10;}.cls-1{fill:url(#linear-gradient);}.cls-2{fill:#084256;}.cls-3{fill:#eceaea;}.cls-4{fill:#0c4155;}.cls-5{fill:#566a6f;}.cls-6{fill:url(#linear-gradient-2);}.cls-7{fill:url(#linear-gradient-3);}.cls-8{fill:#fefefe;}.cls-9{fill:#fff;}.cls-10{fill:#134052;}.cls-11{fill:#1d4456;}.cls-13{fill:#183e4f;}</style><linearGradient id="linear-gradient" x1="161.93" y1="530.48" x2="161.93" y2="512.26" gradientUnits="userSpaceOnUse"><stop offset="0" stop-color="#fefefe"/><stop offset="0.11" stop-color="#e7eaeb"/><stop offset="0.42" stop-color="#a9b3b6"/><stop offset="0.68" stop-color="#7c8c8f"/><stop offset="0.88" stop-color="#607378"/><stop offset="1" stop-color="#566a6f"/></linearGradient><linearGradient id="linear-gradient-2" x1="164.16" y1="411.91" x2="164.16" y2="396.12" gradientUnits="userSpaceOnUse"><stop offset="0" stop-color="#fefefe"/><stop offset="0.03" stop-color="#eef0f1"/><stop offset="0.14" stop-color="#c6cdce"/><stop offset="0.25" stop-color="#a3aeb1"/><stop offset="0.36" stop-color="#879599"/><stop offset="0.49" stop-color="#718286"/><stop offset="0.62" stop-color="#627479"/><stop offset="0.78" stop-color="#596c71"/><stop offset="1" stop-color="#566a6f"/></linearGradient><linearGradient id="linear-gradient-3" x1="160.71" y1="415.89" x2="160.71" y2="410.9" gradientUnits="userSpaceOnUse"><stop offset="0" stop-color="#fefefe"/><stop offset="0" stop-color="#fefefe"/><stop offset="0.26" stop-color="#c2c9cb"/><stop offset="0.5" stop-color="#94a0a3"/><stop offset="0.71" stop-color="#728387"/><stop offset="0.88" stop-color="#5d7175"/><stop offset="1" stop-color="#566a6f"/></linearGradient></defs><g id="front_view_-_closed" data-name="front view - closed"><polygon class="cls-1" points="108.49 530.48 108.49 520.48 125.96 513.29 199.28 512.26 215.04 518.77 215.37 528.7 108.49 530.48"/><polygon class="cls-2" points="70.46 314.92 66.78 314.92 61.9 316.29 16.33 331.71 12.56 337.19 11.53 341.65 7.22 367.51 4.85 393.15 2.63 441.34 2.63 477.96 6.39 514.66 10.51 554.05 14.83 560.39 62.41 578.27 72.17 577.69 78 573.89 70.46 314.92"/><polygon class="cls-3" points="72.86 316.64 90.67 312.87 103.86 312.87 198.03 312.87 259.01 314.75 259.01 393.15 62.41 393.15 68.41 328.28 72.86 316.64"/><polygon class="cls-4" points="492.78 315.27 496.31 313.55 512.49 314.41 540.16 318.69 547.35 322.4 583.67 336.85 587.44 340.96 590.18 352.95 593.26 380.36 597.37 418.73 597.37 473.8 594.63 504.04 590.18 541.04 587.47 551.66 582.64 555.08 541.63 572.21 522 577.01 504.25 568.67 492.78 315.27"/><polygon class="cls-5" points="62.41 393.15 259.01 393.15 256.55 396.12 74.4 396.12 69.78 396.12 62.41 393.15"/><polygon class="cls-6" points="73.89 411.12 74.4 396.12 254.43 396.12 254.43 411.91 73.89 411.12"/><polygon class="cls-7" points="62.41 415.89 69.45 410.9 259.01 410.9 257.7 415.89 62.41 415.89"/><polygon class="cls-8" points="257.18 419.07 257.7 415.89 62.41 415.89 62.41 419.07 257.18 419.07"/><polygon class="cls-3" points="62.41 419.07 257.18 419.07 257.7 527.23 215.38 527.33 215.04 518.77 199.28 512.26 125.96 513.29 108.49 520.48 108.49 528.7 62.41 528.7 62.41 419.07"/><path class="cls-9" d="M111.23,527.33l-2.74,1.37Z"/><polygon class="cls-9" points="257.7 528.7 215.37 528.7 215.38 527.33 257.7 527.23 257.7 528.7"/><polygon class="cls-10" points="61.55 531.79 63.71 530.36 62.41 528.7 62.41 415.89 69.45 410.9 73.89 410.9 74.4 396.12 69.78 396.12 60.96 393.15 60.18 445.11 60.18 509.61 61.21 553.71 61.9 560.57 63.27 568.44 64.98 571.53 67.29 573.45 69.09 575.64 71.58 575.64 78 572.21 70.12 572.21 69.09 571.96 68.06 570.84 66.69 569.13 65.66 566.05 64.98 563.65 64.29 561.25 63.95 558.85 63.27 555.43 62.41 552.35 61.9 549.26 61.55 531.79"/><polygon class="cls-11" points="68.41 328.28 72.86 316.64 90.67 312.87 107.22 312.87 97.53 311.15 89.27 311.15 72.52 313.55 70.46 314.92 69.09 316.77 66.01 324.86 62.41 370.25 60.96 393.15 69.78 396.12 62.41 393.15 68.41 328.28"/><polygon class="cls-12" points="127.4 579.23 109.59 579.23 109.59 575.8 109.59 567.58 127.4 567.58 127.4 579.23"/><polygon class="cls-10" points="254.43 410.9 254.43 396.12 256.55 396.12 259.01 393.15 259.01 410.9 254.43 410.9"/><polygon class="cls-2" points="257.18 419.07 259.01 410.9 259.5 528.7 257.7 528.7 257.18 419.07"/><polygon class="cls-3" points="259.01 314.75 260.6 313.55 485.35 315.27 501.05 315.27 526.8 319.03 531.94 320.75 536.05 324.52 538.79 330.68 540.16 338.22 542.9 363.57 545.3 388.24 546.33 408.11 547.35 436.89 547.35 456.5 547.35 484.49 545.64 513.63 545.3 525.28 544.61 529.05 259.5 528.7 259.01 314.75"/><polygon class="cls-3" points="94.78 568.1 95.47 569.13 96.16 569.47 97.11 569.47 100.61 567.76 103.35 566.39 103.64 568.62 99.92 570.84 96.84 571.53 95.13 571.18 93.76 569.82 91.7 566.05 89.99 560.57 89.3 557.48 89.3 553.95 89.65 552 91.36 549.26 90.33 551.66 89.99 554.4 89.99 555.77 90.33 558.17 90.67 559.54 91.7 561.93 92.39 563.99 93.07 565.36 93.76 566.73 94.78 568.1"/><rect class="cls-3" x="87.59" y="529.73" width="151.77" height="38.03"/><polygon class="cls-3" points="63.71 530.36 64.29 531.1 108.49 530.48 215.37 528.7 544.61 529.05 544.61 531.1 61.6 534.17 61.55 531.79 63.71 530.36"/><polygon class="cls-9" points="100.61 567.76 94.78 568.1 95.47 569.13 96.16 569.47 97.11 569.47 100.61 567.76"/><polyline class="cls-3" points="98.25 571.22 96.84 571.53 95.13 571.18 93.76 569.82 91.7 566.05 89.99 560.57 89.3 557.48 89.3 553.95 89.65 552 91.36 549.26 95.81 545.49 99.58 544.46 101.29 544.12 222.57 542.41 225.66 542.75 227.71 543.78 229.08 544.46 230.11 545.49 231.48 546.86 232.85 548.92 233.88 550.97 234.56 553.03 235.25 565.7 235.25 569.21 530.4 568.62 536.73 566.05 539.82 561.25 541.87 555.08 543.24 548.57 544.61 531.1 61.6 534.17 61.9 549.26 64.29 561.25 66.69 569.13 68.06 570.84 69.09 571.96 70.12 572.21 79.6 572.21 91.7 571.87 96.5 571.87"/><polyline class="cls-13" points="540.16 318.69 543.93 322.8 545.08 335.78 545.3 388.24"/><polygon class="cls-12" points="487.74 580.43 469.93 580.43 469.93 577.01 469.93 568.79 487.74 568.79 487.74 580.43"/><polyline class="cls-12" points="478.78 592.16 467.13 592.16 466.21 588.37 464.44 585.31 464.44 580.86 467.8 579.49 478.78 579.49 478.49 579.49 489.48 579.49 492.83 580.86 492.83 585.31 491.06 588.37 490.14 592.16 478.49 592.16"/><polyline class="cls-12" points="118.44 590.96 106.8 590.96 105.87 587.16 104.1 584.1 104.1 579.65 107.46 578.28 118.44 578.28 118.15 578.28 129.14 578.28 132.49 579.65 132.49 584.1 130.72 587.16 129.8 590.96 118.15 590.96"/><polyline class="cls-3" points="112.46 518.85 112.46 528.7 108.49 530.48 64.29 531.1 62.41 528.7 108.49 528.7 111.23 527.33 111.23 519.35"/></g></svg>