<svg id="Layer_1" data-name="Layer 1" xmlns="http://www.w3.org/2000/svg" xmlns:xlink="http://www.w3.org/1999/xlink" viewBox="0 0 600 600"><defs><style>.cls-1{fill:#0c4155;}.cls-1,.cls-2,.cls-3,.cls-4,.cls-5,.cls-7,.cls-8,.cls-9{stroke:#000;}.cls-1,.cls-2,.cls-3,.cls-4,.cls-5,.cls-6,.cls-7,.cls-8,.cls-9{stroke-miterlimit:10;}.cls-2{fill:#fff;}.cls-3{fill:#eceaea;}.cls-5{fill:url(#linear-gradient);}.cls-6,.cls-7{fill:#333;}.cls-6{stroke:#1a1a1a;}.cls-8{fill:#4d4d4d;}.cls-9{fill:#1a1a1a;}</style><linearGradient id="linear-gradient" x1="162.9" y1="529.36" x2="162.9" y2="511.13" gradientUnits="userSpaceOnUse"><stop offset="0" stop-color="#fefefe"/><stop offset="0.11" stop-color="#e7eaeb"/><stop offset="0.42" stop-color="#a9b3b6"/><stop offset="0.68" stop-color="#7c8c8f"/><stop offset="0.88" stop-color="#607378"/><stop offset="1" stop-color="#566a6f"/></linearGradient></defs><g id="front_view_-_open" data-name="front view - open"><g id="FluSpec_Open" data-name="FluSpec Open"><polygon class="cls-1" points="492.78 313.15 496.31 311.42 512.49 312.28 540.16 316.6 547.35 320.34 583.67 334.9 587.44 339.04 590.18 351.12 593.26 378.74 597.37 417.4 597.37 472.89 594.63 503.36 590.18 540.64 587.47 551.35 582.64 554.8 541.63 572.06 522 576.89 504.25 568.49 492.78 313.15"/><polygon class="cls-1" points="70.46 312.8 66.78 312.8 61.9 314.18 16.33 329.72 12.56 335.24 11.53 339.73 7.22 365.79 4.85 391.63 2.63 440.19 2.63 477.09 6.39 514.06 10.51 553.76 14.83 560.15 62.41 578.16 72.17 577.58 78 573.75 70.46 312.8"/><polygon class="cls-2" points="261.4 417.75 261.93 414.54 63.4 414.54 63.4 417.75 261.4 417.75"/><polygon class="cls-3" points="62.41 417.75 257.18 417.75 257.7 526.73 215.38 526.84 215.04 518.21 199.28 511.65 125.96 512.68 108.49 519.93 108.49 528.22 62.41 528.22 62.41 417.75"/><path class="cls-2" d="M111.23,526.84l-2.74,1.38Z"/><polygon class="cls-2" points="257.7 528.22 215.37 528.22 215.38 526.84 257.7 526.73 257.7 528.22"/><polygon class="cls-3" points="94.78 567.92 95.47 568.95 96.16 569.3 97.11 569.3 100.61 567.57 103.35 566.19 103.64 568.43 99.92 570.68 96.84 571.37 95.13 571.02 93.76 569.64 91.7 565.85 89.99 560.32 89.3 557.22 89.3 553.66 89.65 551.69 91.36 548.93 90.33 551.35 89.99 554.11 89.99 555.49 90.33 557.91 90.67 559.29 91.7 561.7 92.39 563.77 93.07 565.16 93.76 566.54 94.78 567.92"/><polygon class="cls-1" points="61.55 531.33 63.71 529.89 62.41 528.22 62.41 414.54 69.45 409.52 73.89 409.52 74.4 394.62 69.78 394.62 60.96 391.63 60.18 443.99 60.18 508.98 61.21 553.42 61.9 560.32 63.27 568.26 64.98 571.37 67.29 573.31 69.09 575.51 71.58 575.51 78 572.06 70.12 572.06 69.09 571.8 68.06 570.68 66.69 568.95 65.66 565.85 64.98 563.43 64.29 561.01 63.95 558.6 63.27 555.14 62.41 552.05 61.9 548.93 61.55 531.33"/><polygon class="cls-4" points="127.4 579.13 109.59 579.13 109.59 575.68 109.59 567.39 127.4 567.39 127.4 579.13"/><rect class="cls-3" x="87.59" y="529.25" width="151.77" height="38.32"/><polygon class="cls-2" points="257.18 417.75 259.01 409.52 259.5 528.22 257.7 528.22 257.18 417.75"/><polygon class="cls-3" points="259.01 312.63 260.6 311.42 485.35 313.15 501.05 313.15 526.8 316.94 531.94 318.67 536.05 322.47 538.79 328.68 540.16 336.28 542.9 361.82 545.3 386.68 546.33 406.7 547.35 435.7 547.35 455.46 547.35 483.67 545.64 513.03 545.3 524.76 544.61 528.56 259.5 528.22 259.01 312.63"/><polygon class="cls-3" points="63.71 529.89 64.29 530.63 108.49 530 215.37 528.22 544.61 528.56 544.61 530.63 61.6 533.72 61.55 531.33 63.71 529.89"/><polygon class="cls-2" points="100.61 567.57 94.78 567.92 95.47 568.95 96.16 569.3 97.11 569.3 100.61 567.57"/><polyline class="cls-3" points="98.25 571.05 96.84 571.37 95.13 571.02 93.76 569.64 91.7 565.85 89.99 560.32 89.3 557.22 89.3 553.66 89.65 551.69 91.36 548.93 95.81 545.13 99.58 544.1 101.29 543.75 222.57 542.03 225.66 542.37 227.71 543.41 229.08 544.1 230.11 545.13 231.48 546.51 232.85 548.59 233.88 550.66 234.56 552.73 235.25 565.5 235.25 569.03 530.4 568.43 536.73 565.85 539.82 561.01 541.87 554.8 543.24 548.24 544.61 530.63 61.6 533.72 61.9 548.93 64.29 561.01 66.69 568.95 68.06 570.68 69.09 571.8 70.12 572.06 79.6 572.06 91.7 571.72 96.5 571.72"/><polygon class="cls-4" points="487.74 580.35 469.93 580.35 469.93 576.89 469.93 568.61 487.74 568.61 487.74 580.35"/><polyline class="cls-4" points="478.78 592.16 467.13 592.16 466.21 588.34 464.44 585.25 464.44 580.77 467.8 579.39 478.78 579.39 478.49 579.39 489.48 579.39 492.83 580.77 492.83 585.25 491.06 588.34 490.14 592.16 478.49 592.16"/><polyline class="cls-4" points="118.44 590.95 106.8 590.95 105.87 587.13 104.1 584.04 104.1 579.56 107.46 578.18 118.44 578.18 118.15 578.18 129.14 578.18 132.49 579.56 132.49 584.04 130.72 587.13 129.8 590.95 118.15 590.95"/><polygon class="cls-5" points="109.43 529.36 109.43 519.36 126.91 512.16 200.27 511.13 216.04 517.65 216.37 527.59 109.43 529.36"/><polyline class="cls-3" points="104.58 179.3 103.08 159.95 90.02 137.49 90.02 123.11 264.84 126.07 266.16 126.07 263.81 219.9"/><polygon class="cls-6" points="103.08 298.64 104.58 271.03 263.81 271.03 263.03 317.58 103.08 314.75 103.08 298.64"/><rect class="cls-6" x="104.58" y="156.34" width="159.22" height="114.69"/><rect class="cls-7" x="109.1" y="296.7" width="153.2" height="15.24"/><rect class="cls-7" x="109.1" y="311.14" width="153.2" height="87.83"/><rect class="cls-7" x="111.62" y="314.75" width="146.67" height="31.68" rx="9.84"/><rect class="cls-7" x="100.06" y="304.72" width="9.04" height="94.24"/><polygon class="cls-1" points="103.08 298.64 103.08 398.98 103.08 416.98 103.08 425.59 46.45 427.03 46.45 406.48 48.1 381.32 49.75 364.82 49.75 349.24 51.95 338.81 54.15 331.19 60.2 321.96 68.99 313.94 78.89 305.52 89.33 299.91 94.28 298.7 103.08 298.64"/><polygon class="cls-7" points="103.08 308.73 71.43 340.81 70.93 343.22 70.93 398.96 103.08 398.98 103.08 308.73"/><polygon class="cls-3" points="60.23 426.23 64.47 417.41 68.57 417.37 259.71 415.4 259.71 423.42 60.23 426.23"/><polygon class="cls-3" points="62.9 402.17 63.23 417.37 258.38 415.45 258.38 400.36 62.9 402.17"/><polygon class="cls-3" points="61.88 399.36 258.08 397.5 259.71 398.43 259.71 415.4 258.08 415.45 258.08 400.36 62.86 402.17 61.39 402.17 61.39 400.06 61.88 399.36"/><polygon class="cls-7" points="89.44 399.11 89.44 344.51 69.78 344.51 68.92 341.21 68.42 342.42 68.42 399.11 89.44 399.11"/><polygon class="cls-8" points="68.92 341.21 69.78 344.51 89.44 344.51 86.5 343.22 70.93 343.22 71.43 340.81 103.08 308.73 101.76 308.73 68.92 340.48 68.92 341.21"/><polygon class="cls-7" points="68.42 342.42 62.9 347.23 61.89 399.36 68.42 399.11 68.42 342.42"/><polygon class="cls-7" points="240.25 397.5 241.41 344.51 243.49 344.51 258.49 344.51 260.74 343.22 261.49 343.22 261.49 397.5 240.25 397.5"/><polygon class="cls-2" points="243.33 343.22 241.38 344.51 258.57 344.51 260.83 343.22 261.59 343.22 262.38 309.13 261.63 309.13 260.83 342.02 258.25 343.62 250.9 343.75 246.88 343.62 244.82 343.62 243.33 343.22"/><ellipse class="cls-9" cx="147.53" cy="325.37" rx="7.28" ry="5.81"/><ellipse class="cls-9" cx="219.86" cy="325.37" rx="7.28" ry="5.81"/><ellipse class="cls-9" cx="131.71" cy="325.57" rx="3.01" ry="2.41"/><ellipse class="cls-9" cx="165.36" cy="339.21" rx="3.01" ry="2.41"/><ellipse class="cls-9" cx="205.54" cy="339.21" rx="3.01" ry="2.41"/><ellipse class="cls-9" cx="238.69" cy="325.57" rx="3.01" ry="2.41"/><ellipse class="cls-9" cx="205.54" cy="325.57" rx="3.01" ry="2.41"/><ellipse class="cls-9" cx="165.36" cy="325.17" rx="3.01" ry="2.41"/><ellipse class="cls-9" cx="252.26" cy="305.52" rx="3.01" ry="2.41"/><ellipse class="cls-9" cx="120.66" cy="305.52" rx="3.01" ry="2.41"/><rect class="cls-9" x="133.21" y="303.12" width="36.67" height="6.02"/><rect class="cls-9" x="205.54" y="303.12" width="36.67" height="6.02"/><g id="hinge"><rect class="cls-3" x="208.05" y="305.92" width="31.14" height="2.41"/><rect class="cls-3" x="209.06" y="303.92" width="30.14" height="0.8"/><rect class="cls-3" x="215.59" y="305.52" width="1" height="4.01"/><rect class="cls-3" x="228.65" y="305.52" width="1" height="4.01"/></g><g id="hinge-2" data-name="hinge"><rect class="cls-3" x="135.73" y="305.92" width="31.14" height="2.41"/><rect class="cls-3" x="136.73" y="303.92" width="30.14" height="0.8"/><rect class="cls-3" x="143.26" y="305.52" width="1" height="4.01"/><rect class="cls-3" x="156.32" y="305.52" width="1" height="4.01"/></g><ellipse class="cls-9" cx="140.5" cy="300.51" rx="1.76" ry="1.4"/><ellipse class="cls-9" cx="233.42" cy="300.51" rx="1.76" ry="1.4"/><ellipse class="cls-9" cx="211.82" cy="300.51" rx="1.76" ry="1.4"/><ellipse class="cls-9" cx="162.6" cy="300.51" rx="1.76" ry="1.4"/><rect class="cls-9" x="120.66" y="168.77" width="131.6" height="102.26"/><polygon class="cls-9" points="120.66 271.03 117.64 287.55 251.59 287.55 252.26 271.03 120.66 271.03"/><polygon class="cls-9" points="252.26 168.77 120.66 168.77 120.66 156.47 101.07 139.9 240.25 139.9 250.64 154.33 252.26 168.77"/><polygon class="cls-6" points="101.07 139.9 120.66 156.47 104.58 156.34 93.18 139.9 93.18 126.07 261.8 129.07 263.81 156.34 250.87 156.34 240.25 139.9 101.07 139.9"/><polygon class="cls-3" points="90.02 123.11 92.7 119.64 266.16 119.64 266.16 126.07 90.02 123.11"/><polyline class="cls-3" points="112.46 518.28 112.46 528.22 108.49 530 64.29 530.63 62.41 528.22 108.49 528.22 111.23 526.84 111.23 518.79"/></g><polyline class="cls-1" points="542.55 346.05 546.32 350.16 547.47 363.15 547.69 415.63"/></g></svg>