<svg id="Layer_1" data-name="Layer 1" xmlns="http://www.w3.org/2000/svg" xmlns:xlink="http://www.w3.org/1999/xlink" viewBox="0 0 600 600"><defs><style>.cls-1{fill:#0c4155;}.cls-1,.cls-2,.cls-4,.cls-5,.cls-6,.cls-7,.cls-9{stroke:#000;stroke-miterlimit:10;}.cls-3{fill:url(#linear-gradient);}.cls-4{fill:#eceaea;}.cls-5{fill:url(#radial-gradient);}.cls-6{fill:#ccc;}.cls-7{fill:#fff;}.cls-8{font-size:6.33px;font-family:MyriadPro-Regular, Myriad Pro;letter-spacing:0.11em;}.cls-9{fill:none;}</style><linearGradient id="linear-gradient" x1="565.46" y1="570.28" x2="565.54" y2="535.05" gradientUnits="userSpaceOnUse"><stop offset="0" stop-color="#4d4d4d"/><stop offset="0.12" stop-color="#767676"/><stop offset="0.26" stop-color="#a0a0a0"/><stop offset="0.4" stop-color="#c2c2c2"/><stop offset="0.54" stop-color="#ddd"/><stop offset="0.69" stop-color="#f0f0f0"/><stop offset="0.84" stop-color="#fbfbfb"/><stop offset="1" stop-color="#fff"/></linearGradient><radialGradient id="radial-gradient" cx="382.23" cy="526.24" r="29.73" gradientTransform="matrix(0.99, -0.1, 0.08, 0.8, -41.97, 147.58)" gradientUnits="userSpaceOnUse"><stop offset="0" stop-color="#fefefe"/><stop offset="0.11" stop-color="#e7eaeb"/><stop offset="0.42" stop-color="#a9b3b6"/><stop offset="0.68" stop-color="#7c8c8f"/><stop offset="0.88" stop-color="#607378"/><stop offset="1" stop-color="#566a6f"/></radialGradient></defs><g id="side_view_-_closed" data-name="side view - closed"><polygon class="cls-1" points="544.13 300.39 553.62 308.3 554.41 312.65 399.83 280.62 247.62 278.65 229.44 275.94 239.31 275.09 241.69 272.72 390.31 272.72 442.92 273.9 477.71 279.83 506.57 287.35 529.5 295.25 544.13 300.39"/><polygon class="cls-2" points="459.75 579.82 441.14 579.82 441.14 576.21 441.14 567.56 459.75 567.56 459.75 579.82"/><polyline class="cls-2" points="450.39 592.16 438.22 592.16 437.26 588.17 435.41 584.95 435.41 580.27 438.91 578.82 450.39 578.82 450.08 578.82 461.56 578.82 465.06 580.27 465.06 584.95 463.21 588.17 462.25 592.16 450.08 592.16"/><polygon class="cls-2" points="135.41 579.82 116.8 579.82 116.8 564.14 116.8 526.5 135.41 526.5 135.41 579.82"/><polyline class="cls-2" points="126.05 592.16 113.89 592.16 112.92 588.17 111.08 584.95 111.08 580.27 114.58 578.82 126.05 578.82 125.75 578.82 137.22 578.82 140.73 580.27 140.73 584.95 138.88 588.17 137.92 592.16 125.75 592.16"/><path class="cls-3" d="M573.39,554.42l-15.81,14Z"/><polygon class="cls-4" points="138.4 283.79 239.31 275.09 404.51 275.09 439.72 279.44 489.18 289.32 537.27 304.35 554.41 312.65 564.69 331.63 138.4 320.55 138.4 283.79"/><polyline class="cls-1" points="580.11 521 573.39 554.42 586.04 496.09 590.39 471.19 590.39 441.14 590.39 413.45 588.41 393.3 585.89 366.81 583.67 354.56 579.32 346.65 572.2 337.16 564.69 331.63 542.95 322.93 495.9 306.72 463.88 298.02 418.41 289.32 385.99 286.95 371.69 286.95 308.9 284.97 268.95 284.97 156.68 283.79 86.68 283.79 78.4 287.35 22.72 327 557.58 568.45 565.48 561.43 570.32 557.15 572.65 555.08"/><polygon class="cls-1" points="23.84 507.56 9.61 339.93 16.73 330.44 62.19 304.35 373.34 311.86 436.6 318.18 481.82 330.44 546.11 351 558.37 356.53 568.65 363.25 568.65 375.07 573.39 395.28 573.39 428.46 573.39 454.32 573.39 476.84 573.39 501.04 564.3 540.37 557.58 568.45 549.27 577.93 535.21 577.93 38.08 522.58 28.98 520.21 23.84 507.56"/><rect class="cls-5" x="346.82" y="507" width="70.84" height="38.48" rx="12" transform="translate(57.19 -37.12) rotate(6.01)"/><rect class="cls-6" x="353.79" y="510.82" width="56.31" height="30.59" rx="12" transform="translate(57.18 -37.09) rotate(6.01)"/><rect class="cls-7" x="361.34" y="520.29" width="41.06" height="15.59" transform="translate(57.38 -37.07) rotate(6.01)"/><text class="cls-8" transform="matrix(0.99, 0.1, -0.1, 0.99, 370.32, 516.81)">POWER</text><line class="cls-9" x1="382.65" y1="520.19" x2="381.03" y2="535.65"/><circle class="cls-7" cx="371.56" cy="527.13" r="3.56"/><line class="cls-9" x1="392.1" y1="525.74" x2="391.35" y2="532.87"/></g></svg>