<svg id="Layer_1" data-name="Layer 1" xmlns="http://www.w3.org/2000/svg" viewBox="0 0 600 600"><defs><style>.cls-1{fill:#0c4155;}.cls-1,.cls-10,.cls-11,.cls-12,.cls-2,.cls-4,.cls-5,.cls-6,.cls-7,.cls-8,.cls-9{stroke:#000;}.cls-1,.cls-10,.cls-11,.cls-12,.cls-2,.cls-3,.cls-4,.cls-5,.cls-6,.cls-7,.cls-8,.cls-9{stroke-miterlimit:10;}.cls-2{fill:#eceaea;}.cls-3,.cls-4{fill:#333;}.cls-3{stroke:#1a1a1a;}.cls-5{fill:#1a1a1a;}.cls-6{fill:#4d4d4d;}.cls-7{fill:none;}.cls-8{fill:#b3b3b3;}.cls-9{fill:#999;}.cls-10,.cls-11{fill:#fff;}.cls-10{opacity:0.5;}</style></defs><g id="top_view_-_open" data-name="top view - open"><polygon class="cls-1" points="66.76 357.97 65.2 409.34 63.2 445.71 63.2 523.18 65.69 573.9 77.85 573.92 70.53 590.67 63.2 590.67 51.4 586.89 15.02 567.82 11.25 544.2 2.63 500.27 2.63 455.4 2.63 424.67 2.63 74.91 40.24 19.96 101.7 19.96 90.6 61.45 90.37 314.64 90.5 365.99 66.76 357.97"/><polygon class="cls-2" points="64.4 360.33 62.73 415.25 60.84 448.08 60.84 491.53 60.84 525.55 63.33 576.26 256.88 576.2 259.05 444.06 259.05 417.21 257.34 381.71 254.87 362.86 254.87 359.04 64.4 360.33"/><polygon class="cls-3" points="80.21 386.91 245.18 386.91 247.42 414.3 247.42 562.46 76.9 565.93 76.9 414.4 80.21 386.91"/><polyline class="cls-3" points="80.21 368.35 60.84 317 245.18 317 245.18 368.35"/><rect class="cls-3" x="80.21" y="368.35" width="164.97" height="18.56"/><polygon class="cls-3" points="245.18 386.91 220.5 450.34 219.08 560.73 247.42 562.46 247.42 414.3 245.18 386.91"/><polygon class="cls-3" points="80.21 386.91 76.9 414.4 76.9 565.93 121.78 560.73 120.19 450.34 80.21 386.91"/><polygon class="cls-3" points="80.21 386.91 120.19 450.34 220.5 450.34 245.18 386.91 80.21 386.91"/><rect class="cls-4" x="121.78" y="452.56" width="97.31" height="108.17"/><polygon class="cls-3" points="126.5 525.78 130.28 455.87 160.51 455.87 165.62 461.81 175.3 462.15 180.35 455.87 210.17 455.87 213.41 558.44 225.46 558.44 220.5 450.34 120.19 450.34 116.11 524.83 126.5 525.78"/><rect class="cls-5" x="180.95" y="446.9" width="1.89" height="4.72"/><rect class="cls-5" x="162.87" y="446.9" width="1.89" height="4.72"/><ellipse class="cls-6" cx="158.86" cy="501.45" rx="29.99" ry="28.11"/><ellipse class="cls-6" cx="158.38" cy="499.56" rx="29.99" ry="28.11"/><polygon class="cls-5" points="162.87 473.82 167.03 473.82 167.03 474.92 167.03 484.02 179.02 484.02 179.02 488.24 162.87 488.24 162.87 473.82"/><rect class="cls-7" x="167.02" y="474.92" width="11.99" height="9.1"/><polygon class="cls-5" points="162.87 488.24 164.29 493.66 179.69 493.66 179.02 488.24 162.87 488.24"/><polygon class="cls-5" points="179.02 474.92 179.02 479.02 167.03 479.47 167.03 478.22 177.34 478 177.34 476.06 167.03 476.06 167.03 474.92 179.02 474.92"/><polygon class="cls-5" points="179.69 493.66 179.69 484.02 179.02 474.92 179.02 488.24 179.69 493.66"/><rect class="cls-5" x="156.26" y="497.44" width="4.25" height="4.25" rx="2.13"/><rect class="cls-5" x="132.17" y="498.38" width="4.25" height="4.25" rx="2.13"/><rect class="cls-5" x="180.35" y="497.44" width="4.25" height="4.25" rx="2.13"/><rect class="cls-5" x="156.26" y="509.25" width="4.25" height="4.25" rx="2.13"/><circle class="cls-5" cx="143.27" cy="512.32" r="4.02"/><ellipse class="cls-8" cx="173.15" cy="440.87" rx="19.72" ry="7.2"/><ellipse class="cls-9" cx="225.46" cy="481.61" rx="3.54" ry="17.24"/><rect class="cls-5" x="118" y="396.27" width="15.35" height="11.66"/><ellipse class="cls-5" cx="125.79" cy="407.93" rx="7.32" ry="3.54"/><rect class="cls-5" x="192.87" y="396.5" width="15.35" height="11.66"/><ellipse class="cls-5" cx="200.66" cy="408.16" rx="7.32" ry="3.54"/><ellipse class="cls-5" cx="146.34" cy="406.27" rx="3.31" ry="1.89"/><ellipse class="cls-5" cx="184.13" cy="406.27" rx="3.31" ry="1.89"/><ellipse class="cls-5" cx="218.61" cy="397.77" rx="3.31" ry="1.89"/><ellipse class="cls-5" cx="184.13" cy="397.77" rx="3.31" ry="1.89"/><ellipse class="cls-5" cx="143.98" cy="397.77" rx="3.31" ry="1.89"/><ellipse class="cls-5" cx="108.55" cy="397.77" rx="3.31" ry="1.89"/><ellipse class="cls-10" cx="173.07" cy="440.03" rx="16.73" ry="6.11"/><ellipse class="cls-10" cx="226.17" cy="481.47" rx="2.83" ry="13.79"/><polygon class="cls-5" points="152.48 444.06 152.48 449.26 157.82 449.27 162.87 451.62 187.1 451.63 188.38 449.26 195.14 449.26 195.14 444.06 196.46 444.06 196.46 450.6 188.85 450.34 187.43 453.04 161.65 453.04 157.68 450.67 153.43 450.67 151.53 450.67 151.53 444.06 152.48 444.06"/><polygon class="cls-11" points="154.84 454.45 157.68 450.67 161.65 453.04 187.43 453.04 188.85 450.34 196.46 450.6 194.69 454.45 154.84 454.45"/><polygon class="cls-5" points="151.53 454.45 154.84 454.45 194.69 454.45 196.46 450.6 188.85 450.34 187.43 453.04 161.65 453.04 157.68 450.67 151.53 450.67 151.53 454.45"/><polyline class="cls-5" points="154.84 454.45 151.53 454.45 151.53 450.67 153.43 450.67"/><rect class="cls-5" x="217.19" y="475.71" width="4.72" height="2.36"/><rect class="cls-5" x="217.67" y="490.35" width="4.72" height="2.36"/><polygon class="cls-5" points="223.81 463.43 216.29 463.43 216.25 505.47 225.46 505.47 225.46 504.36 217.66 504.42 217.66 465.04 223.81 464.85 223.81 463.43"/><polygon class="cls-5" points="217.66 507.55 216.25 505.47 225.46 505.47 224.28 507.36 217.66 507.55"/><ellipse class="cls-5" cx="124.61" cy="459.89" rx="2.83" ry="2.13"/><ellipse class="cls-5" cx="121.78" cy="521.29" rx="2.83" ry="2.13"/><ellipse class="cls-5" cx="170.46" cy="461.98" rx="4.11" ry="4.84" transform="translate(-297.22 616.12) rotate(-87.99)"/><ellipse class="cls-5" cx="217.67" cy="520.35" rx="2.83" ry="2.13"/><ellipse class="cls-5" cx="170.48" cy="461.72" rx="2.89" ry="3.4" transform="translate(-296.94 615.88) rotate(-87.99)"/><ellipse class="cls-5" cx="216.25" cy="459.89" rx="2.83" ry="2.13"/><circle class="cls-5" cx="170.67" cy="461.77" r="1.65"/><path class="cls-11" d="M123.29,558.44l.09-1.72Z"/><polygon class="cls-3" points="111.86 558.84 123.29 558.44 123.38 556.71 121.78 556.71 123.43 529.35 126.5 525.55 113.27 525.07 111.86 558.84"/><polygon class="cls-3" points="109.88 556.75 111.86 524.37 109.02 524.36 107.13 557.19 109.88 556.75"/><polygon class="cls-3" points="113.21 526.91 111.86 558.84 109.97 557.2 111.86 524.37 113.21 526.91"/><polygon class="cls-3" points="123.29 558.44 124.61 556.01 126.27 530.92 129.34 527.43 126.5 525.55 123.43 529.35 121.78 556.71 123.29 558.44"/><g id="hinge"><rect class="cls-2" x="105.72" y="359.51" width="10.86" height="5.67"/><rect class="cls-2" x="126.5" y="359.04" width="10.86" height="5.67"/><rect class="cls-5" x="103.8" y="364.43" width="36.33" height="3.92"/><rect class="cls-5" x="104.03" y="361.16" width="35.16" height="1.31"/><rect class="cls-12" x="112.59" y="363.78" width="1.17" height="6.53"/><rect class="cls-12" x="127.83" y="363.78" width="1.17" height="6.53"/></g><g id="hinge-2" data-name="hinge"><rect class="cls-2" x="186.48" y="359.9" width="10.86" height="5.67"/><rect class="cls-2" x="207.26" y="359.42" width="10.86" height="5.67"/><rect class="cls-5" x="184.56" y="364.81" width="36.33" height="3.92"/><rect class="cls-5" x="184.79" y="361.55" width="35.16" height="1.31"/><rect class="cls-12" x="193.35" y="364.16" width="1.17" height="6.53"/><rect class="cls-12" x="208.59" y="364.16" width="1.17" height="6.53"/></g><polyline class="cls-5" points="90.52 361.15 73.85 324.47 232.5 324.47 232.5 361.15"/><polygon class="cls-2" points="49.03 331.64 51.4 324.56 54.7 319.36 60.84 317 245.18 317 242.7 319.23 239.39 322.19 236.56 326.44 236.74 331.64 49.03 331.64"/><polygon class="cls-2" points="242.7 384.55 242.7 383.67 242.7 322.98 240.34 325.97 240.34 329.68 236.74 331.64 236.56 326.44 239.39 322.19 245.18 317 245.18 385.22 242.64 385.22 242.7 384.55"/><polygon class="cls-2" points="51.87 333.53 49.03 331.64 236.74 331.64 51.87 333.53"/><polygon class="cls-3" points="80.21 386.91 74.18 386.91 70.76 416.67 70.76 565.93 76.9 565.93 76.9 414.4 80.21 386.91"/><polygon class="cls-3" points="245.18 386.91 247.42 414.3 247.42 562.46 254.87 562.46 254.87 416.78 252.59 386.91 245.18 386.91"/><polygon class="cls-2" points="503.32 25.26 99.34 22.32 88.24 63.81 88.01 317 245.18 317 245.18 359.89 254.87 359.04 257.34 381.71 259.05 417.21 258.44 481.03 256.88 576.2 523.45 577.74 530.18 464.37 530.18 386.91 513.83 58.15 503.32 25.26"/><polygon class="cls-1" points="509.5 367.48 509.5 592.16 529.47 592.16 536.79 592.16 548.6 588.38 584.98 569.31 597.37 501.76 597.37 76.4 559.76 21.45 498.3 21.45 509.4 62.94 509.5 367.48"/></g></svg>