<?xml version="1.0" standalone="no"?>
<!DOCTYPE svg PUBLIC "-//W3C//DTD SVG 20010904//EN"
 "http://www.w3.org/TR/2001/REC-SVG-20010904/DTD/svg10.dtd">
<svg version="1.0" xmlns="http://www.w3.org/2000/svg"
 width="597.000000pt" height="574.000000pt" viewBox="0 0 597.000000 574.000000"
 preserveAspectRatio="xMidYMid meet">

<g transform="translate(0.000000,574.000000) scale(0.100000,-0.100000)"
fill="#000000" stroke="none">
<path d="M198 5465 l-188 -274 0 -2144 0 -2144 30 -149 c17 -82 44 -227 60
-323 17 -96 33 -178 37 -182 5 -4 85 -48 180 -98 181 -96 271 -131 339 -131
l40 0 30 70 29 70 1301 0 c715 0 1686 -3 2157 -7 l856 -6 3 -71 3 -71 134 -3
c169 -3 200 6 446 135 99 52 181 96 183 97 1 2 32 161 67 355 l65 351 0 2111
0 2110 -191 280 -191 279 -314 0 c-288 0 -313 -1 -307 -17 6 -15 -66 -16
-1033 -10 -2851 19 -2932 20 -2927 34 4 11 -51 13 -308 13 l-314 0 -187 -275z
m792 256 c0 -5 -4 -11 -9 -13 -5 -1 -34 -98 -65 -213 l-56 -211 0 -1257 0
-1257 -130 0 c-161 0 -200 -12 -229 -73 -45 -96 -39 -105 74 -109 l79 -3 47
-125 c26 -69 46 -127 44 -129 -2 -2 -24 4 -49 12 -40 14 -46 14 -46 1 0 -8 -6
-14 -14 -14 -10 0 -14 -48 -20 -242 -3 -134 -11 -330 -17 -435 -11 -189 -6
-1193 7 -1400 l6 -93 64 0 c35 0 64 -2 64 -4 0 -3 -12 -32 -26 -65 -26 -59
-28 -61 -64 -61 -57 0 -134 31 -327 131 -98 51 -179 93 -180 93 -1 1 -9 46
-18 101 -8 55 -36 204 -60 331 l-45 231 0 2134 0 2134 187 273 187 272 298 0
c174 0 298 -4 298 -9z m4776 -281 l183 -265 0 -2140 1 -2140 -59 -322 c-33
-178 -62 -326 -65 -330 -2 -5 -97 -55 -210 -113 l-206 -105 -160 -3 -160 -4 0
2634 0 2633 -55 205 c-30 113 -55 208 -55 213 0 4 136 6 302 5 l301 -3 183
-265z m-2528 246 c953 -8 1734 -15 1736 -17 2 -2 24 -83 50 -180 l46 -175 0
-2577 0 -2576 -1182 5 c-651 2 -1216 7 -1256 10 l-73 6 8 346 c4 191 8 613 8
937 0 500 -3 611 -18 727 -9 75 -17 142 -17 147 0 6 -19 8 -50 4 l-50 -6 0
217 0 216 -785 0 -785 0 0 1256 0 1255 55 205 c30 113 55 207 55 210 0 6 346
5 2258 -10z m-843 -2954 c-36 -30 -55 -64 -49 -89 l6 -23 -936 0 -936 0 10 25
c21 54 42 86 63 95 12 5 432 9 942 9 871 0 919 -1 900 -17z m33 -319 l-3 -328
-2 314 c-3 312 -3 314 -23 296 -11 -10 -20 -29 -20 -42 0 -12 -4 -23 -10 -23
-22 0 -9 50 21 79 17 17 32 31 35 31 2 0 3 -147 2 -327z m-18 52 l0 -215 -105
0 c-98 0 -105 1 -105 20 0 12 -7 20 -17 20 -15 0 -15 2 -4 9 12 8 12 12 -2 25
-18 18 -127 23 -127 6 0 -5 -20 -10 -45 -10 -25 0 -45 5 -45 10 0 16 -106 12
-119 -4 -6 -8 -11 -18 -10 -22 1 -5 -2 -19 -6 -31 -7 -23 -8 -23 -221 -23
-207 0 -214 1 -214 20 0 11 -4 20 -10 20 -5 0 -7 7 -4 15 11 28 -16 45 -72 45
-29 0 -56 -5 -59 -11 -5 -7 -36 -8 -94 -4 -49 4 -98 4 -109 0 -23 -7 -30 -34
-9 -36 10 0 10 -2 0 -6 -7 -2 -13 -13 -13 -24 0 -18 -8 -19 -114 -19 l-113 0
-63 165 c-34 91 -61 168 -58 170 3 3 384 10 848 15 597 7 847 13 856 21 8 6
14 19 14 29 0 15 8 30 17 30 2 0 3 -97 3 -215z m-1687 138 c-40 -2 -107 -2
-150 0 -43 1 -10 3 72 3 83 0 118 -2 78 -3z m1210 -280 c-13 -2 -35 -2 -50 0
-16 2 -5 4 22 4 28 0 40 -2 28 -4z m205 0 c-16 -2 -40 -2 -55 0 -16 2 -3 4 27
4 30 0 43 -2 28 -4z m400 -95 c30 -259 34 -475 22 -1263 -6 -429 -13 -781 -13
-781 -1 -1 -434 -4 -963 -7 l-960 -7 -12 258 c-14 302 -16 995 -2 1201 5 79
12 266 16 417 l7 274 62 0 62 0 11 -39 c7 -21 12 -77 12 -125 l0 -86 -30 0
c-18 0 -30 -5 -30 -13 0 -7 -7 -67 -15 -132 -12 -97 -15 -267 -15 -886 l0
-767 33 -5 c35 -6 1547 20 1715 29 l103 6 -5 822 c-2 451 -8 848 -13 881 -8
59 -9 60 -43 65 l-35 5 -3 114 c-1 63 0 121 2 128 3 8 21 13 44 13 l38 0 12
-102z m-1445 65 c-7 -2 -21 -2 -30 0 -10 3 -4 5 12 5 17 0 24 -2 18 -5z m130
0 c-13 -2 -33 -2 -45 0 -13 2 -3 4 22 4 25 0 35 -2 23 -4z m115 0 c-10 -2 -28
-2 -40 0 -13 2 -5 4 17 4 22 1 32 -1 23 -4z m570 0 c-10 -2 -26 -2 -35 0 -10
3 -2 5 17 5 19 0 27 -2 18 -5z m125 0 c-13 -2 -35 -2 -50 0 -16 2 -5 4 22 4
28 0 40 -2 28 -4z m115 0 c-10 -2 -28 -2 -40 0 -13 2 -5 4 17 4 22 1 32 -1 23
-4z m-1048 -28 c0 -10 -11 -15 -35 -15 -24 0 -35 5 -35 15 0 10 11 15 35 15
24 0 35 -5 35 -15z m160 0 c0 -12 -14 -15 -65 -15 -51 0 -65 3 -65 15 0 12 14
15 65 15 51 0 65 -3 65 -15z m120 0 c0 -11 -12 -15 -50 -15 -38 0 -50 4 -50
15 0 11 12 15 50 15 38 0 50 -4 50 -15z m530 0 c0 -10 -11 -15 -35 -15 -24 0
-35 5 -35 15 0 10 11 15 35 15 24 0 35 -5 35 -15z m150 0 c0 -12 -13 -15 -60
-15 -47 0 -60 3 -60 15 0 12 13 15 60 15 47 0 60 -3 60 -15z m130 0 c0 -11
-12 -15 -50 -15 -38 0 -50 4 -50 15 0 11 12 15 50 15 38 0 50 -4 50 -15z
m-1081 -37 c11 -10 14 -10 18 0 3 8 26 12 68 12 41 0 65 -4 69 -12 5 -10 7
-10 12 0 7 15 634 18 634 2 0 -5 7 -10 15 -10 8 0 15 5 15 10 0 6 27 10 60 10
33 0 60 -4 60 -10 0 -5 7 -10 15 -10 8 0 15 5 15 10 0 6 60 10 160 10 l160 0
0 -85 0 -85 -810 0 -810 0 0 85 0 85 153 0 c109 0 157 -4 166 -12z m-329 -175
c0 -5 -7 -62 -15 -128 -12 -96 -15 -266 -15 -882 l0 -763 -25 0 -25 0 0 748
c0 633 2 769 16 890 16 138 18 142 40 142 13 0 24 -3 24 -7z m1738 -160 c8
-107 12 -424 12 -875 l0 -708 -30 0 -30 0 0 714 c0 620 -6 866 -24 1004 -5 30
-3 32 28 32 l32 0 12 -167z m-98 149 c0 -10 -216 -566 -230 -592 -10 -18 -22
-20 -120 -20 l-109 0 -3 33 c-4 37 -22 39 -26 2 -3 -19 -9 -25 -26 -25 -13 0
-38 -3 -55 -6 -48 -10 -40 20 9 35 27 8 45 21 53 38 10 22 8 28 -16 48 -74 64
-341 53 -377 -15 -13 -24 21 -66 60 -75 17 -4 30 -13 30 -22 0 -10 -6 -13 -16
-9 -9 3 -28 6 -44 6 -24 0 -29 5 -32 28 -4 38 -22 34 -26 -5 l-3 -33 -148 0
-149 0 -191 304 c-105 167 -191 306 -191 310 0 3 362 6 805 6 443 0 805 -4
805 -8z m-1426 -322 c102 -162 186 -301 186 -310 0 -8 -9 -172 -20 -364 -14
-255 -23 -352 -32 -357 -7 -5 -14 -4 -16 0 -2 5 -11 7 -22 4 -15 -4 -19 -18
-24 -86 -11 -149 -11 -252 -1 -252 6 0 17 -4 24 -9 8 -5 38 -8 65 -7 28 2 48
0 44 -4 -4 -4 -382 -53 -425 -55 -2 0 -3 348 -3 773 0 738 8 993 31 970 4 -5
91 -141 193 -303z m1453 -592 l4 -808 -74 0 c-41 0 -103 3 -138 7 -55 6 -59 8
-29 13 l34 5 -3 95 c-1 52 -6 165 -11 250 -7 128 -6 158 6 171 18 20 18 29 -1
29 -10 0 -15 10 -15 30 0 21 4 28 14 24 25 -10 39 38 44 146 5 133 -8 188 -49
203 -28 11 -29 14 -29 76 0 59 10 92 113 353 108 278 112 287 121 251 5 -21
11 -401 13 -845z m-657 452 c30 -6 62 -18 72 -27 10 -9 18 -13 18 -8 0 4 7 2
15 -5 36 -30 -32 -73 -102 -65 -33 4 -34 3 -13 -5 18 -7 -3 -9 -75 -7 -117 3
-178 25 -173 61 2 11 8 21 13 21 6 1 20 6 32 13 53 29 132 37 213 22z m-163
-152 c-3 -8 -6 -5 -6 6 -1 11 2 17 5 13 3 -3 4 -12 1 -19z m163 10 c0 -4 -34
-8 -75 -8 -41 0 -75 4 -75 8 0 5 34 9 75 9 41 0 75 -4 75 -9z m-300 -38 c0
-19 -7 -20 -105 -20 l-105 0 -1 -52 c0 -29 -8 -186 -17 -348 l-17 -295 -44 2
c-24 1 -44 3 -46 5 -1 2 6 147 16 323 10 176 18 339 19 363 l0 42 150 0 c143
0 150 -1 150 -20z m94 5 c18 -14 16 -15 -27 -15 -35 0 -47 4 -47 15 0 20 48
19 74 0z m350 0 c-4 -9 -19 -15 -40 -15 -26 0 -32 3 -28 15 4 9 19 15 40 15
26 0 32 -3 28 -15z m254 -47 c3 -54 2 -58 -19 -58 -22 0 -22 1 -4 14 22 16 14
46 -13 46 -31 0 -46 -25 -27 -43 12 -13 15 -51 15 -229 0 -225 2 -238 46 -238
20 0 22 -6 27 -82 4 -46 10 -159 13 -251 l7 -168 -54 3 -54 3 -17 510 c-9 281
-17 511 -17 513 -1 1 -35 2 -76 2 -41 0 -75 2 -75 4 0 2 3 12 6 20 5 14 23 16
123 14 l116 -3 3 -57z m-408 15 c0 -3 -7 -14 -16 -24 -14 -16 -17 -16 -45 -1
-27 16 -31 16 -58 0 -28 -15 -31 -15 -45 1 -9 10 -16 21 -16 24 0 4 41 7 90 7
50 0 90 -3 90 -7z m-155 -52 c55 -77 74 -77 131 0 l36 49 143 0 143 0 6 -122
c3 -68 11 -294 17 -503 6 -209 12 -385 14 -392 2 -6 16 -13 32 -16 15 -2 -190
-5 -457 -5 -295 -1 -479 2 -471 7 11 7 18 47 25 145 7 81 16 140 24 148 14 14
16 38 2 38 -11 0 -14 138 -4 165 5 11 13 3 29 -32 28 -60 85 -115 150 -145 70
-32 190 -32 258 -1 27 13 46 27 43 32 -3 5 2 15 12 22 15 13 16 12 3 -3 -30
-39 10 -15 48 28 90 103 93 255 6 368 -18 24 -35 57 -37 73 l-3 28 -130 9
c-120 7 -134 6 -186 -13 -62 -24 -132 -79 -154 -122 -23 -44 -18 -46 14 -2 65
90 151 134 260 132 31 0 50 -3 44 -6 -9 -3 -13 -30 -13 -86 0 -131 -2 -127 96
-127 l84 0 0 61 c0 71 11 70 46 -5 62 -132 6 -282 -131 -354 -42 -22 -63 -26
-135 -26 -73 -1 -92 3 -136 26 -58 31 -117 91 -139 145 -17 40 -18 81 -8 376
l6 157 148 0 149 0 35 -49z m543 11 c2 -7 -6 -12 -17 -12 -21 0 -27 11 -14 24
9 9 26 2 31 -12z m-501 -31 c0 -11 -5 -18 -9 -15 -4 3 -5 11 -1 19 7 21 12 19
10 -4z m56 4 c4 -8 3 -16 -1 -19 -4 -3 -9 4 -9 15 -2 23 3 25 10 4z m469 -75
c2 -35 -1 -50 -9 -50 -9 0 -13 17 -13 50 0 65 17 65 22 0z m28 43 c0 -5 -5
-15 -10 -23 -8 -12 -10 -11 -10 8 0 12 5 22 10 22 6 0 10 -3 10 -7z m27 -10
c-4 -3 -2 -12 3 -18 15 -18 24 -133 16 -198 -6 -44 -11 -55 -24 -54 -16 1 -17
13 -15 116 4 164 4 161 16 161 6 0 7 -3 4 -7z m-605 -130 l3 -58 63 -3 c88 -4
78 -22 -13 -22 l-75 0 0 70 c0 84 18 94 22 13z m108 7 l0 -40 -40 0 -40 0 0
40 0 40 40 0 40 0 0 -40z m447 24 c-3 -3 -12 -4 -19 -1 -8 3 -5 6 6 6 11 1 17
-2 13 -5z m3 -79 c0 -42 -3 -55 -15 -55 -12 0 -15 13 -15 55 0 42 3 55 15 55
12 0 15 -13 15 -55z m-430 -65 c0 -18 -7 -20 -69 -20 -60 0 -69 2 -74 20 -5
19 0 20 69 20 67 0 74 -2 74 -20z m427 -6 c-3 -3 -12 -4 -19 -1 -8 3 -5 6 6 6
11 1 17 -2 13 -5z m7 -36 c3 -13 6 -38 6 -55 0 -26 -4 -33 -20 -33 -18 0 -20
7 -20 55 0 40 4 55 14 55 7 0 16 -10 20 -22z m41 -8 c3 -5 1 -10 -4 -10 -6 0
-11 5 -11 10 0 6 2 10 4 10 3 0 8 -4 11 -10z m-37 -107 c-10 -2 -26 -2 -35 0
-10 3 -2 5 17 5 19 0 27 -2 18 -5z m-1112 -210 c-3 -16 -8 -85 -11 -155 -4
-71 -11 -128 -16 -128 -5 0 -7 17 -4 38 2 20 7 90 11 155 3 65 10 117 16 117
5 0 7 -12 4 -27z m125 -1 c-5 -10 -13 -82 -17 -160 l-7 -142 -45 0 -45 0 6 83
c4 45 7 117 7 160 l0 77 55 0 c50 0 55 -2 46 -18z m35 -11 c-11 -12 -17 -52
-22 -144 -4 -70 -11 -130 -16 -133 -5 -3 -6 50 -2 128 6 131 21 187 45 172 7
-4 5 -12 -5 -23z m347 2 c-13 -2 -35 -2 -50 0 -16 2 -5 4 22 4 28 0 40 -2 28
-4z m-496 -115 c-3 -7 -5 -2 -5 12 0 14 2 19 5 13 2 -7 2 -19 0 -25z m-10
-150 c-2 -13 -4 -5 -4 17 -1 22 1 32 4 23 2 -10 2 -28 0 -40z m878 -68 c-137
-4 -412 -10 -610 -13 -318 -5 -350 -4 -270 8 64 9 240 12 610 12 436 0 480 -1
270 -7z"/>
<path d="M1040 1965 c-17 -20 -4 -35 30 -35 16 0 32 5 35 10 9 15 -13 40 -35
40 -10 0 -23 -7 -30 -15z m50 -5 c12 -8 12 -10 -3 -16 -9 -3 -25 -3 -34 0 -15
6 -15 8 -3 16 8 6 17 10 20 10 3 0 12 -4 20 -10z"/>
<path d="M1401 1971 c-21 -14 -5 -41 24 -41 29 0 45 27 24 41 -8 5 -18 9 -24
9 -5 0 -16 -4 -24 -9z m44 -10 c3 -5 1 -13 -5 -16 -15 -9 -43 3 -35 15 8 13
32 13 40 1z"/>
<path d="M1801 1971 c-8 -5 -11 -16 -8 -25 8 -20 50 -21 66 -2 10 12 8 17 -8
25 -24 13 -32 13 -50 2z m47 -18 c2 -8 -5 -13 -17 -13 -21 0 -35 13 -24 24 10
10 36 3 41 -11z"/>
<path d="M2143 1969 c-6 -6 -9 -18 -6 -25 7 -20 62 -18 70 2 10 28 -41 46 -64
23z m41 -5 c20 -8 11 -24 -15 -24 -19 0 -25 11 -12 23 8 8 8 8 27 1z"/>
<path d="M1160 1906 c0 -42 5 -67 14 -75 23 -19 83 -25 116 -11 29 12 30 14
30 81 l0 69 -80 0 -80 0 0 -64z m150 15 l0 -38 -49 5 c-27 2 -56 0 -66 -5 -12
-7 0 -8 37 -5 42 3 57 0 67 -12 11 -13 12 -19 2 -29 -16 -16 -96 -16 -112 0
-7 7 -14 37 -17 68 l-4 55 71 0 71 0 0 -39z"/>
<path d="M1910 1906 c0 -56 3 -67 22 -80 25 -18 74 -21 112 -6 25 9 26 14 26
80 l0 70 -80 0 -80 0 0 -64z m150 9 c0 -42 -2 -45 -19 -35 -25 13 -81 13 -101
0 -10 -6 1 -8 35 -4 37 4 55 2 70 -10 20 -16 20 -16 1 -31 -21 -16 -83 -20
-104 -6 -8 5 -16 35 -19 70 l-6 61 72 0 71 0 0 -45z"/>
<path d="M1414 1878 c-6 -10 20 -38 36 -38 3 0 14 6 25 13 24 18 11 37 -25 37
-16 0 -32 -5 -36 -12z m56 -8 c0 -5 -12 -10 -26 -10 -14 0 -23 4 -19 10 3 6
15 10 26 10 10 0 19 -4 19 -10z"/>
<path d="M1797 1883 c-13 -12 -7 -32 12 -38 26 -8 51 4 51 26 0 14 -7 19 -28
19 -16 0 -32 -3 -35 -7z m53 -13 c0 -5 -11 -10 -25 -10 -14 0 -25 5 -25 10 0
6 11 10 25 10 14 0 25 -4 25 -10z"/>
<path d="M1880 1532 c0 -7 -15 -21 -32 -32 -36 -22 -33 -26 6 -9 25 12 41 37
31 47 -3 3 -5 0 -5 -6z"/>
<path d="M1573 1498 c11 -10 27 -18 36 -17 10 0 7 4 -8 10 -14 5 -30 13 -36
17 -6 4 -2 -1 8 -10z"/>
<path d="M1643 1473 c9 -2 23 -2 30 0 6 3 -1 5 -18 5 -16 0 -22 -2 -12 -5z"/>
<path d="M1204 1345 c-8 -21 4 -35 31 -35 26 0 39 22 22 39 -16 16 -47 14 -53
-4z m44 -13 c2 -7 -6 -12 -17 -12 -21 0 -27 11 -14 24 9 9 26 2 31 -12z"/>
<path d="M1187 739 c-23 -13 -21 -36 3 -44 20 -6 50 9 50 26 0 16 -35 28 -53
18z m31 -21 c-3 -7 -11 -13 -18 -13 -7 0 -15 6 -17 13 -3 7 4 12 17 12 13 0
20 -5 18 -12z"/>
<path d="M2134 735 c-8 -19 3 -35 25 -35 23 0 41 19 34 36 -7 18 -52 18 -59
-1z m44 -7 c-3 -7 -11 -13 -18 -13 -7 0 -15 6 -17 13 -3 7 4 12 17 12 13 0 20
-5 18 -12z"/>
<path d="M1544 945 c-8 -19 3 -35 26 -35 19 0 30 17 23 38 -6 17 -42 15 -49
-3z m31 -4 c3 -5 1 -12 -5 -16 -5 -3 -10 1 -10 9 0 18 6 21 15 7z"/>
<path d="M1788 948 c-8 -21 2 -38 22 -38 19 0 30 17 23 38 -3 6 -13 12 -23 12
-10 0 -20 -6 -22 -12z m32 -8 c0 -5 -4 -10 -10 -10 -5 0 -10 5 -10 10 0 6 5
10 10 10 6 0 10 -4 10 -10z"/>
<path d="M1307 943 c-12 -11 -7 -33 8 -39 20 -8 45 13 38 32 -5 14 -34 19 -46
7z m28 -12 c3 -5 1 -12 -5 -16 -5 -3 -10 1 -10 9 0 18 6 21 15 7z"/>
<path d="M1378 825 c-17 -38 19 -74 57 -57 22 10 26 18 23 45 -3 28 -7 32 -35
35 -27 3 -35 -1 -45 -23z m70 -11 c2 -11 -3 -26 -11 -33 -29 -24 -70 17 -46
46 17 20 53 12 57 -13z"/>
<path d="M1546 831 c-9 -13 4 -41 18 -41 18 0 35 21 29 36 -6 16 -39 19 -47 5z
m34 -11 c0 -5 -4 -10 -10 -10 -5 0 -10 5 -10 10 0 6 5 10 10 10 6 0 10 -4 10
-10z"/>
</g>
</svg>
