<?xml version="1.0" standalone="no"?>
<!DOCTYPE svg PUBLIC "-//W3C//DTD SVG 20010904//EN"
 "http://www.w3.org/TR/2001/REC-SVG-20010904/DTD/svg10.dtd">
<svg version="1.0" xmlns="http://www.w3.org/2000/svg"
 width="597.000000pt" height="574.000000pt" viewBox="0 0 597.000000 574.000000"
 preserveAspectRatio="xMidYMid meet">

<g transform="translate(0.000000,574.000000) scale(0.100000,-0.100000)"
fill="#000000" stroke="none">
<path d="M197 5464 l-187 -275 0 -2136 0 -2136 49 -261 c27 -143 56 -294 63
-334 l13 -74 170 -90 c187 -99 287 -138 351 -138 l42 0 28 70 29 70 1396 0
c768 0 1741 -3 2162 -7 l767 -6 0 -74 0 -73 133 0 c167 0 205 12 447 140 96
50 177 93 179 95 2 2 32 160 67 352 l64 348 0 2115 0 2115 -189 275 -188 275
-316 3 c-293 2 -316 1 -310 -15 6 -15 -57 -16 -948 -10 -525 4 -1416 10 -1981
14 -847 5 -1028 9 -1028 20 0 11 -58 13 -312 13 l-313 -1 -188 -275z m793 257
c0 -5 -4 -11 -8 -13 -5 -1 -34 -98 -65 -214 l-57 -211 0 -1256 0 -1257 -130 0
c-161 0 -198 -12 -227 -73 -34 -69 -36 -84 -14 -96 11 -6 53 -11 93 -11 l73 0
46 -123 c44 -118 45 -122 25 -125 -12 -2 -32 1 -46 6 -17 6 -28 4 -40 -8 -13
-13 -18 -70 -30 -380 -19 -499 -23 -1289 -7 -1570 l12 -225 63 -3 c34 -2 62
-5 62 -7 0 -2 -12 -31 -26 -64 -25 -57 -29 -61 -59 -61 -59 0 -157 39 -335
134 l-175 93 -13 74 c-7 41 -36 191 -63 334 l-49 261 0 2128 0 2128 187 274
187 274 298 0 c174 0 298 -4 298 -9z m4778 -280 l182 -269 0 -2142 0 -2143
-55 -301 c-30 -166 -57 -311 -60 -323 -4 -16 -50 -45 -190 -118 -101 -52 -206
-102 -232 -110 -32 -10 -94 -15 -185 -15 l-138 0 0 2634 0 2635 -55 205 c-30
112 -55 207 -55 210 0 3 136 6 303 6 l302 -1 183 -268z m-2451 245 c909 -7
1655 -14 1657 -17 2 -2 24 -80 49 -174 l46 -170 7 -2582 7 -2582 -1059 5
c-582 2 -1150 7 -1262 10 l-203 6 7 242 c4 132 8 554 8 936 1 663 -3 773 -30
952 l-6 37 -49 -6 -49 -6 0 217 0 216 -786 0 -786 0 4 1268 4 1267 54 198 53
197 341 -1 c188 0 1085 -6 1993 -13z m-907 -2932 c0 -4 -13 -22 -30 -41 -19
-21 -30 -45 -30 -63 l0 -30 -930 0 c-710 0 -930 3 -930 12 0 32 44 100 74 113
25 11 191 14 939 14 499 1 907 -2 907 -5z m18 -341 l-3 -328 -5 315 c-5 303
-6 314 -22 290 -10 -13 -18 -32 -18 -42 0 -10 -4 -18 -10 -18 -22 0 -9 50 21
79 17 17 32 31 35 31 2 0 3 -147 2 -327z m-18 52 l0 -215 -105 0 c-98 0 -105
1 -105 20 0 12 -7 20 -17 20 -15 0 -15 2 -4 9 12 8 12 12 -2 25 -18 18 -127
23 -127 6 0 -5 -18 -10 -39 -10 -22 0 -43 5 -46 10 -10 17 -104 12 -122 -6
-14 -13 -14 -17 -2 -25 10 -6 10 -9 2 -9 -7 0 -13 -9 -13 -20 0 -19 -7 -20
-220 -20 -213 0 -220 1 -220 20 0 11 -4 20 -10 20 -5 0 -7 7 -4 15 11 28 -16
45 -72 45 -32 0 -54 -4 -54 -11 0 -7 -32 -8 -103 -3 -90 6 -104 4 -117 -11
-12 -14 -12 -18 1 -26 10 -6 10 -9 2 -9 -7 0 -13 -9 -13 -20 0 -19 -7 -20
-113 -20 l-114 0 -62 166 c-34 92 -60 169 -57 171 2 2 381 8 842 14 602 6 845
12 862 21 13 7 22 21 22 35 0 13 2 23 5 23 3 0 5 -97 5 -215z m-1742 138 c-32
-2 -84 -2 -116 0 -31 2 -5 3 58 3 63 0 89 -1 58 -3z m665 -270 c-13 -2 -35 -2
-50 0 -16 2 -5 4 22 4 28 0 40 -2 28 -4z m600 -10 c-13 -2 -35 -2 -50 0 -16 2
-5 4 22 4 28 0 40 -2 28 -4z m210 0 c-13 -2 -35 -2 -50 0 -16 2 -5 4 22 4 28
0 40 -2 28 -4z m396 -90 c33 -268 37 -777 14 -1771 l-6 -282 -961 2 -961 3
-12 225 c-13 271 -16 1014 -3 1195 5 72 11 238 15 370 3 132 8 264 11 293 l5
52 59 0 c56 0 58 -1 69 -31 6 -18 11 -74 11 -125 l0 -94 -29 0 c-28 0 -28 0
-42 -97 -9 -73 -14 -303 -16 -899 l-4 -801 38 -6 c27 -4 1775 27 1811 33 6 0
-7 1665 -13 1717 -7 51 -7 52 -43 55 l-37 3 -3 114 c-1 63 0 121 2 128 3 8 21
13 44 13 l39 0 12 -97z m-1441 60 c-10 -2 -26 -2 -35 0 -10 3 -2 5 17 5 19 0
27 -2 18 -5z m135 0 c-13 -2 -35 -2 -50 0 -16 2 -5 4 22 4 28 0 40 -2 28 -4z
m105 0 c-10 -2 -28 -2 -40 0 -13 2 -5 4 17 4 22 1 32 -1 23 -4z m570 0 c-10
-2 -26 -2 -35 0 -10 3 -2 5 17 5 19 0 27 -2 18 -5z m125 0 c-13 -2 -33 -2 -45
0 -13 2 -3 4 22 4 25 0 35 -2 23 -4z m115 0 c-10 -2 -28 -2 -40 0 -13 2 -5 4
17 4 22 1 32 -1 23 -4z m-1038 -28 c0 -11 -11 -15 -40 -15 -29 0 -40 4 -40 15
0 11 11 15 40 15 29 0 40 -4 40 -15z m150 0 c0 -12 -14 -15 -65 -15 -51 0 -65
3 -65 15 0 12 14 15 65 15 51 0 65 -3 65 -15z m120 0 c0 -11 -12 -15 -50 -15
-38 0 -50 4 -50 15 0 11 12 15 50 15 38 0 50 -4 50 -15z m530 0 c0 -10 -11
-15 -35 -15 -24 0 -35 5 -35 15 0 10 11 15 35 15 24 0 35 -5 35 -15z m160 0
c0 -12 -14 -15 -65 -15 -51 0 -65 3 -65 15 0 12 14 15 65 15 51 0 65 -3 65
-15z m120 0 c0 -11 -12 -15 -50 -15 -38 0 -50 4 -50 15 0 11 12 15 50 15 38 0
50 -4 50 -15z m-1076 -37 c5 -10 7 -10 12 0 4 8 28 12 69 12 41 0 65 -4 69
-12 5 -10 7 -10 12 0 7 15 634 18 634 2 0 -5 7 -10 15 -10 8 0 15 5 15 10 0
15 127 13 134 -2 5 -10 7 -10 12 0 4 9 47 12 165 12 l159 0 0 -85 0 -85 -810
0 -810 0 0 85 0 85 159 0 c118 0 161 -3 165 -12z m-334 -180 c0 -7 -7 -67 -15
-133 -12 -96 -15 -265 -15 -877 l0 -758 -25 0 -25 0 0 738 c0 630 2 759 17
890 16 147 17 152 40 152 13 0 23 -6 23 -12z m1738 -140 c8 -97 12 -419 12
-875 l0 -723 -29 0 -30 0 -5 802 c-3 442 -8 836 -11 876 l-7 72 30 0 29 0 11
-152z m-211 -168 l-121 -310 -112 0 -113 0 -3 32 c-4 39 -28 51 -28 14 0 -22
-4 -26 -29 -26 -17 0 -33 -4 -36 -10 -9 -15 -45 -12 -45 3 0 7 19 19 42 27 76
27 77 67 2 105 -32 16 -58 20 -149 20 -95 0 -116 -4 -152 -23 -33 -17 -43 -28
-43 -47 0 -14 -4 -25 -9 -25 -6 0 -11 -15 -13 -32 l-3 -33 -150 -3 -150 -2
-190 301 c-105 165 -191 305 -193 310 -2 5 322 9 806 9 l809 0 -120 -310z
m-1312 -17 l187 -298 -16 -310 c-21 -404 -24 -426 -45 -424 -49 4 -49 4 -55
-108 -4 -60 -9 -133 -12 -163 -5 -52 -4 -56 22 -67 16 -7 50 -13 78 -13 87 0
44 -10 -130 -30 -93 -11 -188 -22 -211 -25 l-43 -6 0 768 c0 727 8 973 30 973
4 0 92 -134 195 -297z m1452 -585 l4 -818 -83 1 c-95 1 -219 15 -156 18 l37 1
-5 98 c-19 348 -20 407 -7 423 17 20 16 29 -2 29 -10 0 -15 10 -15 29 0 21 5
28 17 27 12 -1 22 11 30 34 15 44 17 207 2 265 -9 37 -16 45 -40 50 -28 6 -29
8 -29 70 0 58 11 93 113 354 99 258 113 287 121 263 6 -15 11 -378 13 -844z
m-603 428 c47 -19 45 -44 -4 -68 -39 -20 -26 -25 15 -6 14 6 28 22 32 36 5 21
7 22 15 8 19 -33 -30 -60 -136 -76 -46 -7 -47 -8 -13 -9 47 -1 49 -21 2 -21
-31 0 -35 -3 -35 -25 0 -21 5 -25 30 -25 34 0 38 -10 12 -33 -15 -13 -21 -14
-31 -4 -9 9 -11 4 -9 -26 1 -20 5 -37 8 -37 3 0 17 21 32 45 l27 45 145 0 144
0 6 -92 c11 -159 13 -167 14 -46 1 64 -1 123 -4 132 -5 13 -22 16 -80 16 -41
0 -74 2 -74 4 0 2 3 11 6 20 5 13 26 16 125 16 l119 0 0 -60 c0 -57 -1 -60
-25 -60 -25 0 -25 -1 -25 -84 0 -55 4 -87 12 -92 6 -4 14 -2 16 4 5 15 32 16
32 2 0 -5 4 -10 9 -10 11 0 32 115 24 135 -3 8 1 15 8 15 7 0 9 -3 6 -7 -4 -3
-2 -12 5 -20 24 -29 22 -253 -2 -253 -10 0 -14 14 -25 83 -8 49 -25 48 -25 -3
0 -29 -4 -40 -15 -40 -11 0 -15 11 -15 40 0 29 -4 40 -15 40 -12 0 -15 -20
-15 -118 0 -124 6 -142 46 -142 19 0 22 -7 27 -57 4 -32 9 -145 13 -251 l7
-192 -50 0 -51 0 -6 53 c-3 28 -8 180 -12 337 -4 157 -10 305 -14 330 -8 43
-6 -48 9 -520 l6 -205 30 -6 c17 -4 -188 -7 -455 -8 -299 0 -479 3 -470 9 15
9 28 105 29 214 1 47 6 65 22 83 20 20 20 23 5 29 -13 5 -16 19 -15 73 1 36 4
80 8 96 l6 30 13 -41 c17 -58 82 -128 150 -161 48 -24 69 -28 137 -28 90 0
172 29 172 59 0 12 -5 15 -16 10 -76 -34 -130 -46 -182 -41 -257 23 -362 310
-174 475 56 49 123 72 204 71 31 0 50 -3 44 -6 -14 -5 -18 -125 -7 -182 l7
-31 83 0 84 0 0 65 c0 51 -3 65 -15 65 -8 0 -15 -4 -15 -10 0 -5 -20 -10 -45
-10 l-45 0 0 40 c0 33 3 40 20 40 11 0 20 6 20 14 0 17 -127 32 -196 22 -80
-11 -159 -62 -206 -135 l-29 -46 7 160 c3 88 8 163 11 168 2 4 69 7 148 7
l143 0 22 -27 c11 -16 29 -38 38 -50 9 -12 26 -23 37 -25 17 -3 20 3 23 45 3
40 0 47 -15 47 -10 0 -28 -7 -40 -15 -20 -14 -23 -13 -38 7 -15 23 -15 23 40
26 51 3 55 5 55 27 0 22 -5 25 -35 25 -47 0 -45 20 3 21 l37 2 -40 7 c-35 5
-37 7 -15 12 14 3 5 4 -20 2 -25 -2 -52 1 -60 6 -11 8 -7 9 15 5 28 -5 29 -5
6 5 -14 6 -32 16 -40 23 -14 11 -14 10 -2 -5 16 -22 -1 -24 -19 -3 -12 15 -7
47 7 43 4 -1 19 4 33 12 14 7 39 17 55 21 44 12 166 3 209 -15z m-234 -122 c0
-8 -12 -8 -45 -1 -36 8 -45 15 -45 32 l0 22 45 -21 c24 -12 44 -26 45 -32z
m17 -16 c-3 -8 -6 -5 -6 6 -1 11 2 17 5 13 3 -3 4 -12 1 -19z m180 0 c-3 -8
-6 -5 -6 6 -1 11 2 17 5 13 3 -3 4 -12 1 -19z m-307 -28 c0 -19 -7 -20 -104
-20 -58 0 -107 -3 -109 -7 -3 -5 -13 -162 -23 -350 l-18 -343 -25 0 -25 0 22
16 c27 19 28 30 3 43 -13 7 -24 6 -37 -3 -15 -12 -16 -16 -5 -30 12 -14 11
-16 -8 -16 -17 0 -20 5 -17 23 3 12 13 176 22 365 l18 342 153 0 c146 0 153
-1 153 -20z m86 5 c18 -13 15 -14 -28 -15 -36 0 -48 4 -48 15 0 20 50 20 76 0z
m352 3 c-3 -7 -21 -14 -41 -16 -30 -3 -36 0 -31 12 8 20 78 23 72 4z m252
-147 c0 -10 3 -33 6 -50 5 -24 3 -31 -10 -31 -13 0 -16 11 -16 50 0 28 5 50
10 50 6 0 10 -8 10 -19z m30 9 c0 -5 -2 -10 -4 -10 -3 0 -8 5 -11 10 -3 6 -1
10 4 10 6 0 11 -4 11 -10z m-570 -140 l0 -59 63 -4 c61 -3 61 -3 -15 -5 l-78
-2 0 65 c0 51 3 65 15 65 12 0 15 -13 15 -60z m547 34 c-3 -3 -12 -4 -19 -1
-8 3 -5 6 6 6 11 1 17 -2 13 -5z m-424 -144 c5 -19 0 -20 -68 -20 -64 0 -73 2
-78 20 -5 19 0 20 68 20 64 0 73 -2 78 -20z m424 -6 c-3 -3 -12 -4 -19 -1 -8
3 -5 6 6 6 11 1 17 -2 13 -5z m13 -69 c0 -48 -2 -55 -20 -55 -18 0 -20 7 -20
55 0 48 2 55 20 55 18 0 20 -7 20 -55z m35 25 c3 -5 1 -10 -4 -10 -6 0 -11 5
-11 10 0 6 2 10 4 10 3 0 8 -4 11 -10z m-27 -107 c-10 -2 -26 -2 -35 0 -10 3
-2 5 17 5 19 0 27 -2 18 -5z m-994 -142 c7 -11 -22 -23 -35 -15 -5 3 -9 9 -9
15 0 12 37 12 44 0z m-128 -98 c-3 -32 -8 -102 -12 -155 -3 -54 -9 -98 -12
-98 -4 0 -4 46 -1 102 4 57 7 127 8 156 1 29 6 52 11 52 7 0 9 -21 6 -57z
m124 25 c-5 -13 -12 -85 -16 -160 l-6 -138 -43 0 -43 0 5 148 c2 81 6 153 8
160 3 7 23 12 54 12 49 0 50 -1 41 -22z m36 -11 c-9 -14 -17 -67 -21 -145 -4
-67 -12 -125 -17 -128 -5 -4 -7 35 -3 98 8 135 14 179 27 195 17 21 29 4 14
-20z m401 17 c-3 -3 -12 -4 -19 -1 -8 3 -5 6 6 6 11 1 17 -2 13 -5z m-59 -11
c-10 -2 -28 -2 -40 0 -13 2 -5 4 17 4 22 1 32 -1 23 -4z m-491 -130 c-2 -16
-4 -5 -4 22 0 28 2 40 4 28 2 -13 2 -35 0 -50z m-10 -140 c-3 -10 -5 -4 -5 12
0 17 2 24 5 18 2 -7 2 -21 0 -30z m853 -63 c-157 -4 -436 -10 -620 -13 -297
-5 -325 -4 -245 7 64 9 244 13 620 13 476 0 501 -1 245 -7z"/>
<path d="M1042 1968 c-8 -8 -9 -15 -1 -25 16 -18 58 -16 66 3 11 28 -41 46
-65 22z m49 -13 c0 -5 -9 -11 -21 -13 -20 -3 -27 8 -13 22 10 9 34 3 34 -9z"/>
<path d="M1167 1974 c-12 -12 -8 -119 6 -137 17 -24 79 -33 117 -17 35 14 43
36 38 106 l-3 49 -75 3 c-42 1 -79 0 -83 -4z m143 -53 l0 -38 -49 5 c-27 2
-57 0 -67 -6 -15 -8 -10 -9 23 -5 52 7 93 -3 93 -22 0 -21 -48 -38 -88 -30
-38 7 -52 33 -52 96 l0 39 70 0 70 0 0 -39z"/>
<path d="M1401 1971 c-21 -13 -5 -41 22 -41 32 0 51 22 35 38 -14 14 -37 15
-57 3z m44 -10 c3 -5 1 -13 -5 -16 -15 -9 -43 3 -35 15 8 13 32 13 40 1z"/>
<path d="M1801 1971 c-21 -13 -5 -41 22 -41 32 0 51 22 35 38 -14 14 -37 15
-57 3z m47 -18 c2 -8 -5 -13 -17 -13 -21 0 -35 13 -24 24 10 10 36 3 41 -11z"/>
<path d="M2142 1968 c-8 -8 -9 -15 -1 -25 16 -18 58 -16 66 3 11 28 -41 46
-65 22z m49 -13 c0 -5 -9 -11 -21 -13 -20 -3 -27 8 -13 22 10 9 34 3 34 -9z"/>
<path d="M1910 1905 c0 -58 3 -66 25 -81 33 -21 113 -14 132 12 7 10 13 44 13
76 l0 58 -85 0 -85 0 0 -65z m150 16 l0 -38 -49 5 c-26 2 -58 -1 -70 -7 -20
-11 -21 -10 -21 34 l0 45 70 0 70 0 0 -39z m-14 -56 c19 -15 19 -15 0 -30 -11
-8 -34 -15 -51 -15 -17 0 -40 7 -51 15 -19 15 -19 15 0 30 11 8 34 15 51 15
17 0 40 -7 51 -15z"/>
<path d="M1414 1878 c-6 -10 20 -38 36 -38 3 0 14 6 25 13 24 18 11 37 -25 37
-16 0 -32 -5 -36 -12z m61 -8 c4 -6 -5 -10 -19 -10 -14 0 -26 5 -26 10 0 6 9
10 19 10 11 0 23 -4 26 -10z"/>
<path d="M1797 1883 c-12 -11 -8 -22 13 -33 25 -14 62 4 54 25 -6 15 -55 21
-67 8z m53 -13 c0 -5 -11 -10 -25 -10 -14 0 -25 5 -25 10 0 6 11 10 25 10 14
0 25 -4 25 -10z"/>
<path d="M1763 1473 c9 -2 23 -2 30 0 6 3 -1 5 -18 5 -16 0 -22 -2 -12 -5z"/>
<path d="M2122 1348 c-16 -19 1 -40 29 -36 16 2 24 10 24 23 0 24 -36 33 -53
13z m46 -16 c2 -7 -6 -12 -17 -12 -21 0 -27 11 -14 24 9 9 26 2 31 -12z"/>
<path d="M1720 1195 c0 -8 9 -15 20 -15 15 0 20 -7 20 -25 0 -16 6 -25 15 -25
17 0 20 32 5 61 -13 23 -60 26 -60 4z"/>
<path d="M1800 1117 c0 -4 12 -26 27 -49 22 -32 28 -56 31 -110 5 -84 -15
-143 -66 -201 -35 -38 -49 -67 -32 -67 5 0 26 20 48 46 72 81 90 184 51 288
-18 50 -58 112 -59 93z"/>
<path d="M1548 948 c-8 -21 2 -38 22 -38 19 0 34 25 24 41 -8 13 -41 11 -46
-3z m32 -8 c0 -5 -4 -10 -10 -10 -5 0 -10 5 -10 10 0 6 5 10 10 10 6 0 10 -4
10 -10z"/>
<path d="M1787 947 c-8 -21 8 -39 29 -35 27 5 25 42 -2 46 -12 2 -24 -3 -27
-11z m33 -13 c0 -8 -5 -12 -10 -9 -6 4 -8 11 -5 16 9 14 15 11 15 -7z"/>
<path d="M1306 941 c-10 -16 5 -41 24 -41 19 0 30 17 23 38 -5 14 -39 16 -47
3z m34 -11 c0 -5 -4 -10 -10 -10 -5 0 -10 5 -10 10 0 6 5 10 10 10 6 0 10 -4
10 -10z"/>
<path d="M1380 831 c-20 -38 21 -82 59 -62 24 13 30 31 20 59 -11 29 -63 31
-79 3z m68 -17 c4 -25 -20 -47 -42 -38 -16 6 -22 45 -9 58 14 14 48 1 51 -20z"/>
<path d="M1544 829 c-3 -6 1 -18 10 -27 15 -15 17 -15 32 0 19 19 11 38 -16
38 -10 0 -22 -5 -26 -11z m36 -9 c0 -5 -4 -10 -10 -10 -5 0 -10 5 -10 10 0 6
5 10 10 10 6 0 10 -4 10 -10z"/>
<path d="M2147 749 c-23 -13 -21 -36 3 -44 20 -6 50 9 50 26 0 16 -35 28 -53
18z m31 -21 c-3 -7 -11 -13 -18 -13 -7 0 -15 6 -17 13 -3 7 4 12 17 12 13 0
20 -5 18 -12z"/>
<path d="M1204 1345 c-8 -21 4 -35 31 -35 26 0 39 22 22 39 -16 16 -47 14 -53
-4z m46 -10 c0 -8 -9 -15 -20 -15 -20 0 -26 11 -13 23 12 13 33 7 33 -8z"/>
</g>
</svg>
