<?xml version="1.0" standalone="no"?>
<!DOCTYPE svg PUBLIC "-//W3C//DTD SVG 20010904//EN"
 "http://www.w3.org/TR/2001/REC-SVG-20010904/DTD/svg10.dtd">
<svg version="1.0" xmlns="http://www.w3.org/2000/svg"
 width="597.000000pt" height="574.000000pt" viewBox="0 0 597.000000 574.000000"
 preserveAspectRatio="xMidYMid meet">

<g transform="translate(0.000000,574.000000) scale(0.100000,-0.100000)"
fill="#000000" stroke="none">
<path d="M381 5726 c-7 -8 -93 -133 -192 -277 l-179 -263 0 -2141 0 -2142 35
-174 c20 -96 47 -241 61 -323 14 -82 27 -153 30 -157 8 -14 354 -190 411 -210
31 -10 77 -19 103 -19 l47 0 31 70 31 70 998 0 c549 0 1521 -3 2161 -7 l1162
-6 0 -74 0 -73 138 1 c171 0 203 10 445 137 134 70 178 98 182 115 3 12 32
170 65 351 l60 329 0 2114 0 2114 -192 279 -191 280 -313 0 c-307 0 -312 0
-307 -20 5 -20 1 -20 -453 -15 -516 6 -3040 25 -3321 25 -156 0 -183 2 -183
15 0 22 -611 23 -629 1z m603 -14 c-6 -4 -36 -102 -67 -219 l-57 -211 0 -1256
0 -1256 -129 0 c-179 0 -209 -14 -245 -117 -19 -55 -11 -61 89 -65 l79 -3 47
-125 c26 -69 43 -126 38 -128 -5 -2 -26 2 -46 9 -28 9 -38 9 -41 0 -2 -6 -9
-11 -16 -11 -31 0 -57 -1406 -35 -1892 l12 -278 64 0 c72 0 71 4 32 -86 -19
-42 -22 -44 -62 -43 -65 1 -130 26 -325 129 l-180 94 -22 136 c-12 74 -40 222
-61 329 l-39 195 0 2133 0 2134 142 207 c77 114 161 235 185 270 l44 62 302 0
c166 0 297 -4 291 -8z m4782 -275 l184 -268 0 -2142 0 -2142 -59 -318 c-32
-175 -63 -322 -67 -327 -22 -21 -347 -185 -408 -206 -59 -20 -89 -24 -198 -24
l-128 0 0 2638 0 2637 -55 205 c-30 113 -55 208 -55 213 0 4 136 6 301 5 l302
-3 183 -268z m-2811 248 c1012 -8 1881 -15 1930 -15 l90 0 47 -177 47 -178 6
-2578 7 -2579 -1259 7 c-692 4 -1259 8 -1260 9 -2 1 2 263 8 582 13 671 6
1284 -15 1454 -9 63 -15 118 -16 123 0 4 -22 7 -50 7 l-50 0 0 215 0 215 -785
0 -785 0 0 1252 0 1252 57 213 57 213 65 0 c36 0 894 -7 1906 -15z m-574
-2970 c-20 -23 -31 -46 -31 -65 l0 -30 -930 0 c-710 0 -930 3 -930 12 0 25 42
96 63 106 15 7 306 11 941 11 l918 1 -31 -35z m47 -307 l-3 -333 -5 320 c-5
308 -6 319 -22 295 -10 -13 -18 -32 -18 -42 0 -10 -4 -18 -10 -18 -20 0 -9 40
21 75 17 19 33 35 35 35 2 0 3 -150 2 -332z m-18 57 l0 -215 -104 0 -103 0 -7
31 c-9 47 -28 59 -90 59 -31 0 -56 -4 -56 -10 0 -5 -18 -10 -39 -10 -22 0 -43
5 -46 10 -9 14 -109 12 -123 -2 -7 -7 -12 -27 -12 -45 l0 -33 -220 0 c-213 0
-220 1 -220 20 0 11 -5 20 -11 20 -5 0 -8 4 -5 9 4 5 3 16 0 25 -5 12 -20 16
-65 16 -33 0 -59 -4 -59 -10 0 -5 -20 -10 -45 -10 -25 0 -45 5 -45 10 0 17
-109 12 -127 -6 -14 -13 -14 -17 -2 -25 10 -6 10 -9 2 -9 -7 0 -13 -9 -13 -20
0 -19 -7 -20 -114 -20 l-113 0 -63 166 c-34 91 -60 167 -58 169 2 2 318 6 703
10 832 7 978 11 1005 25 12 6 20 21 20 35 0 14 2 25 5 25 3 0 5 -97 5 -215z
m-1708 138 c-40 -2 -103 -2 -140 0 -37 2 -4 3 73 3 77 0 107 -2 67 -3z m421
-280 c-13 -2 -35 -2 -50 0 -16 2 -5 4 22 4 28 0 40 -2 28 -4z m210 0 c-13 -2
-35 -2 -50 0 -16 2 -5 4 22 4 28 0 40 -2 28 -4z m810 0 c-13 -2 -35 -2 -50 0
-16 2 -5 4 22 4 28 0 40 -2 28 -4z m396 -95 c33 -284 37 -685 14 -1751 l-6
-307 -961 2 -961 3 -12 225 c-13 271 -16 1024 -3 1205 5 72 11 243 15 380 3
138 8 269 11 293 l5 42 58 0 c56 0 57 -1 69 -33 7 -18 12 -75 12 -125 0 -92 0
-92 -25 -92 -14 0 -28 -6 -30 -12 -3 -7 -11 -71 -20 -143 -12 -105 -15 -278
-15 -892 l0 -763 73 0 c166 -1 1638 31 1705 36 l73 6 -5 826 c-2 455 -8 852
-13 882 -8 53 -9 55 -43 60 l-35 5 -2 115 c-1 63 0 121 2 128 2 7 21 12 43 12
l38 0 13 -102z m-1441 65 c-10 -2 -26 -2 -35 0 -10 3 -2 5 17 5 19 0 27 -2 18
-5z m135 0 c-13 -2 -35 -2 -50 0 -16 2 -5 4 22 4 28 0 40 -2 28 -4z m105 0
c-10 -2 -28 -2 -40 0 -13 2 -5 4 17 4 22 1 32 -1 23 -4z m-228 -28 c0 -11 -11
-15 -40 -15 -29 0 -40 4 -40 15 0 11 11 15 40 15 29 0 40 -4 40 -15z m150 0
c0 -12 -14 -15 -65 -15 -51 0 -65 3 -65 15 0 12 14 15 65 15 51 0 65 -3 65
-15z m120 0 c0 -11 -12 -15 -50 -15 -38 0 -50 4 -50 15 0 11 12 15 50 15 38 0
50 -4 50 -15z m530 -5 c0 -5 -16 -10 -35 -10 -19 0 -35 5 -35 10 0 6 16 10 35
10 19 0 35 -4 35 -10z m160 0 c0 -6 -28 -10 -65 -10 -37 0 -65 4 -65 10 0 6
28 10 65 10 37 0 65 -4 65 -10z m120 0 c0 -5 -22 -10 -50 -10 -27 0 -50 5 -50
10 0 6 23 10 50 10 28 0 50 -4 50 -10z m-1076 -32 c5 -10 7 -10 12 0 4 8 28
12 69 12 41 0 65 -4 69 -12 5 -10 7 -10 12 0 7 15 634 18 634 2 0 -5 7 -10 15
-10 8 0 15 5 15 10 0 15 127 13 134 -2 5 -10 7 -10 12 0 4 9 47 12 165 12
l159 0 0 -85 0 -85 -810 0 -810 0 0 85 0 85 159 0 c118 0 161 -3 165 -12z
m-334 -185 c0 -5 -7 -62 -15 -128 -12 -96 -15 -265 -15 -877 l0 -758 -25 0
-25 0 0 743 c0 628 2 764 17 885 16 138 17 142 40 142 12 0 23 -3 23 -7z
m1609 -95 c-22 -57 -77 -196 -121 -310 l-81 -208 -113 0 -114 0 0 30 c0 20 -5
30 -15 30 -9 0 -15 -9 -15 -25 0 -20 -5 -25 -24 -25 -13 0 -38 -3 -56 -7 -42
-8 -37 16 6 30 86 28 84 86 -4 115 -129 43 -320 11 -330 -55 -4 -24 40 -63 69
-63 11 0 19 -7 19 -16 0 -12 -6 -15 -22 -10 -13 3 -33 6 -45 6 -18 0 -23 6
-23 25 0 14 -4 25 -10 25 -5 0 -10 -13 -10 -30 l0 -30 -154 0 -154 0 -195 310
-195 310 813 0 813 0 -39 -102z m129 -50 c8 -97 12 -418 12 -870 l0 -718 -29
0 -30 0 -5 803 c-3 441 -8 832 -12 870 l-6 67 30 0 29 0 11 -152z m-1664 44
c27 -42 112 -177 188 -299 l140 -222 -16 -303 c-21 -402 -25 -438 -42 -438 -8
0 -14 4 -14 9 0 5 -9 7 -19 4 -17 -4 -20 -18 -25 -106 -4 -56 -9 -132 -12
-170 -6 -63 -5 -67 14 -67 12 0 23 -4 27 -9 3 -6 29 -8 58 -5 38 3 47 2 32 -5
-16 -8 -358 -51 -402 -51 -18 0 -19 1487 -1 1638 6 56 14 102 17 102 3 0 28
-35 55 -78z m1591 -817 l0 -810 -109 4 c-111 4 -201 18 -124 20 l37 1 -5 88
c-19 325 -20 417 -7 430 17 18 16 32 -2 32 -10 0 -15 10 -15 29 0 23 4 28 19
24 25 -6 41 59 41 174 0 117 -13 162 -51 176 -28 11 -29 14 -29 72 0 53 13 94
112 351 109 282 113 290 123 255 5 -22 9 -360 10 -846z m-605 437 c19 -8 38
-16 42 -16 4 -1 13 -7 19 -13 10 -10 9 -16 -4 -31 -27 -30 -84 -40 -197 -38
-121 3 -173 21 -168 59 2 12 8 22 13 22 6 1 21 7 34 14 58 32 192 34 261 3z
m-107 -109 c-7 -2 -19 -2 -25 0 -7 3 -2 5 12 5 14 0 19 -2 13 -5z m-106 -25
c-3 -8 -6 -5 -6 6 -1 11 2 17 5 13 3 -3 4 -12 1 -19z m163 10 c0 -5 -34 -8
-75 -8 -41 0 -75 3 -75 8 0 4 34 7 75 7 41 0 75 -3 75 -7z m17 -10 c-3 -8 -6
-5 -6 6 -1 11 2 17 5 13 3 -3 4 -12 1 -19z m-307 -28 c0 -19 -7 -20 -104 -20
-58 0 -107 -3 -109 -7 -3 -5 -13 -162 -23 -350 l-18 -343 -35 0 c-20 0 -41 4
-46 8 -8 5 -6 100 6 307 10 165 18 328 18 363 l1 62 155 0 c148 0 155 -1 155
-20z m80 5 c24 -14 24 -14 -22 -15 -36 0 -48 4 -48 15 0 19 37 19 70 0z m358
3 c-3 -7 -22 -14 -43 -16 -34 -3 -37 -2 -26 12 16 19 75 22 69 4z m252 -48 c0
-51 -3 -60 -17 -59 -11 0 -13 3 -5 6 17 7 15 40 -3 47 -23 8 -45 -4 -45 -25 0
-10 5 -19 10 -19 6 0 10 -78 10 -214 0 -118 3 -221 6 -230 4 -9 18 -16 34 -16
27 0 28 -2 34 -67 3 -38 9 -150 12 -251 l7 -182 -51 0 -51 0 -5 42 c-3 24 -10
237 -16 473 -6 237 -13 449 -16 473 l-5 42 -75 0 c-72 0 -74 1 -64 20 10 18
21 20 125 20 l115 0 0 -60z m-420 -5 c-13 -14 -21 -28 -17 -31 3 -3 12 3 19
15 12 20 21 21 159 21 l147 0 6 -82 c3 -46 11 -275 18 -510 l12 -427 30 -4
c17 -2 -187 -4 -454 -5 -299 -1 -479 2 -470 8 15 9 28 106 29 216 1 48 5 65
21 79 18 16 19 20 5 27 -16 10 -21 95 -9 157 l7 31 22 -48 c30 -64 113 -138
178 -157 117 -35 226 -11 311 66 112 102 127 259 37 383 -16 23 -31 53 -33 66
-3 22 -9 26 -53 31 -27 4 -66 12 -85 18 -116 37 -267 -19 -340 -126 l-32 -48
6 109 c3 60 6 133 6 163 l0 53 153 0 153 0 22 -30 c12 -16 22 -34 22 -39 0
-17 40 -33 66 -27 13 4 28 15 34 25 24 45 -33 85 -78 55 -23 -15 -26 -15 -51
10 l-26 26 104 0 104 0 -23 -25z m400 -25 c0 -5 -9 -10 -20 -10 -11 0 -20 5
-20 10 0 6 9 10 20 10 11 0 20 -4 20 -10z m-496 -22 c-3 -31 -3 -30 -14 -23
-7 4 -7 13 0 26 14 25 17 24 14 -3z m516 -60 c0 -13 3 -33 6 -45 5 -17 2 -23
-10 -23 -12 0 -16 10 -16 45 0 25 5 45 10 45 6 0 10 -10 10 -22z m60 18 c0 -3
-4 -8 -10 -11 -5 -3 -10 -1 -10 4 0 6 5 11 10 11 6 0 10 -2 10 -4z m16 -82 c8
-68 0 -182 -14 -196 -6 -6 -8 -18 -5 -27 4 -9 2 -13 -2 -8 -17 15 -26 205 -12
260 12 43 25 32 33 -29z m-654 -50 c-2 -42 -1 -92 3 -110 l6 -34 84 0 85 0 0
61 c0 71 11 70 46 -5 31 -67 33 -158 3 -221 -27 -58 -106 -129 -166 -149 -60
-20 -146 -20 -206 0 -60 20 -139 91 -166 149 -42 89 -21 217 47 288 56 59 140
95 222 96 l45 1 -3 -76z m38 -4 l0 -50 60 0 c47 0 60 -3 60 -15 0 -12 -15 -15
-75 -15 l-75 0 0 65 c0 51 3 65 15 65 11 0 15 -12 15 -50z m550 30 c0 -5 -7
-10 -15 -10 -8 0 -15 5 -15 10 0 6 7 10 15 10 8 0 15 -4 15 -10z m-472 -7
c-10 -2 -28 -2 -40 0 -13 2 -5 4 17 4 22 1 32 -1 23 -4z m472 -68 c0 -42 -3
-55 -15 -55 -12 0 -15 13 -15 55 0 42 3 55 15 55 12 0 15 -13 15 -55z m-430
24 c0 -18 -5 -20 -52 -17 -41 2 -54 7 -56 21 -3 14 5 17 52 17 50 0 56 -2 56
-21z m0 -89 c0 -18 -7 -20 -69 -20 -60 0 -69 2 -74 20 -5 19 0 20 69 20 67 0
74 -2 74 -20z m427 -6 c-3 -3 -12 -4 -19 -1 -8 3 -5 6 6 6 11 1 17 -2 13 -5z
m11 -72 c3 -47 1 -52 -17 -52 -19 0 -21 6 -21 56 0 47 3 55 18 52 13 -2 18
-15 20 -56z m10 -79 c-10 -2 -28 -2 -40 0 -13 2 -5 4 17 4 22 1 32 -1 23 -4z
m-418 -127 c0 -2 -8 -10 -17 -17 -16 -13 -17 -12 -4 4 13 16 21 21 21 13z
m-50 -41 c0 -6 -56 -35 -67 -35 -4 1 8 9 27 20 39 22 40 22 40 15z m-654 -62
c-3 -27 -8 -96 -12 -155 -3 -60 -9 -108 -12 -108 -4 0 -4 46 -1 102 4 57 7
127 8 156 1 30 6 52 12 52 7 0 9 -16 5 -47z m151 31 c20 -6 21 -8 8 -28 -8
-13 -16 -68 -20 -144 -4 -67 -12 -125 -17 -128 -14 -9 1 236 18 281 7 17 6 18
-8 7 -12 -10 -17 -44 -23 -157 l-7 -145 -45 0 -46 0 7 61 c3 34 6 106 6 160
l0 99 53 0 c28 0 62 -3 74 -6z m361 -21 c-15 -2 -42 -2 -60 0 -18 2 -6 4 27 4
33 0 48 -2 33 -4z m-501 -85 c-3 -8 -6 -5 -6 6 -1 11 2 17 5 13 3 -3 4 -12 1
-19z m0 -55 c-3 -10 -5 -4 -5 12 0 17 2 24 5 18 2 -7 2 -21 0 -30z m-10 -130
c-3 -10 -5 -4 -5 12 0 17 2 24 5 18 2 -7 2 -21 0 -30z m938 -63 c-82 -4 -343
-10 -580 -13 -376 -5 -419 -4 -340 8 64 9 233 12 580 12 338 0 443 -2 340 -7z"/>
<path d="M1048 1969 c-25 -14 -11 -39 22 -39 36 0 49 19 25 37 -22 15 -25 16
-47 2z m47 -19 c-3 -5 -15 -10 -26 -10 -10 0 -19 5 -19 10 0 6 12 10 26 10 14
0 23 -4 19 -10z"/>
<path d="M1407 1973 c-30 -8 -16 -38 21 -41 26 -3 32 0 32 16 0 15 -24 37 -33
31 -1 -1 -10 -3 -20 -6z m43 -23 c0 -5 -11 -10 -25 -10 -14 0 -25 5 -25 10 0
6 11 10 25 10 14 0 25 -4 25 -10z"/>
<path d="M1805 1967 c-24 -18 -11 -37 25 -37 34 0 47 25 20 40 -24 13 -23 13
-45 -3z m45 -17 c0 -5 -11 -10 -25 -10 -14 0 -25 5 -25 10 0 6 11 10 25 10 14
0 25 -4 25 -10z"/>
<path d="M2148 1969 c-25 -14 -11 -39 22 -39 36 0 49 19 25 37 -22 15 -25 16
-47 2z m52 -19 c0 -5 -11 -10 -25 -10 -14 0 -25 5 -25 10 0 6 11 10 25 10 14
0 25 -4 25 -10z"/>
<path d="M1160 1906 c0 -56 3 -67 22 -80 33 -23 103 -21 128 4 16 16 20 33 20
80 l0 60 -85 0 -85 0 0 -64z m150 14 l0 -39 -48 6 c-29 3 -58 1 -70 -6 -21
-11 -22 -10 -22 34 l0 45 70 0 70 0 0 -40z m-14 -55 c19 -15 19 -15 0 -30 -11
-8 -34 -15 -51 -15 -17 0 -40 7 -51 15 -19 15 -19 15 0 30 11 8 34 15 51 15
17 0 40 -7 51 -15z"/>
<path d="M1910 1907 c0 -78 16 -97 79 -97 72 0 81 10 81 90 l0 70 -80 0 -80 0
0 -63z m150 9 l0 -44 -35 11 c-25 7 -45 7 -70 0 l-35 -11 0 44 0 44 70 0 70 0
0 -44z m-7 -55 c28 -28 -56 -55 -107 -35 -23 9 -20 33 7 44 25 11 86 5 100 -9z"/>
<path d="M1413 1874 c-6 -17 12 -34 38 -34 21 0 43 26 34 40 -10 16 -65 12
-72 -6z m61 -3 c8 -12 -20 -22 -39 -15 -19 8 -9 24 15 24 10 0 21 -4 24 -9z"/>
<path d="M1797 1883 c-15 -14 -6 -33 18 -39 32 -8 60 13 44 32 -12 15 -51 19
-62 7z m53 -12 c0 -6 -5 -13 -10 -16 -15 -9 -43 3 -35 15 8 13 45 13 45 1z"/>
<path d="M1877 1521 c-3 -13 -22 -25 -53 -36 -37 -12 -41 -14 -15 -10 43 6 81
30 81 50 0 21 -7 19 -13 -4z"/>
<path d="M1569 1501 c13 -12 28 -21 34 -21 12 0 11 0 -28 24 l-30 17 24 -20z"/>
<path d="M1628 1473 c6 -2 18 -2 25 0 6 3 1 5 -13 5 -14 0 -19 -2 -12 -5z"/>
<path d="M1213 1353 c-18 -7 -16 -40 3 -47 17 -7 54 10 54 24 0 8 -33 31 -42
29 -2 0 -9 -3 -15 -6z m37 -21 c0 -14 -11 -21 -26 -15 -21 8 -17 23 6 23 11 0
20 -4 20 -8z"/>
<path d="M1174 725 c-9 -22 9 -37 37 -33 16 2 24 10 24 23 0 26 -52 35 -61 10z
m51 -4 c3 -5 1 -13 -5 -16 -15 -9 -43 3 -35 15 8 13 32 13 40 1z"/>
<path d="M2134 735 c-8 -21 4 -35 31 -35 24 0 35 16 28 38 -6 17 -52 15 -59
-3z m46 -10 c0 -8 -6 -15 -14 -15 -17 0 -28 14 -19 24 12 12 33 6 33 -9z"/>
<path d="M1548 948 c-8 -21 2 -38 22 -38 23 0 32 13 24 34 -7 19 -40 21 -46 4z
m32 -18 c0 -5 -4 -10 -10 -10 -5 0 -10 5 -10 10 0 6 5 10 10 10 6 0 10 -4 10
-10z"/>
<path d="M1792 948 c-15 -18 1 -41 24 -36 23 4 26 41 3 46 -9 1 -21 -3 -27
-10z m28 -18 c0 -5 -4 -10 -10 -10 -5 0 -10 5 -10 10 0 6 5 10 10 10 6 0 10
-4 10 -10z"/>
<path d="M1304 935 c-8 -19 3 -35 26 -35 19 0 30 17 23 38 -6 17 -42 15 -49
-3z m36 -15 c0 -5 -4 -10 -10 -10 -5 0 -10 5 -10 10 0 6 5 10 10 10 6 0 10 -4
10 -10z"/>
<path d="M1386 834 c-21 -21 -20 -37 3 -58 24 -22 49 -18 67 9 12 18 11 24 -2
43 -18 26 -46 28 -68 6z m62 -26 c2 -19 -2 -28 -17 -33 -27 -8 -41 1 -41 29 0
29 9 38 35 34 13 -2 21 -12 23 -30z"/>
<path d="M1548 828 c-8 -21 2 -38 22 -38 19 0 30 17 23 38 -3 6 -13 12 -23 12
-10 0 -20 -6 -22 -12z m32 -14 c0 -8 -4 -12 -10 -9 -5 3 -10 10 -10 16 0 5 5
9 10 9 6 0 10 -7 10 -16z"/>
</g>
</svg>
