<svg width="2213" height="1382" xmlns="http://www.w3.org/2000/svg" xmlns:xlink="http://www.w3.org/1999/xlink" overflow="hidden"><defs><clipPath id="clip0"><rect x="-1" y="-1" width="2213" height="1382"/></clipPath><clipPath id="clip1"><rect x="0" y="0" width="2211" height="1380"/></clipPath><clipPath id="clip2"><rect x="0" y="0" width="2211" height="1380"/></clipPath><clipPath id="clip3"><rect x="0" y="0" width="2211" height="1380"/></clipPath><clipPath id="clip4"><rect x="0" y="0" width="2211" height="1380"/></clipPath><clipPath id="clip5"><rect x="0" y="0" width="2211" height="1380"/></clipPath><clipPath id="clip6"><rect x="0" y="0" width="2211" height="1380"/></clipPath><clipPath id="clip7"><rect x="248" y="50" width="1891" height="1130"/></clipPath><clipPath id="clip8"><rect x="0" y="0" width="2211" height="1380"/></clipPath><clipPath id="clip9"><rect x="0" y="0" width="2211" height="1380"/></clipPath><clipPath id="clip10"><rect x="0" y="0" width="2211" height="1380"/></clipPath><clipPath id="clip11"><rect x="0" y="0" width="2211" height="1380"/></clipPath><clipPath id="clip12"><rect x="0" y="0" width="2211" height="1380"/></clipPath><clipPath id="clip13"><rect x="0" y="0" width="2211" height="1380"/></clipPath><clipPath id="clip14"><rect x="0" y="0" width="2211" height="1380"/></clipPath><clipPath id="clip15"><rect x="0" y="0" width="2211" height="1380"/></clipPath><clipPath id="clip16"><rect x="0" y="0" width="2211" height="1380"/></clipPath><clipPath id="clip17"><rect x="0" y="0" width="2211" height="1380"/></clipPath><clipPath id="clip18"><rect x="0" y="0" width="2211" height="1380"/></clipPath><clipPath id="clip19"><rect x="0" y="0" width="2211" height="1380"/></clipPath><clipPath id="clip20"><rect x="0" y="0" width="2211" height="1380"/></clipPath><clipPath id="clip21"><rect x="0" y="0" width="2211" height="1380"/></clipPath><clipPath id="clip22"><rect x="0" y="0" width="2211" height="1380"/></clipPath><clipPath id="clip23"><rect x="0" y="0" width="2211" height="1380"/></clipPath><clipPath id="clip24"><rect x="0" y="0" width="2211" height="1380"/></clipPath><clipPath id="clip25"><rect x="0" y="0" width="2211" height="1380"/></clipPath><clipPath id="clip26"><rect x="0" y="0" width="2211" height="1380"/></clipPath><clipPath id="clip27"><rect x="0" y="0" width="2211" height="1380"/></clipPath></defs><g clip-path="url(#clip0)" transform="translate(1 1)"><rect x="0" y="0" width="2211" height="1380" fill="#FFFFFF"/><g clip-path="url(#clip1)"><rect x="249" y="49.9998" width="1887" height="1127" fill="#FFFFFF"/></g><g clip-path="url(#clip2)"><path d="M248.5 1064.54 2135.5 1064.54M248.5 951.531 2135.5 951.531M248.5 838.528 2135.5 838.528M248.5 726.524 2135.5 726.524M248.5 613.52 2135.5 613.52M248.5 501.517 2135.5 501.517M248.5 388.513 2135.5 388.513M248.5 275.509 2135.5 275.509M248.5 163.506 2135.5 163.506M248.5 50.5 2135.5 50.5" stroke="#D9D9D9" stroke-width="3.4375" stroke-linejoin="round" stroke-miterlimit="10" fill="none"/></g><g clip-path="url(#clip3)"><path d="M0 0 0.000360892 1126" stroke="#000000" stroke-width="6.875" stroke-linejoin="round" stroke-miterlimit="10" fill="none" fill-rule="evenodd" transform="matrix(1 0 0 -1 248.5 1176.5)"/></g><g clip-path="url(#clip4)"><path d="M235.5 1176.5 248.5 1176.5M235.5 1064.54 248.5 1064.54M235.5 951.531 248.5 951.531M235.5 838.528 248.5 838.528M235.5 726.524 248.5 726.524M235.5 613.52 248.5 613.52M235.5 501.517 248.5 501.517M235.5 388.513 248.5 388.513M235.5 275.509 248.5 275.509M235.5 163.506 248.5 163.506M235.5 50.5 248.5 50.5" stroke="#000000" stroke-width="6.875" stroke-linejoin="round" stroke-miterlimit="10" fill="none"/></g><g clip-path="url(#clip5)"><path d="M248.5 1176.5 2135.5 1176.5" stroke="#000000" stroke-width="6.875" stroke-linejoin="round" stroke-miterlimit="10" fill="none" fill-rule="evenodd"/></g><g clip-path="url(#clip6)"><path d="M248.5 1176.5 248.5 1190.5M533.518 1176.5 533.518 1190.5M817.527 1176.5 817.527 1190.5M1101.54 1176.5 1101.54 1190.5M1385.55 1176.5 1385.55 1190.5M1669.55 1176.5 1669.55 1190.5M1953.5 1176.5 1953.5 1190.5" stroke="#000000" stroke-width="6.875" stroke-linejoin="round" stroke-miterlimit="10" fill="none"/></g><g clip-path="url(#clip7)"><path d="M254.5 1176.54 265.509 1177.5 277.509 1176.54 288.51 1176.54 299.51 1176.54 311.51 1176.54 322.511 1176.54 334.511 1176.54 345.512 1176.54 356.512 1176.54 368.512 1176.54 379.513 1176.54 390.513 1176.54 402.513 1176.54 413.514 1176.54 425.514 1175.54 436.514 1172.54 447.515 1165.54 459.515 1150.54 470.516 1121.54 481.516 1074.54 493.516 1006.53 504.517 915.53 515.517 806.527 527.517 680.523 538.518 546.518 550.518 415.514 561.519 300.51 572.519 213.507 584.519 164.506 595.52 157.5 606.52 193.507 618.52 265.509 629.521 365.512 640.521 490.516 652.522 626.521 663.522 760.525 675.522 881.529 686.523 977.532 697.523 1049.53 709.523 1096.54 720.524 1124.54 731.524 1137.54 743.525 1142.54 754.525 1142.54 766.525 1141.54 777.526 1138.54 788.526 1133.54 800.526 1128.54 811.527 1121.54 822.527 1113.54 834.528 1104.54 845.528 1092.54 856.528 1079.54 868.529 1065.54 879.529 1051.53 891.529 1037.53 902.53 1026.53 913.53 1018.53 925.531 1013.53 936.531 1012.53 947.531 1014.53 959.532 1020.53 970.532 1028.53 981.532 1036.53 993.533 1046.53 1004.53 1055.53 1016.53 1062.54 1027.53 1068.54 1038.53 1071.54 1050.53 1072.54 1061.54 1071.54 1072.54 1069.54 1084.54 1066.54 1095.54 1062.54 1107.54 1057.53 1118.54 1052.53 1129.54 1047.53 1141.54 1042.53 1152.54 1037.53 1163.54 1032.53 1175.54 1027.53 1186.54 1022.53 1197.54 1017.53 1209.54 1012.53 1220.54 1006.53 1232.54 1001.53 1243.54 996.533 1254.54 992.533 1266.54 988.533 1277.54 985.533 1288.54 982.532 1300.54 979.532 1311.54 976.532 1322.54 974.532 1334.54 973.532 1345.54 971.532 1357.54 969.532 1368.55 968.532 1379.55 968.532 1391.55 966.532 1402.55 966.532 1413.55 965.532 1425.55 966.532 1436.55 967.532 1448.55 967.532 1459.55 968.532 1470.55 968.532 1482.55 970.532 1493.55 971.532 1504.55 974.532 1516.55 977.532 1527.55 979.532 1538.55 980.532 1550.55 982.532 1561.55 985.533 1573.55 988.533 1584.55 992.533 1595.55 995.533 1607.55 997.533 1618.55 1001.53 1629.55 1003.53 1641.55 1007.53 1652.55 1010.53 1663.55 1013.53 1675.56 1017.53 1686.56 1021.53 1698.56 1023.53 1709.56 1027.53 1720.56 1029.53 1732.56 1033.53 1743.56 1036.53 1754.56 1039.53 1766.56 1043.53 1777.56 1046.53 1789.56 1049.53 1800.56 1052.53 1811.56 1055.53 1823.56 1059.53 1834.56 1062.54 1845.56 1065.54 1857.56 1068.54 1868.56 1071.54 1879.56 1074.54 1891.56 1076.54 1902.56 1079.54 1914.56 1082.54 1925.56 1085.54 1936.56 1087.54 1948.56 1089.54 1959.56 1091.54 1970.56 1094.54 1982.57 1096.54 1993.57 1098.54 2004.57 1100.54 2016.57 1102.54 2027.57 1105.54 2039.57 1107.54 2050.57 1109.54 2061.57 1111.54 2073.57 1113.54 2084.57 1115.54 2095.57 1117.54 2107.57 1119.54 2118.57 1121.54 2130.5 1123.54" stroke="#000000" stroke-width="9.16667" stroke-linecap="round" stroke-linejoin="round" stroke-miterlimit="10" fill="none"/></g><g clip-path="url(#clip8)"><text fill="#595959" font-family="Calibri,Calibri_MSFontService,sans-serif" font-weight="400" font-size="41" transform="matrix(1 0 0 1 189.681 1189)">0</text></g><g clip-path="url(#clip9)"><text fill="#595959" font-family="Calibri,Calibri_MSFontService,sans-serif" font-weight="400" font-size="41" transform="matrix(1 0 0 1 147.881 1076)">500</text></g><g clip-path="url(#clip10)"><text fill="#595959" font-family="Calibri,Calibri_MSFontService,sans-serif" font-weight="400" font-size="41" transform="matrix(1 0 0 1 126.981 963)">1000</text></g><g clip-path="url(#clip11)"><text fill="#595959" font-family="Calibri,Calibri_MSFontService,sans-serif" font-weight="400" font-size="41" transform="matrix(1 0 0 1 126.981 851)">1500</text></g><g clip-path="url(#clip12)"><text fill="#595959" font-family="Calibri,Calibri_MSFontService,sans-serif" font-weight="400" font-size="41" transform="matrix(1 0 0 1 126.981 738)">2000</text></g><g clip-path="url(#clip13)"><text fill="#595959" font-family="Calibri,Calibri_MSFontService,sans-serif" font-weight="400" font-size="41" transform="matrix(1 0 0 1 126.981 625)">2500</text></g><g clip-path="url(#clip14)"><text fill="#595959" font-family="Calibri,Calibri_MSFontService,sans-serif" font-weight="400" font-size="41" transform="matrix(1 0 0 1 126.981 513)">3000</text></g><g clip-path="url(#clip15)"><text fill="#595959" font-family="Calibri,Calibri_MSFontService,sans-serif" font-weight="400" font-size="41" transform="matrix(1 0 0 1 126.981 400)">3500</text></g><g clip-path="url(#clip16)"><text fill="#595959" font-family="Calibri,Calibri_MSFontService,sans-serif" font-weight="400" font-size="41" transform="matrix(1 0 0 1 126.981 287)">4000</text></g><g clip-path="url(#clip17)"><text fill="#595959" font-family="Calibri,Calibri_MSFontService,sans-serif" font-weight="400" font-size="41" transform="matrix(1 0 0 1 126.981 175)">4500</text></g><g clip-path="url(#clip18)"><text fill="#595959" font-family="Calibri,Calibri_MSFontService,sans-serif" font-weight="400" font-size="41" transform="matrix(1 0 0 1 126.981 62)">5000</text></g><g clip-path="url(#clip19)"><text fill="#595959" font-family="Calibri,Calibri_MSFontService,sans-serif" font-weight="400" font-size="41" transform="matrix(1 0 0 1 223.182 1242)">250</text></g><g clip-path="url(#clip20)"><text fill="#595959" font-family="Calibri,Calibri_MSFontService,sans-serif" font-weight="400" font-size="41" transform="matrix(1 0 0 1 507.354 1242)">275</text></g><g clip-path="url(#clip21)"><text fill="#595959" font-family="Calibri,Calibri_MSFontService,sans-serif" font-weight="400" font-size="41" transform="matrix(1 0 0 1 791.527 1242)">300</text></g><g clip-path="url(#clip22)"><text fill="#595959" font-family="Calibri,Calibri_MSFontService,sans-serif" font-weight="400" font-size="41" transform="matrix(1 0 0 1 1075.7 1242)">325</text></g><g clip-path="url(#clip23)"><text fill="#595959" font-family="Calibri,Calibri_MSFontService,sans-serif" font-weight="400" font-size="41" transform="matrix(1 0 0 1 1359.87 1242)">350</text></g><g clip-path="url(#clip24)"><text fill="#595959" font-family="Calibri,Calibri_MSFontService,sans-serif" font-weight="400" font-size="41" transform="matrix(1 0 0 1 1644.04 1242)">375</text></g><g clip-path="url(#clip25)"><text fill="#595959" font-family="Calibri,Calibri_MSFontService,sans-serif" font-weight="400" font-size="41" transform="matrix(1 0 0 1 1928.22 1242)">400</text></g><g clip-path="url(#clip26)"><text fill="#595959" font-family="Calibri,Calibri_MSFontService,sans-serif" font-weight="400" font-size="46" transform="matrix(6.12323e-17 -1 1 6.12323e-17 101.292 695)">Intensity</text></g><g clip-path="url(#clip27)"><text fill="#595959" font-family="Calibri,Calibri_MSFontService,sans-serif" font-weight="400" font-size="46" transform="matrix(1 0 0 1 1030.57 1311)">Wavelength (nm)</text></g><rect x="0" y="0" width="2211" height="1380" stroke="#898989" stroke-width="2.29167" stroke-linejoin="round" stroke-miterlimit="10" fill="none"/></g></svg>