<svg width="2173" height="1359" xmlns="http://www.w3.org/2000/svg" xmlns:xlink="http://www.w3.org/1999/xlink" overflow="hidden"><defs><clipPath id="clip0"><rect x="-1" y="-1" width="2173" height="1359"/></clipPath><clipPath id="clip1"><rect x="0" y="0" width="2170" height="1356"/></clipPath><clipPath id="clip2"><rect x="0" y="0" width="2170" height="1356"/></clipPath><clipPath id="clip3"><rect x="0" y="0" width="2170" height="1356"/></clipPath><clipPath id="clip4"><rect x="0" y="0" width="2170" height="1356"/></clipPath><clipPath id="clip5"><rect x="0" y="0" width="2170" height="1356"/></clipPath><clipPath id="clip6"><rect x="0" y="0" width="2170" height="1356"/></clipPath><clipPath id="clip7"><rect x="248" y="50" width="1854" height="1106"/></clipPath><clipPath id="clip8"><rect x="0" y="0" width="2170" height="1356"/></clipPath><clipPath id="clip9"><rect x="0" y="0" width="2170" height="1356"/></clipPath><clipPath id="clip10"><rect x="0" y="0" width="2170" height="1356"/></clipPath><clipPath id="clip11"><rect x="0" y="0" width="2170" height="1356"/></clipPath><clipPath id="clip12"><rect x="0" y="0" width="2170" height="1356"/></clipPath><clipPath id="clip13"><rect x="0" y="0" width="2170" height="1356"/></clipPath><clipPath id="clip14"><rect x="0" y="0" width="2170" height="1356"/></clipPath><clipPath id="clip15"><rect x="0" y="0" width="2170" height="1356"/></clipPath><clipPath id="clip16"><rect x="0" y="0" width="2170" height="1356"/></clipPath><clipPath id="clip17"><rect x="0" y="0" width="2170" height="1356"/></clipPath></defs><g clip-path="url(#clip0)" transform="translate(1 1)"><rect x="0" y="0" width="2171" height="1357" fill="#FFFFFF"/><g clip-path="url(#clip1)"><rect x="249" y="49.9998" width="1850" height="1103" fill="#FFFFFF"/></g><g clip-path="url(#clip2)"><path d="M248.5 601.52 2099.5 601.52M248.5 50.5 2099.5 50.5" stroke="#D9D9D9" stroke-width="3.4375" stroke-linejoin="round" stroke-miterlimit="10" fill="none"/></g><g clip-path="url(#clip3)"><path d="M0 0 0.000360892 1103" stroke="#000000" stroke-width="6.875" stroke-linejoin="round" stroke-miterlimit="10" fill="none" fill-rule="evenodd" transform="matrix(1 0 0 -1 248.5 1153.5)"/></g><g clip-path="url(#clip4)"><path d="M235.5 1153.5 248.5 1153.5M235.5 601.52 248.5 601.52M235.5 50.5 248.5 50.5" stroke="#000000" stroke-width="6.875" stroke-linejoin="round" stroke-miterlimit="10" fill="none"/></g><g clip-path="url(#clip5)"><path d="M248.5 1153.5 2099.5 1153.5" stroke="#000000" stroke-width="6.875" stroke-linejoin="round" stroke-miterlimit="10" fill="none" fill-rule="evenodd"/></g><g clip-path="url(#clip6)"><path d="M248.5 1153.5 248.5 1166.5M706.523 1153.5 706.523 1166.5M1164.54 1153.5 1164.54 1166.5M1622.55 1153.5 1622.55 1166.5M2081.5 1153.5 2081.5 1166.5" stroke="#000000" stroke-width="6.875" stroke-linejoin="round" stroke-miterlimit="10" fill="none"/></g><g clip-path="url(#clip7)"><path d="M258.5 672.5 276.509 737.524 294.51 794.526 312.51 843.528 331.511 883.529 349.512 911.53 367.512 930.531 386.513 943.531 404.513 952.531 422.514 958.532 441.515 962.532 459.515 966.532 477.516 967.532 496.516 969.532 514.517 970.532 532.518 971.532 551.518 973.532 569.519 975.532 587.519 976.532 606.52 976.532 624.521 976.532 642.521 976.532 661.522 978.532 679.522 979.532 697.523 979.532 716.524 979.532 734.524 980.532 752.525 983.532 771.526 984.532 789.526 986.533 807.527 987.533 825.527 989.533 844.528 990.533 862.529 989.533 880.529 993.533 899.53 996.533 917.53 998.533 935.531 1001.53 954.531 1001.53 972.532 1002.53 990.533 1005.53 1009.53 1006.53 1027.53 1008.53 1045.53 1011.53 1064.54 1012.53 1082.54 1014.53 1100.54 1016.53 1119.54 1016.53 1137.54 1017.53 1155.54 1018.53 1174.54 1020.53 1192.54 1023.53 1210.54 1025.53 1229.54 1027.53 1247.54 1029.53 1265.54 1031.53 1284.54 1032.53 1302.54 1033.53 1320.54 1035.53 1338.54 1035.53 1357.54 1037.53 1375.55 1038.53 1393.55 1039.53 1412.55 1041.53 1430.55 1043.53 1448.55 1044.53 1467.55 1046.53 1485.55 1048.53 1503.55 1050.53 1522.55 1050.53 1540.55 1052.53 1558.55 1054.53 1577.55 1054.53 1595.55 1055.53 1613.55 1056.53 1632.55 1058.53 1650.55 1060.53 1668.55 1060.53 1687.56 1060.53 1705.56 1061.54 1723.56 1063.54 1742.56 1065.54 1760.56 1065.54 1778.56 1066.54 1797.56 1066.54 1815.56 1067.54 1833.56 1068.54 1852.56 1070.54 1870.56 1070.54 1888.56 1071.54 1906.56 1074.54 1925.56 1075.54 1943.56 1076.54 1961.56 1077.54 1980.57 1077.54 1998.57 1078.54 2016.57 1079.54 2035.57 1082.54 2053.57 1083.54 2071.57 1085.54 2090.5 1086.5" stroke="#000000" stroke-width="9.16667" stroke-linecap="round" stroke-linejoin="round" stroke-miterlimit="10" fill="none"/></g><g clip-path="url(#clip8)"><text fill="#595959" font-family="Calibri,Calibri_MSFontService,sans-serif" font-weight="400" font-size="41" transform="matrix(1 0 0 1 189.681 1165)">0</text></g><g clip-path="url(#clip9)"><text fill="#595959" font-family="Calibri,Calibri_MSFontService,sans-serif" font-weight="400" font-size="41" transform="matrix(1 0 0 1 147.881 613)">500</text></g><g clip-path="url(#clip10)"><text fill="#595959" font-family="Calibri,Calibri_MSFontService,sans-serif" font-weight="400" font-size="41" transform="matrix(1 0 0 1 126.981 62)">1000</text></g><g clip-path="url(#clip11)"><text fill="#595959" font-family="Calibri,Calibri_MSFontService,sans-serif" font-weight="400" font-size="41" transform="matrix(1 0 0 1 226.66 1218)">315</text></g><g clip-path="url(#clip12)"><text fill="#595959" font-family="Calibri,Calibri_MSFontService,sans-serif" font-weight="400" font-size="41" transform="matrix(1 0 0 1 684.721 1218)">340</text></g><g clip-path="url(#clip13)"><text fill="#595959" font-family="Calibri,Calibri_MSFontService,sans-serif" font-weight="400" font-size="41" transform="matrix(1 0 0 1 1142.78 1218)">365</text></g><g clip-path="url(#clip14)"><text fill="#595959" font-family="Calibri,Calibri_MSFontService,sans-serif" font-weight="400" font-size="41" transform="matrix(1 0 0 1 1600.85 1218)">390</text></g><g clip-path="url(#clip15)"><text fill="#595959" font-family="Calibri,Calibri_MSFontService,sans-serif" font-weight="400" font-size="41" transform="matrix(1 0 0 1 2058.91 1218)">415</text></g><g clip-path="url(#clip16)"><text fill="#595959" font-family="Calibri,Calibri_MSFontService,sans-serif" font-weight="400" font-size="46" transform="matrix(6.12323e-17 -1 1 6.12323e-17 101.292 683)">Intensity</text></g><g clip-path="url(#clip17)"><text fill="#595959" font-family="Calibri,Calibri_MSFontService,sans-serif" font-weight="400" font-size="46" transform="matrix(1 0 0 1 1012.4 1287)">Wavelength (nm)</text></g><rect x="0" y="0" width="2171" height="1357" stroke="#898989" stroke-width="2.29167" stroke-linejoin="round" stroke-miterlimit="10" fill="none"/></g></svg>