<svg width="2198" height="1375" xmlns="http://www.w3.org/2000/svg" xmlns:xlink="http://www.w3.org/1999/xlink" overflow="hidden"><defs><clipPath id="clip0"><rect x="-1" y="-1" width="2198" height="1375"/></clipPath><clipPath id="clip1"><rect x="0" y="0" width="2196" height="1372"/></clipPath><clipPath id="clip2"><rect x="0" y="0" width="2196" height="1372"/></clipPath><clipPath id="clip3"><rect x="0" y="0" width="2196" height="1372"/></clipPath><clipPath id="clip4"><rect x="0" y="0" width="2196" height="1372"/></clipPath><clipPath id="clip5"><rect x="0" y="0" width="2196" height="1372"/></clipPath><clipPath id="clip6"><rect x="0" y="0" width="2196" height="1372"/></clipPath><clipPath id="clip7"><rect x="269" y="50" width="1859" height="1122"/></clipPath><clipPath id="clip8"><rect x="0" y="0" width="2196" height="1372"/></clipPath><clipPath id="clip9"><rect x="0" y="0" width="2196" height="1372"/></clipPath><clipPath id="clip10"><rect x="0" y="0" width="2196" height="1372"/></clipPath><clipPath id="clip11"><rect x="0" y="0" width="2196" height="1372"/></clipPath><clipPath id="clip12"><rect x="0" y="0" width="2196" height="1372"/></clipPath><clipPath id="clip13"><rect x="0" y="0" width="2196" height="1372"/></clipPath><clipPath id="clip14"><rect x="0" y="0" width="2196" height="1372"/></clipPath><clipPath id="clip15"><rect x="0" y="0" width="2196" height="1372"/></clipPath><clipPath id="clip16"><rect x="0" y="0" width="2196" height="1372"/></clipPath><clipPath id="clip17"><rect x="0" y="0" width="2196" height="1372"/></clipPath><clipPath id="clip18"><rect x="0" y="0" width="2196" height="1372"/></clipPath><clipPath id="clip19"><rect x="0" y="0" width="2196" height="1372"/></clipPath><clipPath id="clip20"><rect x="0" y="0" width="2196" height="1372"/></clipPath></defs><g clip-path="url(#clip0)" transform="translate(1 1)"><rect x="0" y="0" width="2196" height="1373" fill="#FFFFFF"/><g clip-path="url(#clip1)"><rect x="270" y="49.9998" width="1855" height="1119" fill="#FFFFFF"/></g><g clip-path="url(#clip2)"><path d="M269.5 965.532 2125.5 965.532M269.5 762.525 2125.5 762.525M269.5 558.518 2125.5 558.518M269.5 355.512 2125.5 355.512M269.5 152.5 2125.5 152.5" stroke="#D9D9D9" stroke-width="3.4375" stroke-linejoin="round" stroke-miterlimit="10" fill="none"/></g><g clip-path="url(#clip3)"><path d="M0 0 0.000360892 1119" stroke="#000000" stroke-width="6.875" stroke-linejoin="round" stroke-miterlimit="10" fill="none" fill-rule="evenodd" transform="matrix(1 0 0 -1 269.5 1169.5)"/></g><g clip-path="url(#clip4)"><path d="M256.5 1169.5 269.5 1169.5M256.5 965.532 269.5 965.532M256.5 762.525 269.5 762.525M256.5 558.518 269.5 558.518M256.5 355.512 269.5 355.512M256.5 152.5 269.5 152.5" stroke="#000000" stroke-width="6.875" stroke-linejoin="round" stroke-miterlimit="10" fill="none"/></g><g clip-path="url(#clip5)"><path d="M269.5 1169.5 2125.5 1169.5" stroke="#000000" stroke-width="6.875" stroke-linejoin="round" stroke-miterlimit="10" fill="none" fill-rule="evenodd"/></g><g clip-path="url(#clip6)"><path d="M269.5 1169.5 269.5 1182.5M728.524 1169.5 728.524 1182.5M1188.54 1169.5 1188.54 1182.5M1647.55 1169.5 1647.55 1182.5M2106.5 1169.5 2106.5 1182.5" stroke="#000000" stroke-width="6.875" stroke-linejoin="round" stroke-miterlimit="10" fill="none"/></g><g clip-path="url(#clip7)"><path d="M278.5 383.513 297.51 443.515 315.511 489.516 334.511 526.517 352.512 550.518 370.512 557.518 389.513 554.518 407.514 541.518 425.514 519.517 444.515 493.516 462.515 464.515 480.516 435.514 499.517 407.514 517.517 376.513 536.518 345.512 554.518 319.511 572.519 290.51 591.52 262.509 609.52 237.508 627.521 207.507 646.521 176.506 664.522 155.505 683.523 152.5 701.523 152.5 719.524 152.5 738.524 152.5 756.525 152.5 774.526 152.5 793.526 152.5 811.527 152.5 830.527 152.5 848.528 152.5 866.529 152.5 885.529 152.5 903.53 152.5 921.53 152.5 940.531 152.5 958.532 152.5 976.532 152.5 995.533 152.5 1013.53 152.5 1032.53 152.5 1050.53 152.5 1068.54 152.5 1087.54 152.5 1105.54 152.5 1123.54 152.5 1142.54 152.5 1160.54 152.5 1179.54 152.5 1197.54 152.5 1215.54 152.5 1234.54 152.5 1252.54 152.5 1270.54 152.5 1289.54 154.505 1307.54 170.506 1326.54 194.507 1344.54 212.507 1362.54 230.508 1381.55 245.508 1399.55 265.509 1417.55 283.509 1436.55 303.51 1454.55 319.511 1472.55 336.511 1491.55 356.512 1509.55 377.513 1528.55 399.513 1546.55 418.514 1564.55 435.514 1583.55 455.515 1601.55 473.516 1619.55 489.516 1638.55 504.517 1656.55 519.517 1675.56 537.518 1693.56 554.518 1711.56 570.519 1730.56 582.519 1748.56 596.52 1766.56 613.52 1785.56 627.521 1803.56 643.521 1822.56 657.522 1840.56 671.522 1858.56 683.523 1877.56 694.523 1895.56 708.523 1913.56 724.524 1932.56 738.524 1950.56 750.525 1968.56 761.525 1987.57 772.526 2005.57 786.526 2024.57 800.526 2042.57 812.527 2060.57 825.527 2079.57 836.528 2097.57 847.528 2116.5 859.5" stroke="#000000" stroke-width="9.16667" stroke-linecap="round" stroke-linejoin="round" stroke-miterlimit="10" fill="none"/></g><g clip-path="url(#clip8)"><text fill="#595959" font-family="Calibri,Calibri_MSFontService,sans-serif" font-weight="400" font-size="41" transform="matrix(1 0 0 1 210.581 1181)">0</text></g><g clip-path="url(#clip9)"><text fill="#595959" font-family="Calibri,Calibri_MSFontService,sans-serif" font-weight="400" font-size="41" transform="matrix(1 0 0 1 147.881 977)">2000</text></g><g clip-path="url(#clip10)"><text fill="#595959" font-family="Calibri,Calibri_MSFontService,sans-serif" font-weight="400" font-size="41" transform="matrix(1 0 0 1 147.881 774)">4000</text></g><g clip-path="url(#clip11)"><text fill="#595959" font-family="Calibri,Calibri_MSFontService,sans-serif" font-weight="400" font-size="41" transform="matrix(1 0 0 1 147.881 571)">6000</text></g><g clip-path="url(#clip12)"><text fill="#595959" font-family="Calibri,Calibri_MSFontService,sans-serif" font-weight="400" font-size="41" transform="matrix(1 0 0 1 147.881 367)">8000</text></g><g clip-path="url(#clip13)"><text fill="#595959" font-family="Calibri,Calibri_MSFontService,sans-serif" font-weight="400" font-size="41" transform="matrix(1 0 0 1 126.981 164)">10000</text></g><g clip-path="url(#clip14)"><text fill="#595959" font-family="Calibri,Calibri_MSFontService,sans-serif" font-weight="400" font-size="41" transform="matrix(1 0 0 1 247.584 1234)">315</text></g><g clip-path="url(#clip15)"><text fill="#595959" font-family="Calibri,Calibri_MSFontService,sans-serif" font-weight="400" font-size="41" transform="matrix(1 0 0 1 706.857 1234)">340</text></g><g clip-path="url(#clip16)"><text fill="#595959" font-family="Calibri,Calibri_MSFontService,sans-serif" font-weight="400" font-size="41" transform="matrix(1 0 0 1 1166.13 1234)">365</text></g><g clip-path="url(#clip17)"><text fill="#595959" font-family="Calibri,Calibri_MSFontService,sans-serif" font-weight="400" font-size="41" transform="matrix(1 0 0 1 1625.4 1234)">390</text></g><g clip-path="url(#clip18)"><text fill="#595959" font-family="Calibri,Calibri_MSFontService,sans-serif" font-weight="400" font-size="41" transform="matrix(1 0 0 1 2084.68 1234)">415</text></g><g clip-path="url(#clip19)"><text fill="#595959" font-family="Calibri,Calibri_MSFontService,sans-serif" font-weight="400" font-size="46" transform="matrix(6.12323e-17 -1 1 6.12323e-17 101.292 691)">Intensity</text></g><g clip-path="url(#clip20)"><text fill="#595959" font-family="Calibri,Calibri_MSFontService,sans-serif" font-weight="400" font-size="46" transform="matrix(1 0 0 1 1035.75 1303)">Wavelength (nm)</text></g><rect x="0" y="0" width="2196" height="1373" stroke="#898989" stroke-width="2.29167" stroke-linejoin="round" stroke-miterlimit="10" fill="none"/></g></svg>