<svg width="2184" height="1366" xmlns="http://www.w3.org/2000/svg" xmlns:xlink="http://www.w3.org/1999/xlink" overflow="hidden"><defs><clipPath id="clip0"><rect x="-1" y="-1" width="2184" height="1366"/></clipPath><clipPath id="clip1"><rect x="0" y="0" width="2181" height="1363"/></clipPath><clipPath id="clip2"><rect x="0" y="0" width="2181" height="1363"/></clipPath><clipPath id="clip3"><rect x="0" y="0" width="2181" height="1363"/></clipPath><clipPath id="clip4"><rect x="0" y="0" width="2181" height="1363"/></clipPath><clipPath id="clip5"><rect x="0" y="0" width="2181" height="1363"/></clipPath><clipPath id="clip6"><rect x="0" y="0" width="2181" height="1363"/></clipPath><clipPath id="clip7"><rect x="269" y="50" width="1844" height="1113"/></clipPath><clipPath id="clip8"><rect x="269" y="50" width="1844" height="1113"/></clipPath><clipPath id="clip9"><rect x="0" y="0" width="2181" height="1363"/></clipPath><clipPath id="clip10"><rect x="0" y="0" width="2181" height="1363"/></clipPath><clipPath id="clip11"><rect x="0" y="0" width="2181" height="1363"/></clipPath><clipPath id="clip12"><rect x="0" y="0" width="2181" height="1363"/></clipPath><clipPath id="clip13"><rect x="0" y="0" width="2181" height="1363"/></clipPath><clipPath id="clip14"><rect x="0" y="0" width="2181" height="1363"/></clipPath><clipPath id="clip15"><rect x="0" y="0" width="2181" height="1363"/></clipPath><clipPath id="clip16"><rect x="0" y="0" width="2181" height="1363"/></clipPath><clipPath id="clip17"><rect x="0" y="0" width="2181" height="1363"/></clipPath><clipPath id="clip18"><rect x="0" y="0" width="2181" height="1363"/></clipPath><clipPath id="clip19"><rect x="0" y="0" width="2181" height="1363"/></clipPath><clipPath id="clip20"><rect x="0" y="0" width="2181" height="1363"/></clipPath><clipPath id="clip21"><rect x="0" y="0" width="2181" height="1363"/></clipPath></defs><g clip-path="url(#clip0)" transform="translate(1 1)"><rect x="0" y="0" width="2182" height="1364" fill="#FFFFFF"/><g clip-path="url(#clip1)"><rect x="270" y="49.9998" width="1840" height="1110" fill="#FFFFFF"/></g><g clip-path="url(#clip2)"><path d="M269.5 958.532 2110.5 958.532M269.5 756.525 2110.5 756.525M269.5 554.518 2110.5 554.518M269.5 353.512 2110.5 353.512M269.5 151.5 2110.5 151.5" stroke="#D9D9D9" stroke-width="3.4375" stroke-linejoin="round" stroke-miterlimit="10" fill="none"/></g><g clip-path="url(#clip3)"><path d="M0 0 0.000360892 1110" stroke="#000000" stroke-width="6.875" stroke-linejoin="round" stroke-miterlimit="10" fill="none" fill-rule="evenodd" transform="matrix(1 0 0 -1 269.5 1160.5)"/></g><g clip-path="url(#clip4)"><path d="M256.5 1160.5 269.5 1160.5M256.5 958.532 269.5 958.532M256.5 756.525 269.5 756.525M256.5 554.518 269.5 554.518M256.5 353.512 269.5 353.512M256.5 151.5 269.5 151.5" stroke="#000000" stroke-width="6.875" stroke-linejoin="round" stroke-miterlimit="10" fill="none"/></g><g clip-path="url(#clip5)"><path d="M269.5 1160.5 2110.5 1160.5" stroke="#000000" stroke-width="6.875" stroke-linejoin="round" stroke-miterlimit="10" fill="none" fill-rule="evenodd"/></g><g clip-path="url(#clip6)"><path d="M269.5 1160.5 269.5 1173.5M725.524 1160.5 725.524 1173.5M1180.54 1160.5 1180.54 1173.5M1636.55 1160.5 1636.55 1173.5M2092.5 1160.5 2092.5 1173.5" stroke="#000000" stroke-width="6.875" stroke-linejoin="round" stroke-miterlimit="10" fill="none"/></g><g clip-path="url(#clip7)"><path d="M278.5 1101.54 297.51 1104.54 315.511 1108.54 333.511 1110.54 351.512 1112.54 369.512 1112.54 388.513 1112.54 406.514 1111.54 424.514 1109.54 442.515 1107.54 461.515 1105.54 479.516 1103.54 497.517 1101.54 515.517 1098.54 533.518 1096.54 552.518 1093.54 570.519 1090.54 588.52 1088.54 606.52 1086.54 625.521 1083.54 643.521 1081.54 661.522 1079.54 679.522 1077.54 698.523 1075.54 716.524 1073.54 734.524 1072.54 752.525 1071.54 770.525 1069.54 789.526 1068.54 807.527 1067.54 825.527 1066.54 843.528 1066.54 862.529 1065.54 880.529 1064.54 898.53 1064.54 916.53 1063.54 934.531 1063.5 953.531 1063.54 971.532 1063.54 989.533 1064.54 1007.53 1064.54 1026.53 1064.54 1044.53 1065.54 1062.54 1065.54 1080.54 1066.54 1098.54 1067.54 1117.54 1068.54 1135.54 1069.54 1153.54 1071.54 1171.54 1072.54 1190.54 1073.54 1208.54 1074.54 1226.54 1075.54 1244.54 1076.54 1262.54 1077.54 1281.54 1079.54 1299.54 1080.54 1317.54 1082.54 1335.54 1083.54 1354.54 1085.54 1372.55 1086.54 1390.55 1088.54 1408.55 1089.54 1426.55 1091.54 1445.55 1093.54 1463.55 1094.54 1481.55 1096.54 1499.55 1097.54 1518.55 1098.54 1536.55 1100.54 1554.55 1102.54 1572.55 1103.54 1591.55 1105.54 1609.55 1106.54 1627.55 1107.54 1645.55 1108.54 1663.55 1110.54 1682.56 1112.54 1700.56 1113.54 1718.56 1114.54 1736.56 1115.54 1755.56 1116.54 1773.56 1117.54 1791.56 1119.54 1809.56 1120.54 1827.56 1121.54 1846.56 1122.54 1864.56 1123.54 1882.56 1124.54 1900.56 1125.54 1919.56 1126.54 1937.56 1127.54 1955.56 1128.54 1973.56 1129.54 1991.57 1129.54 2010.57 1130.54 2028.57 1131.54 2046.57 1132.54 2064.57 1133.54 2083.57 1134.54 2101.5 1135.5" stroke="#ED7D31" stroke-width="6.875" stroke-linecap="round" stroke-linejoin="round" stroke-miterlimit="10" fill="none"/></g><g clip-path="url(#clip8)"><path d="M278.5 1101.54 297.51 1104.54 315.511 1108.54 333.511 1110.54 351.512 1112.54 369.512 1112.54 388.513 1112.54 406.514 1111.54 424.514 1109.54 442.515 1107.54 461.515 1105.54 479.516 1103.54 497.517 1101.54 515.517 1098.54 533.518 1096.54 552.518 1093.54 570.519 1090.54 588.52 1088.54 606.52 1086.54 625.521 1083.54 643.521 1081.54 661.522 1079.54 679.522 1077.54 698.523 1075.54 716.524 1073.54 734.524 1072.54 752.525 1071.54 770.525 1069.54 789.526 1068.54 807.527 1067.54 825.527 1066.54 843.528 1066.54 862.529 1065.54 880.529 1064.54 898.53 1064.54 916.53 1063.54 934.531 1063.5 953.531 1063.54 971.532 1063.54 989.533 1064.54 1007.53 1064.54 1026.53 1064.54 1044.53 1065.54 1062.54 1065.54 1080.54 1066.54 1098.54 1067.54 1117.54 1068.54 1135.54 1069.54 1153.54 1071.54 1171.54 1072.54 1190.54 1073.54 1208.54 1074.54 1226.54 1075.54 1244.54 1076.54 1262.54 1077.54 1281.54 1079.54 1299.54 1080.54 1317.54 1082.54 1335.54 1083.54 1354.54 1085.54 1372.55 1086.54 1390.55 1088.54 1408.55 1089.54 1426.55 1091.54 1445.55 1093.54 1463.55 1094.54 1481.55 1096.54 1499.55 1097.54 1518.55 1098.54 1536.55 1100.54 1554.55 1102.54 1572.55 1103.54 1591.55 1105.54 1609.55 1106.54 1627.55 1107.54 1645.55 1108.54 1663.55 1110.54 1682.56 1112.54 1700.56 1113.54 1718.56 1114.54 1736.56 1115.54 1755.56 1116.54 1773.56 1117.54 1791.56 1119.54 1809.56 1120.54 1827.56 1121.54 1846.56 1122.54 1864.56 1123.54 1882.56 1124.54 1900.56 1125.54 1919.56 1126.54 1937.56 1127.54 1955.56 1128.54 1973.56 1129.54 1991.57 1129.54 2010.57 1130.54 2028.57 1131.54 2046.57 1132.54 2064.57 1133.54 2083.57 1134.54 2101.5 1135.5" stroke="#000000" stroke-width="9.16667" stroke-linecap="round" stroke-linejoin="round" stroke-miterlimit="10" fill="none"/></g><g clip-path="url(#clip9)"><text fill="#595959" font-family="Calibri,Calibri_MSFontService,sans-serif" font-weight="400" font-size="41" transform="matrix(1 0 0 1 210.581 1172)">0</text></g><g clip-path="url(#clip10)"><text fill="#595959" font-family="Calibri,Calibri_MSFontService,sans-serif" font-weight="400" font-size="41" transform="matrix(1 0 0 1 147.881 970)">2000</text></g><g clip-path="url(#clip11)"><text fill="#595959" font-family="Calibri,Calibri_MSFontService,sans-serif" font-weight="400" font-size="41" transform="matrix(1 0 0 1 147.881 768)">4000</text></g><g clip-path="url(#clip12)"><text fill="#595959" font-family="Calibri,Calibri_MSFontService,sans-serif" font-weight="400" font-size="41" transform="matrix(1 0 0 1 147.881 566)">6000</text></g><g clip-path="url(#clip13)"><text fill="#595959" font-family="Calibri,Calibri_MSFontService,sans-serif" font-weight="400" font-size="41" transform="matrix(1 0 0 1 147.881 365)">8000</text></g><g clip-path="url(#clip14)"><text fill="#595959" font-family="Calibri,Calibri_MSFontService,sans-serif" font-weight="400" font-size="41" transform="matrix(1 0 0 1 126.981 163)">10000</text></g><g clip-path="url(#clip15)"><text fill="#595959" font-family="Calibri,Calibri_MSFontService,sans-serif" font-weight="400" font-size="41" transform="matrix(1 0 0 1 247.511 1225)">315</text></g><g clip-path="url(#clip16)"><text fill="#595959" font-family="Calibri,Calibri_MSFontService,sans-serif" font-weight="400" font-size="41" transform="matrix(1 0 0 1 703.136 1225)">340</text></g><g clip-path="url(#clip17)"><text fill="#595959" font-family="Calibri,Calibri_MSFontService,sans-serif" font-weight="400" font-size="41" transform="matrix(1 0 0 1 1158.76 1225)">365</text></g><g clip-path="url(#clip18)"><text fill="#595959" font-family="Calibri,Calibri_MSFontService,sans-serif" font-weight="400" font-size="41" transform="matrix(1 0 0 1 1614.39 1225)">390</text></g><g clip-path="url(#clip19)"><text fill="#595959" font-family="Calibri,Calibri_MSFontService,sans-serif" font-weight="400" font-size="41" transform="matrix(1 0 0 1 2070.01 1225)">415</text></g><g clip-path="url(#clip20)"><text fill="#595959" font-family="Calibri,Calibri_MSFontService,sans-serif" font-weight="400" font-size="46" transform="matrix(6.12323e-17 -1 1 6.12323e-17 101.292 686)">Intensity</text></g><g clip-path="url(#clip21)"><text fill="#595959" font-family="Calibri,Calibri_MSFontService,sans-serif" font-weight="400" font-size="46" transform="matrix(1 0 0 1 1028.38 1294)">Wavelength (nm)</text></g><rect x="0" y="0" width="2182" height="1364" stroke="#898989" stroke-width="2.29167" stroke-linejoin="round" stroke-miterlimit="10" fill="none"/></g></svg>