<svg width="2142" height="1339" xmlns="http://www.w3.org/2000/svg" xmlns:xlink="http://www.w3.org/1999/xlink" overflow="hidden"><defs><clipPath id="clip0"><rect x="-1" y="-1" width="2142" height="1339"/></clipPath><clipPath id="clip1"><rect x="0" y="0" width="2139" height="1337"/></clipPath><clipPath id="clip2"><rect x="0" y="0" width="2139" height="1337"/></clipPath><clipPath id="clip3"><rect x="0" y="0" width="2139" height="1337"/></clipPath><clipPath id="clip4"><rect x="0" y="0" width="2139" height="1337"/></clipPath><clipPath id="clip5"><rect x="0" y="0" width="2139" height="1337"/></clipPath><clipPath id="clip6"><rect x="0" y="0" width="2139" height="1337"/></clipPath><clipPath id="clip7"><rect x="248" y="50" width="1823" height="1087"/></clipPath><clipPath id="clip8"><rect x="0" y="0" width="2139" height="1337"/></clipPath><clipPath id="clip9"><rect x="0" y="0" width="2139" height="1337"/></clipPath><clipPath id="clip10"><rect x="0" y="0" width="2139" height="1337"/></clipPath><clipPath id="clip11"><rect x="0" y="0" width="2139" height="1337"/></clipPath><clipPath id="clip12"><rect x="0" y="0" width="2139" height="1337"/></clipPath><clipPath id="clip13"><rect x="0" y="0" width="2139" height="1337"/></clipPath><clipPath id="clip14"><rect x="0" y="0" width="2139" height="1337"/></clipPath><clipPath id="clip15"><rect x="0" y="0" width="2139" height="1337"/></clipPath><clipPath id="clip16"><rect x="0" y="0" width="2139" height="1337"/></clipPath><clipPath id="clip17"><rect x="0" y="0" width="2139" height="1337"/></clipPath></defs><g clip-path="url(#clip0)" transform="translate(1 1)"><rect x="0" y="0" width="2140" height="1337" fill="#FFFFFF"/><g clip-path="url(#clip1)"><rect x="249" y="49.9998" width="1820" height="1084" fill="#FFFFFF"/></g><g clip-path="url(#clip2)"><path d="M248.5 592.52 2068.5 592.52M248.5 50.5 2068.5 50.5" stroke="#D9D9D9" stroke-width="3.4375" stroke-linejoin="round" stroke-miterlimit="10" fill="none"/></g><g clip-path="url(#clip3)"><path d="M0 0 0.000360892 1083" stroke="#000000" stroke-width="6.875" stroke-linejoin="round" stroke-miterlimit="10" fill="none" fill-rule="evenodd" transform="matrix(1 0 0 -1 248.5 1133.5)"/></g><g clip-path="url(#clip4)"><path d="M235.5 1133.5 248.5 1133.5M235.5 592.52 248.5 592.52M235.5 50.5 248.5 50.5" stroke="#000000" stroke-width="6.875" stroke-linejoin="round" stroke-miterlimit="10" fill="none"/></g><g clip-path="url(#clip5)"><path d="M248.5 1133.5 2068.5 1133.5" stroke="#000000" stroke-width="6.875" stroke-linejoin="round" stroke-miterlimit="10" fill="none" fill-rule="evenodd"/></g><g clip-path="url(#clip6)"><path d="M248.5 1133.5 248.5 1146.5M699.523 1133.5 699.523 1146.5M1149.54 1133.5 1149.54 1146.5M1600.55 1133.5 1600.55 1146.5M2050.5 1133.5 2050.5 1146.5" stroke="#000000" stroke-width="6.875" stroke-linejoin="round" stroke-miterlimit="10" fill="none"/></g><g clip-path="url(#clip7)"><path d="M257.5 501.517 275.509 540.518 293.51 578.519 311.51 605.52 329.511 621.521 347.512 626.521 365.512 620.521 383.513 610.52 401.513 595.52 419.514 573.519 438.515 550.518 456.515 524.517 474.516 501.517 492.516 477.516 510.517 449.515 528.518 420.514 546.518 391.513 564.519 366.512 582.519 340.511 600.52 317.511 618.521 292.51 636.521 272.509 654.522 250.508 672.522 228.508 690.523 209.507 708.523 192.507 726.524 180.506 744.525 162.506 762.525 150.505 780.526 140.505 798.526 132.505 816.527 126.504 834.528 115.504 852.528 108.504 870.529 102.504 888.529 101.504 906.53 95.5001 924.531 99.5034 942.531 99.5034 960.532 103.504 978.532 104.504 996.533 110.504 1014.53 113.504 1032.53 119.504 1050.53 131.505 1068.54 141.505 1086.54 153.505 1104.54 165.506 1122.54 178.506 1140.54 190.506 1158.54 202.507 1176.54 211.507 1194.54 225.508 1212.54 237.508 1230.54 252.508 1248.54 269.509 1266.54 284.51 1284.54 303.51 1302.54 317.511 1320.54 335.511 1338.54 349.512 1356.54 364.512 1374.55 380.513 1392.55 401.513 1410.55 419.514 1428.55 433.514 1446.55 448.515 1464.55 462.515 1482.55 477.516 1500.55 497.517 1518.55 513.517 1537.55 531.518 1555.55 543.518 1573.55 556.518 1591.55 569.519 1609.55 584.519 1627.55 603.52 1645.55 619.521 1663.55 632.521 1681.56 642.521 1699.56 653.522 1717.56 667.522 1735.56 681.523 1753.56 693.523 1771.56 705.523 1789.56 718.524 1807.56 729.524 1825.56 742.525 1843.56 749.525 1861.56 759.525 1879.56 771.526 1897.56 782.526 1915.56 793.526 1933.56 801.526 1951.56 810.527 1969.56 820.527 1987.57 832.527 2005.57 843.528 2023.57 853.528 2041.57 864.529 2059.5 873.5" stroke="#000000" stroke-width="9.16667" stroke-linecap="round" stroke-linejoin="round" stroke-miterlimit="10" fill="none"/></g><g clip-path="url(#clip8)"><text fill="#595959" font-family="Calibri,Calibri_MSFontService,sans-serif" font-weight="400" font-size="41" transform="matrix(1 0 0 1 189.681 1145)">0</text></g><g clip-path="url(#clip9)"><text fill="#595959" font-family="Calibri,Calibri_MSFontService,sans-serif" font-weight="400" font-size="41" transform="matrix(1 0 0 1 147.881 604)">500</text></g><g clip-path="url(#clip10)"><text fill="#595959" font-family="Calibri,Calibri_MSFontService,sans-serif" font-weight="400" font-size="41" transform="matrix(1 0 0 1 126.981 62)">1000</text></g><g clip-path="url(#clip11)"><text fill="#595959" font-family="Calibri,Calibri_MSFontService,sans-serif" font-weight="400" font-size="41" transform="matrix(1 0 0 1 226.507 1199)">315</text></g><g clip-path="url(#clip12)"><text fill="#595959" font-family="Calibri,Calibri_MSFontService,sans-serif" font-weight="400" font-size="41" transform="matrix(1 0 0 1 676.93 1199)">340</text></g><g clip-path="url(#clip13)"><text fill="#595959" font-family="Calibri,Calibri_MSFontService,sans-serif" font-weight="400" font-size="41" transform="matrix(1 0 0 1 1127.35 1199)">365</text></g><g clip-path="url(#clip14)"><text fill="#595959" font-family="Calibri,Calibri_MSFontService,sans-serif" font-weight="400" font-size="41" transform="matrix(1 0 0 1 1577.78 1199)">390</text></g><g clip-path="url(#clip15)"><text fill="#595959" font-family="Calibri,Calibri_MSFontService,sans-serif" font-weight="400" font-size="41" transform="matrix(1 0 0 1 2028.2 1199)">415</text></g><g clip-path="url(#clip16)"><text fill="#595959" font-family="Calibri,Calibri_MSFontService,sans-serif" font-weight="400" font-size="46" transform="matrix(6.12323e-17 -1 1 6.12323e-17 101.292 673)">Intensity</text></g><g clip-path="url(#clip17)"><text fill="#595959" font-family="Calibri,Calibri_MSFontService,sans-serif" font-weight="400" font-size="46" transform="matrix(1 0 0 1 996.969 1268)">Wavelength (nm)</text></g><rect x="0" y="0" width="2140" height="1337" stroke="#898989" stroke-width="2.29167" stroke-linejoin="round" stroke-miterlimit="10" fill="none"/></g></svg>