<svg width="2122" height="1337" xmlns="http://www.w3.org/2000/svg" xmlns:xlink="http://www.w3.org/1999/xlink" overflow="hidden"><defs><clipPath id="clip0"><rect x="-1" y="-1" width="2122" height="1337"/></clipPath><clipPath id="clip1"><rect x="0" y="0" width="2119" height="1334"/></clipPath><clipPath id="clip2"><rect x="0" y="0" width="2119" height="1334"/></clipPath><clipPath id="clip3"><rect x="0" y="0" width="2119" height="1334"/></clipPath><clipPath id="clip4"><rect x="0" y="0" width="2119" height="1334"/></clipPath><clipPath id="clip5"><rect x="0" y="0" width="2119" height="1334"/></clipPath><clipPath id="clip6"><rect x="0" y="0" width="2119" height="1334"/></clipPath><clipPath id="clip7"><rect x="248" y="50" width="1803" height="1084"/></clipPath><clipPath id="clip8"><rect x="0" y="0" width="2119" height="1334"/></clipPath><clipPath id="clip9"><rect x="0" y="0" width="2119" height="1334"/></clipPath><clipPath id="clip10"><rect x="0" y="0" width="2119" height="1334"/></clipPath><clipPath id="clip11"><rect x="0" y="0" width="2119" height="1334"/></clipPath><clipPath id="clip12"><rect x="0" y="0" width="2119" height="1334"/></clipPath><clipPath id="clip13"><rect x="0" y="0" width="2119" height="1334"/></clipPath><clipPath id="clip14"><rect x="0" y="0" width="2119" height="1334"/></clipPath><clipPath id="clip15"><rect x="0" y="0" width="2119" height="1334"/></clipPath><clipPath id="clip16"><rect x="0" y="0" width="2119" height="1334"/></clipPath><clipPath id="clip17"><rect x="0" y="0" width="2119" height="1334"/></clipPath></defs><g clip-path="url(#clip0)" transform="translate(1 1)"><rect x="0" y="0" width="2120" height="1335" fill="#FFFFFF"/><g clip-path="url(#clip1)"><rect x="249" y="49.9998" width="1799" height="1081" fill="#FFFFFF"/></g><g clip-path="url(#clip2)"><path d="M248.5 590.52 2048.5 590.52M248.5 50.5 2048.5 50.5" stroke="#D9D9D9" stroke-width="3.4375" stroke-linejoin="round" stroke-miterlimit="10" fill="none"/></g><g clip-path="url(#clip3)"><path d="M0 0 0.000360892 1081" stroke="#000000" stroke-width="6.875" stroke-linejoin="round" stroke-miterlimit="10" fill="none" fill-rule="evenodd" transform="matrix(1 0 0 -1 248.5 1131.5)"/></g><g clip-path="url(#clip4)"><path d="M235.5 1131.5 248.5 1131.5M235.5 590.52 248.5 590.52M235.5 50.5 248.5 50.5" stroke="#000000" stroke-width="6.875" stroke-linejoin="round" stroke-miterlimit="10" fill="none"/></g><g clip-path="url(#clip5)"><path d="M248.5 1131.5 2048.5 1131.5" stroke="#000000" stroke-width="6.875" stroke-linejoin="round" stroke-miterlimit="10" fill="none" fill-rule="evenodd"/></g><g clip-path="url(#clip6)"><path d="M248.5 1131.5 248.5 1144.5M694.523 1131.5 694.523 1144.5M1139.54 1131.5 1139.54 1144.5M1585.55 1131.5 1585.55 1144.5M2030.5 1131.5 2030.5 1144.5" stroke="#000000" stroke-width="6.875" stroke-linejoin="round" stroke-miterlimit="10" fill="none"/></g><g clip-path="url(#clip7)"><path d="M257.5 968.532 275.509 983.532 293.51 994.533 311.51 1002.53 329.511 1007.53 346.512 1011.53 364.512 1010.53 382.513 1007.53 400.513 1004.53 418.514 995.533 435.514 989.533 453.515 984.532 471.516 975.532 489.516 969.532 507.517 963.532 524.517 959.532 542.518 957.532 560.519 949.531 578.519 942.531 596.52 936.531 614.52 930.531 631.521 925.531 649.521 919.53 667.522 914.53 685.523 911.53 703.523 908.53 720.524 903.53 738.524 899.53 756.525 896.53 774.526 892.529 792.526 891.529 810.527 887.529 827.527 889.529 845.528 886.529 863.529 879.529 881.529 879.5 899.53 879.529 916.53 880.529 934.531 883.529 952.531 880.529 970.532 880.529 988.533 887.529 1006.53 887.529 1023.53 892.529 1041.53 890.529 1059.53 891.529 1077.54 894.53 1095.54 898.53 1112.54 902.53 1130.54 907.53 1148.54 909.53 1166.54 912.53 1184.54 914.53 1201.54 916.53 1219.54 922.53 1237.54 926.531 1255.54 928.531 1273.54 931.531 1291.54 937.531 1308.54 941.531 1326.54 946.531 1344.54 950.531 1362.54 952.531 1380.55 957.532 1397.55 960.532 1415.55 963.532 1433.55 967.532 1451.55 970.532 1469.55 975.532 1487.55 978.532 1504.55 980.532 1522.55 983.532 1540.55 988.533 1558.55 992.533 1576.55 996.533 1593.55 1000.53 1611.55 1003.53 1629.55 1006.53 1647.55 1012.53 1665.55 1013.53 1683.56 1015.53 1700.56 1016.53 1718.56 1019.53 1736.56 1023.53 1754.56 1028.53 1772.56 1031.53 1789.56 1034.53 1807.56 1036.53 1825.56 1040.53 1843.56 1041.53 1861.56 1042.53 1878.56 1043.53 1896.56 1047.53 1914.56 1050.53 1932.56 1052.53 1950.56 1053.53 1968.56 1056.53 1985.57 1058.53 2003.57 1061.54 2021.57 1063.54 2039.5 1066.5" stroke="#000000" stroke-width="9.16667" stroke-linecap="round" stroke-linejoin="round" stroke-miterlimit="10" fill="none"/></g><g clip-path="url(#clip8)"><text fill="#595959" font-family="Calibri,Calibri_MSFontService,sans-serif" font-weight="400" font-size="41" transform="matrix(1 0 0 1 189.681 1143)">0</text></g><g clip-path="url(#clip9)"><text fill="#595959" font-family="Calibri,Calibri_MSFontService,sans-serif" font-weight="400" font-size="41" transform="matrix(1 0 0 1 147.881 602)">500</text></g><g clip-path="url(#clip10)"><text fill="#595959" font-family="Calibri,Calibri_MSFontService,sans-serif" font-weight="400" font-size="41" transform="matrix(1 0 0 1 126.981 62)">1000</text></g><g clip-path="url(#clip11)"><text fill="#595959" font-family="Calibri,Calibri_MSFontService,sans-serif" font-weight="400" font-size="41" transform="matrix(1 0 0 1 226.407 1197)">315</text></g><g clip-path="url(#clip12)"><text fill="#595959" font-family="Calibri,Calibri_MSFontService,sans-serif" font-weight="400" font-size="41" transform="matrix(1 0 0 1 671.813 1197)">340</text></g><g clip-path="url(#clip13)"><text fill="#595959" font-family="Calibri,Calibri_MSFontService,sans-serif" font-weight="400" font-size="41" transform="matrix(1 0 0 1 1117.22 1197)">365</text></g><g clip-path="url(#clip14)"><text fill="#595959" font-family="Calibri,Calibri_MSFontService,sans-serif" font-weight="400" font-size="41" transform="matrix(1 0 0 1 1562.63 1197)">390</text></g><g clip-path="url(#clip15)"><text fill="#595959" font-family="Calibri,Calibri_MSFontService,sans-serif" font-weight="400" font-size="41" transform="matrix(1 0 0 1 2008.03 1197)">415</text></g><g clip-path="url(#clip16)"><text fill="#595959" font-family="Calibri,Calibri_MSFontService,sans-serif" font-weight="400" font-size="46" transform="matrix(6.12323e-17 -1 1 6.12323e-17 101.292 672)">Intensity</text></g><g clip-path="url(#clip17)"><text fill="#595959" font-family="Calibri,Calibri_MSFontService,sans-serif" font-weight="400" font-size="46" transform="matrix(1 0 0 1 986.836 1266)">Wavelength (nm)</text></g><rect x="0" y="0" width="2120" height="1335" stroke="#898989" stroke-width="2.29167" stroke-linejoin="round" stroke-miterlimit="10" fill="none"/></g></svg>