<svg width="2197" height="1374" xmlns="http://www.w3.org/2000/svg" xmlns:xlink="http://www.w3.org/1999/xlink" overflow="hidden"><defs><clipPath id="clip0"><rect x="-1" y="-1" width="2197" height="1374"/></clipPath><clipPath id="clip1"><rect x="0" y="0" width="2195" height="1372"/></clipPath><clipPath id="clip2"><rect x="0" y="0" width="2195" height="1372"/></clipPath><clipPath id="clip3"><rect x="0" y="0" width="2195" height="1372"/></clipPath><clipPath id="clip4"><rect x="0" y="0" width="2195" height="1372"/></clipPath><clipPath id="clip5"><rect x="0" y="0" width="2195" height="1372"/></clipPath><clipPath id="clip6"><rect x="0" y="0" width="2195" height="1372"/></clipPath><clipPath id="clip7"><rect x="269" y="50" width="1858" height="1121"/></clipPath><clipPath id="clip8"><rect x="0" y="0" width="2195" height="1372"/></clipPath><clipPath id="clip9"><rect x="0" y="0" width="2195" height="1372"/></clipPath><clipPath id="clip10"><rect x="0" y="0" width="2195" height="1372"/></clipPath><clipPath id="clip11"><rect x="0" y="0" width="2195" height="1372"/></clipPath><clipPath id="clip12"><rect x="0" y="0" width="2195" height="1372"/></clipPath><clipPath id="clip13"><rect x="0" y="0" width="2195" height="1372"/></clipPath><clipPath id="clip14"><rect x="0" y="0" width="2195" height="1372"/></clipPath><clipPath id="clip15"><rect x="0" y="0" width="2195" height="1372"/></clipPath><clipPath id="clip16"><rect x="0" y="0" width="2195" height="1372"/></clipPath><clipPath id="clip17"><rect x="0" y="0" width="2195" height="1372"/></clipPath><clipPath id="clip18"><rect x="0" y="0" width="2195" height="1372"/></clipPath><clipPath id="clip19"><rect x="0" y="0" width="2195" height="1372"/></clipPath><clipPath id="clip20"><rect x="0" y="0" width="2195" height="1372"/></clipPath></defs><g clip-path="url(#clip0)" transform="translate(1 1)"><rect x="0" y="0" width="2195" height="1372" fill="#FFFFFF"/><g clip-path="url(#clip1)"><rect x="270" y="49.9998" width="1854" height="1119" fill="#FFFFFF"/></g><g clip-path="url(#clip2)"><path d="M269.5 965.532 2124.5 965.532M269.5 761.525 2124.5 761.525M269.5 558.518 2124.5 558.518M269.5 355.512 2124.5 355.512M269.5 152.5 2124.5 152.5" stroke="#D9D9D9" stroke-width="3.4375" stroke-linejoin="round" stroke-miterlimit="10" fill="none"/></g><g clip-path="url(#clip3)"><path d="M0 0 0.000360892 1118" stroke="#000000" stroke-width="6.875" stroke-linejoin="round" stroke-miterlimit="10" fill="none" fill-rule="evenodd" transform="matrix(1 0 0 -1 269.5 1168.5)"/></g><g clip-path="url(#clip4)"><path d="M256.5 1168.5 269.5 1168.5M256.5 965.532 269.5 965.532M256.5 761.525 269.5 761.525M256.5 558.518 269.5 558.518M256.5 355.512 269.5 355.512M256.5 152.5 269.5 152.5" stroke="#000000" stroke-width="6.875" stroke-linejoin="round" stroke-miterlimit="10" fill="none"/></g><g clip-path="url(#clip5)"><path d="M269.5 1168.5 2124.5 1168.5" stroke="#000000" stroke-width="6.875" stroke-linejoin="round" stroke-miterlimit="10" fill="none" fill-rule="evenodd"/></g><g clip-path="url(#clip6)"><path d="M269.5 1168.5 269.5 1181.5M728.524 1168.5 728.524 1181.5M1187.54 1168.5 1187.54 1181.5M1646.55 1168.5 1646.55 1181.5M2105.5 1168.5 2105.5 1181.5" stroke="#000000" stroke-width="6.875" stroke-linejoin="round" stroke-miterlimit="10" fill="none"/></g><g clip-path="url(#clip7)"><path d="M278.5 1164.54 297.51 1164.54 315.511 1164.54 334.511 1165.54 352.512 1165.54 370.512 1165.54 389.513 1165.54 407.514 1165.54 425.514 1165.54 444.515 1165.54 462.515 1164.54 480.516 1164.54 499.517 1164.54 517.517 1164.54 535.518 1164.54 554.518 1164.54 572.519 1163.54 591.52 1163.54 609.52 1163.54 627.521 1163.54 646.521 1163.54 664.522 1163.54 682.523 1163.54 701.523 1163.54 719.524 1162.54 737.524 1162.54 756.525 1162.54 774.526 1162.54 793.526 1162.54 811.527 1162.54 829.527 1162.54 848.528 1162.54 866.529 1162.54 884.529 1162.54 903.53 1162.54 921.53 1162.54 939.531 1162.5 958.532 1162.54 976.532 1162.54 995.533 1162.54 1013.53 1162.54 1031.53 1162.54 1050.53 1162.54 1068.54 1162.54 1086.54 1162.54 1105.54 1162.54 1123.54 1162.54 1141.54 1162.54 1160.54 1162.54 1178.54 1162.54 1196.54 1162.54 1215.54 1162.54 1233.54 1162.54 1252.54 1163.54 1270.54 1163.54 1288.54 1163.54 1307.54 1163.54 1325.54 1163.54 1343.54 1163.54 1362.54 1163.54 1380.55 1163.54 1398.55 1163.54 1417.55 1163.54 1435.55 1163.54 1454.55 1164.54 1472.55 1164.54 1490.55 1164.54 1509.55 1164.54 1527.55 1164.54 1545.55 1164.54 1564.55 1164.54 1582.55 1164.54 1600.55 1164.54 1619.55 1164.54 1637.55 1165.54 1656.55 1165.54 1674.56 1165.54 1692.56 1165.54 1711.56 1165.54 1729.56 1165.54 1747.56 1165.54 1766.56 1165.54 1784.56 1165.54 1802.56 1165.54 1821.56 1165.54 1839.56 1165.54 1857.56 1165.54 1876.56 1166.54 1894.56 1166.54 1913.56 1166.54 1931.56 1166.54 1949.56 1166.54 1968.56 1166.54 1986.57 1166.54 2004.57 1166.54 2023.57 1166.54 2041.57 1166.54 2059.57 1166.54 2078.57 1166.54 2096.57 1166.54 2115.5 1166.5" stroke="#000000" stroke-width="9.16667" stroke-linecap="round" stroke-linejoin="round" stroke-miterlimit="10" fill="none"/></g><g clip-path="url(#clip8)"><text fill="#595959" font-family="Calibri,Calibri_MSFontService,sans-serif" font-weight="400" font-size="41" transform="matrix(1 0 0 1 210.581 1180)">0</text></g><g clip-path="url(#clip9)"><text fill="#595959" font-family="Calibri,Calibri_MSFontService,sans-serif" font-weight="400" font-size="41" transform="matrix(1 0 0 1 147.881 977)">2000</text></g><g clip-path="url(#clip10)"><text fill="#595959" font-family="Calibri,Calibri_MSFontService,sans-serif" font-weight="400" font-size="41" transform="matrix(1 0 0 1 147.881 773)">4000</text></g><g clip-path="url(#clip11)"><text fill="#595959" font-family="Calibri,Calibri_MSFontService,sans-serif" font-weight="400" font-size="41" transform="matrix(1 0 0 1 147.881 570)">6000</text></g><g clip-path="url(#clip12)"><text fill="#595959" font-family="Calibri,Calibri_MSFontService,sans-serif" font-weight="400" font-size="41" transform="matrix(1 0 0 1 147.881 367)">8000</text></g><g clip-path="url(#clip13)"><text fill="#595959" font-family="Calibri,Calibri_MSFontService,sans-serif" font-weight="400" font-size="41" transform="matrix(1 0 0 1 126.981 164)">10000</text></g><g clip-path="url(#clip14)"><text fill="#595959" font-family="Calibri,Calibri_MSFontService,sans-serif" font-weight="400" font-size="41" transform="matrix(1 0 0 1 247.579 1234)">315</text></g><g clip-path="url(#clip15)"><text fill="#595959" font-family="Calibri,Calibri_MSFontService,sans-serif" font-weight="400" font-size="41" transform="matrix(1 0 0 1 706.624 1234)">340</text></g><g clip-path="url(#clip16)"><text fill="#595959" font-family="Calibri,Calibri_MSFontService,sans-serif" font-weight="400" font-size="41" transform="matrix(1 0 0 1 1165.67 1234)">365</text></g><g clip-path="url(#clip17)"><text fill="#595959" font-family="Calibri,Calibri_MSFontService,sans-serif" font-weight="400" font-size="41" transform="matrix(1 0 0 1 1624.72 1234)">390</text></g><g clip-path="url(#clip18)"><text fill="#595959" font-family="Calibri,Calibri_MSFontService,sans-serif" font-weight="400" font-size="41" transform="matrix(1 0 0 1 2083.76 1234)">415</text></g><g clip-path="url(#clip19)"><text fill="#595959" font-family="Calibri,Calibri_MSFontService,sans-serif" font-weight="400" font-size="46" transform="matrix(6.12323e-17 -1 1 6.12323e-17 101.292 691)">Intensity</text></g><g clip-path="url(#clip20)"><text fill="#595959" font-family="Calibri,Calibri_MSFontService,sans-serif" font-weight="400" font-size="46" transform="matrix(1 0 0 1 1035.29 1303)">Wavelength (nm)</text></g><rect x="0" y="0" width="2195" height="1372" stroke="#898989" stroke-width="2.29167" stroke-linejoin="round" stroke-miterlimit="10" fill="none"/></g></svg>