<svg width="2037" height="1404" xmlns="http://www.w3.org/2000/svg" xmlns:xlink="http://www.w3.org/1999/xlink" overflow="hidden"><defs><clipPath id="clip0"><rect x="-1" y="-1" width="2037" height="1404"/></clipPath><clipPath id="clip1"><rect x="0" y="0" width="2035" height="1402"/></clipPath><clipPath id="clip2"><rect x="0" y="0" width="2035" height="1402"/></clipPath><clipPath id="clip3"><rect x="0" y="0" width="2035" height="1402"/></clipPath><clipPath id="clip4"><rect x="0" y="0" width="2035" height="1402"/></clipPath><clipPath id="clip5"><rect x="0" y="0" width="2035" height="1402"/></clipPath><clipPath id="clip6"><rect x="0" y="0" width="2035" height="1402"/></clipPath><clipPath id="clip7"><rect x="248" y="50" width="1718" height="1152"/></clipPath><clipPath id="clip8"><rect x="0" y="0" width="2035" height="1402"/></clipPath><clipPath id="clip9"><rect x="0" y="0" width="2035" height="1402"/></clipPath><clipPath id="clip10"><rect x="0" y="0" width="2035" height="1402"/></clipPath><clipPath id="clip11"><rect x="0" y="0" width="2035" height="1402"/></clipPath><clipPath id="clip12"><rect x="0" y="0" width="2035" height="1402"/></clipPath><clipPath id="clip13"><rect x="0" y="0" width="2035" height="1402"/></clipPath><clipPath id="clip14"><rect x="0" y="0" width="2035" height="1402"/></clipPath><clipPath id="clip15"><rect x="0" y="0" width="2035" height="1402"/></clipPath><clipPath id="clip16"><rect x="0" y="0" width="2035" height="1402"/></clipPath><clipPath id="clip17"><rect x="0" y="0" width="2035" height="1402"/></clipPath></defs><g clip-path="url(#clip0)" transform="translate(1 1)"><rect x="0" y="0" width="2035" height="1402" fill="#FFFFFF"/><g clip-path="url(#clip1)"><rect x="249" y="49.9998" width="1714" height="1149" fill="#FFFFFF"/></g><g clip-path="url(#clip2)"><path d="M248.5 624.521 1963.5 624.521M248.5 50.5 1963.5 50.5" stroke="#D9D9D9" stroke-width="3.4375" stroke-linejoin="round" stroke-miterlimit="10" fill="none"/></g><g clip-path="url(#clip3)"><path d="M0 0 0.000360892 1148" stroke="#000000" stroke-width="6.875" stroke-linejoin="round" stroke-miterlimit="10" fill="none" fill-rule="evenodd" transform="matrix(1 0 0 -1 248.5 1198.5)"/></g><g clip-path="url(#clip4)"><path d="M235.5 1198.5 248.5 1198.5M235.5 624.521 248.5 624.521M235.5 50.5 248.5 50.5" stroke="#000000" stroke-width="6.875" stroke-linejoin="round" stroke-miterlimit="10" fill="none"/></g><g clip-path="url(#clip5)"><path d="M248.5 1198.5 1963.5 1198.5" stroke="#000000" stroke-width="6.875" stroke-linejoin="round" stroke-miterlimit="10" fill="none" fill-rule="evenodd"/></g><g clip-path="url(#clip6)"><path d="M248.5 1198.5 248.5 1212.5M673.522 1198.5 673.522 1212.5M1097.54 1198.5 1097.54 1212.5M1521.55 1198.5 1521.55 1212.5M1946.5 1198.5 1946.5 1212.5" stroke="#000000" stroke-width="6.875" stroke-linejoin="round" stroke-miterlimit="10" fill="none"/></g><g clip-path="url(#clip7)"><path d="M257.5 529.518 274.509 569.519 291.51 610.52 308.51 639.521 325.511 655.522 342.511 661.522 359.512 654.522 376.513 644.521 393.513 628.521 410.514 605.52 427.514 580.519 444.515 552.518 460.515 528.518 477.516 503.517 494.516 473.516 511.517 442.515 528.518 411.514 545.518 385.513 562.519 357.512 579.519 333.511 596.52 307.51 613.52 286.51 630.521 262.509 647.521 239.508 664.522 219.507 681.523 200.507 698.523 187.506 715.524 169.506 732.524 156.505 749.525 146.505 766.525 136.505 783.526 130.504 800.526 118.504 817.527 112.504 834.528 106.504 851.528 104.504 868.529 98.5002 885.529 102.504 902.53 102.504 919.53 106.504 936.531 107.504 953.531 113.504 970.532 117.504 987.533 124.504 1004.53 136.505 1021.53 147.505 1038.53 159.505 1055.53 172.506 1071.54 186.506 1088.54 199.507 1105.54 211.507 1122.54 221.507 1139.54 235.508 1156.54 248.508 1173.54 264.509 1190.54 282.509 1207.54 298.51 1224.54 318.511 1241.54 333.511 1258.54 352.512 1275.54 367.512 1292.54 383.513 1309.54 400.513 1326.54 422.514 1343.54 441.515 1360.54 456.515 1377.55 472.516 1394.55 486.516 1411.55 502.517 1428.55 524.517 1445.55 541.518 1462.55 559.519 1479.55 573.519 1496.55 586.519 1513.55 600.52 1530.55 616.52 1547.55 637.521 1564.55 653.522 1581.55 667.522 1598.55 678.522 1615.55 689.523 1632.55 704.523 1649.55 719.524 1666.55 732.524 1682.56 745.525 1699.56 758.525 1716.56 770.525 1733.56 784.526 1750.56 791.526 1767.56 802.527 1784.56 814.527 1801.56 826.527 1818.56 837.528 1835.56 847.528 1852.56 855.528 1869.56 867.529 1886.56 879.529 1903.56 890.529 1920.56 902.53 1937.56 913.53 1954.5 922.5" stroke="#000000" stroke-width="9.16667" stroke-linecap="round" stroke-linejoin="round" stroke-miterlimit="10" fill="none"/></g><g clip-path="url(#clip8)"><text fill="#595959" font-family="Calibri,Calibri_MSFontService,sans-serif" font-weight="400" font-size="41" transform="matrix(1 0 0 1 189.681 1211)">0</text></g><g clip-path="url(#clip9)"><text fill="#595959" font-family="Calibri,Calibri_MSFontService,sans-serif" font-weight="400" font-size="41" transform="matrix(1 0 0 1 147.881 636)">500</text></g><g clip-path="url(#clip10)"><text fill="#595959" font-family="Calibri,Calibri_MSFontService,sans-serif" font-weight="400" font-size="41" transform="matrix(1 0 0 1 126.981 62)">1000</text></g><g clip-path="url(#clip11)"><text fill="#595959" font-family="Calibri,Calibri_MSFontService,sans-serif" font-weight="400" font-size="41" transform="matrix(1 0 0 1 225.985 1264)">315</text></g><g clip-path="url(#clip12)"><text fill="#595959" font-family="Calibri,Calibri_MSFontService,sans-serif" font-weight="400" font-size="41" transform="matrix(1 0 0 1 650.3 1264)">340</text></g><g clip-path="url(#clip13)"><text fill="#595959" font-family="Calibri,Calibri_MSFontService,sans-serif" font-weight="400" font-size="41" transform="matrix(1 0 0 1 1074.61 1264)">365</text></g><g clip-path="url(#clip14)"><text fill="#595959" font-family="Calibri,Calibri_MSFontService,sans-serif" font-weight="400" font-size="41" transform="matrix(1 0 0 1 1498.93 1264)">390</text></g><g clip-path="url(#clip15)"><text fill="#595959" font-family="Calibri,Calibri_MSFontService,sans-serif" font-weight="400" font-size="41" transform="matrix(1 0 0 1 1923.24 1264)">415</text></g><g clip-path="url(#clip16)"><text fill="#595959" font-family="Calibri,Calibri_MSFontService,sans-serif" font-weight="400" font-size="46" transform="matrix(6.12323e-17 -1 1 6.12323e-17 101.292 706)">Intensity</text></g><g clip-path="url(#clip17)"><text fill="#595959" font-family="Calibri,Calibri_MSFontService,sans-serif" font-weight="400" font-size="46" transform="matrix(1 0 0 1 944.23 1333)">Wavelength (nm)</text></g><rect x="0" y="0" width="2035" height="1402" stroke="#898989" stroke-width="2.29167" stroke-linejoin="round" stroke-miterlimit="10" fill="none"/></g></svg>