<svg width="2162" height="1352" xmlns="http://www.w3.org/2000/svg" xmlns:xlink="http://www.w3.org/1999/xlink" overflow="hidden"><defs><clipPath id="clip0"><rect x="-1" y="-1" width="2162" height="1352"/></clipPath><clipPath id="clip1"><rect x="0" y="0" width="2159" height="1349"/></clipPath><clipPath id="clip2"><rect x="0" y="0" width="2159" height="1349"/></clipPath><clipPath id="clip3"><rect x="0" y="0" width="2159" height="1349"/></clipPath><clipPath id="clip4"><rect x="0" y="0" width="2159" height="1349"/></clipPath><clipPath id="clip5"><rect x="0" y="0" width="2159" height="1349"/></clipPath><clipPath id="clip6"><rect x="0" y="0" width="2159" height="1349"/></clipPath><clipPath id="clip7"><rect x="269" y="50" width="1822" height="1099"/></clipPath><clipPath id="clip8"><rect x="269" y="50" width="1822" height="1099"/></clipPath><clipPath id="clip9"><rect x="0" y="0" width="2159" height="1349"/></clipPath><clipPath id="clip10"><rect x="0" y="0" width="2159" height="1349"/></clipPath><clipPath id="clip11"><rect x="0" y="0" width="2159" height="1349"/></clipPath><clipPath id="clip12"><rect x="0" y="0" width="2159" height="1349"/></clipPath><clipPath id="clip13"><rect x="0" y="0" width="2159" height="1349"/></clipPath><clipPath id="clip14"><rect x="0" y="0" width="2159" height="1349"/></clipPath><clipPath id="clip15"><rect x="0" y="0" width="2159" height="1349"/></clipPath><clipPath id="clip16"><rect x="0" y="0" width="2159" height="1349"/></clipPath><clipPath id="clip17"><rect x="0" y="0" width="2159" height="1349"/></clipPath><clipPath id="clip18"><rect x="0" y="0" width="2159" height="1349"/></clipPath><clipPath id="clip19"><rect x="0" y="0" width="2159" height="1349"/></clipPath><clipPath id="clip20"><rect x="0" y="0" width="2159" height="1349"/></clipPath><clipPath id="clip21"><rect x="0" y="0" width="2159" height="1349"/></clipPath></defs><g clip-path="url(#clip0)" transform="translate(1 1)"><rect x="0" y="0" width="2160" height="1350" fill="#FFFFFF"/><g clip-path="url(#clip1)"><rect x="270" y="49.9998" width="1818" height="1096" fill="#FFFFFF"/></g><g clip-path="url(#clip2)"><path d="M269.5 946.531 2088.5 946.531M269.5 747.525 2088.5 747.525M269.5 548.518 2088.5 548.518M269.5 349.512 2088.5 349.512M269.5 150.5 2088.5 150.5" stroke="#D9D9D9" stroke-width="3.4375" stroke-linejoin="round" stroke-miterlimit="10" fill="none"/></g><g clip-path="url(#clip3)"><path d="M0 0 0.000360892 1096" stroke="#000000" stroke-width="6.875" stroke-linejoin="round" stroke-miterlimit="10" fill="none" fill-rule="evenodd" transform="matrix(1 0 0 -1 269.5 1146.5)"/></g><g clip-path="url(#clip4)"><path d="M256.5 1146.5 269.5 1146.5M256.5 946.531 269.5 946.531M256.5 747.525 269.5 747.525M256.5 548.518 269.5 548.518M256.5 349.512 269.5 349.512M256.5 150.5 269.5 150.5" stroke="#000000" stroke-width="6.875" stroke-linejoin="round" stroke-miterlimit="10" fill="none"/></g><g clip-path="url(#clip5)"><path d="M269.5 1146.5 2088.5 1146.5" stroke="#000000" stroke-width="6.875" stroke-linejoin="round" stroke-miterlimit="10" fill="none" fill-rule="evenodd"/></g><g clip-path="url(#clip6)"><path d="M269.5 1146.5 269.5 1159.5M719.524 1146.5 719.524 1159.5M1170.54 1146.5 1170.54 1159.5M1620.55 1146.5 1620.55 1159.5M2070.5 1146.5 2070.5 1159.5" stroke="#000000" stroke-width="6.875" stroke-linejoin="round" stroke-miterlimit="10" fill="none"/></g><g clip-path="url(#clip7)"><path d="M278.5 1146.54 296.51 1146.54 314.51 1146.54 332.511 1146.54 350.512 1146.54 368.512 1146.54 386.513 1146.54 404.513 1146.54 422.514 1146.54 440.515 1146.54 458.515 1146.54 476.516 1146.54 494.516 1146.54 512.517 1146.54 530.518 1146.54 548.518 1146.54 566.519 1146.54 584.519 1146.54 602.52 1146.54 620.521 1146.54 638.521 1145.54 656.522 1145.54 674.522 1145.54 692.523 1145.54 710.523 1145.54 728.524 1145.54 746.525 1145.54 764.525 1145.54 782.526 1145.54 800.526 1145.54 818.527 1145.54 836.528 1145.54 854.528 1145.54 872.529 1145.54 890.529 1145.54 908.53 1145.54 926.531 1145.5 944.531 1145.54 962.532 1145.54 980.532 1145.54 998.533 1145.54 1016.53 1145.54 1034.53 1145.54 1052.53 1145.54 1070.54 1145.54 1088.54 1145.54 1106.54 1145.54 1125.54 1145.54 1143.54 1145.54 1161.54 1145.54 1179.54 1145.54 1197.54 1145.54 1215.54 1145.54 1233.54 1145.54 1251.54 1145.54 1269.54 1145.54 1287.54 1145.54 1305.54 1145.54 1323.54 1146.54 1341.54 1146.54 1359.54 1146.54 1377.55 1146.54 1395.55 1146.54 1413.55 1146.54 1431.55 1146.54 1449.55 1146.54 1467.55 1146.54 1485.55 1146.54 1503.55 1146.54 1521.55 1146.54 1539.55 1146.54 1557.55 1146.54 1575.55 1146.54 1593.55 1146.54 1611.55 1146.54 1629.55 1146.54 1647.55 1146.54 1665.55 1146.54 1683.56 1146.54 1701.56 1146.54 1719.56 1146.54 1737.56 1146.54 1755.56 1146.54 1773.56 1146.54 1791.56 1146.54 1809.56 1146.54 1827.56 1146.54 1845.56 1146.54 1863.56 1146.54 1881.56 1146.54 1899.56 1146.54 1917.56 1146.54 1935.56 1146.54 1953.56 1146.54 1971.56 1146.54 1989.57 1146.54 2007.57 1146.54 2025.57 1146.54 2043.57 1146.54 2061.57 1146.54 2079.5 1146.5" stroke="#ED7D31" stroke-width="6.875" stroke-linecap="round" stroke-linejoin="round" stroke-miterlimit="10" fill="none"/></g><g clip-path="url(#clip8)"><path d="M278.5 1146.54 296.51 1146.54 314.51 1146.54 332.511 1146.54 350.512 1146.54 368.512 1146.54 386.513 1146.54 404.513 1146.54 422.514 1146.54 440.515 1146.54 458.515 1146.54 476.516 1146.54 494.516 1146.54 512.517 1146.54 530.518 1146.54 548.518 1146.54 566.519 1146.54 584.519 1146.54 602.52 1146.54 620.521 1146.54 638.521 1145.54 656.522 1145.54 674.522 1145.54 692.523 1145.54 710.523 1145.54 728.524 1145.54 746.525 1145.54 764.525 1145.54 782.526 1145.54 800.526 1145.54 818.527 1145.54 836.528 1145.54 854.528 1145.54 872.529 1145.54 890.529 1145.54 908.53 1145.54 926.531 1145.5 944.531 1145.54 962.532 1145.54 980.532 1145.54 998.533 1145.54 1016.53 1145.54 1034.53 1145.54 1052.53 1145.54 1070.54 1145.54 1088.54 1145.54 1106.54 1145.54 1125.54 1145.54 1143.54 1145.54 1161.54 1145.54 1179.54 1145.54 1197.54 1145.54 1215.54 1145.54 1233.54 1145.54 1251.54 1145.54 1269.54 1145.54 1287.54 1145.54 1305.54 1145.54 1323.54 1146.54 1341.54 1146.54 1359.54 1146.54 1377.55 1146.54 1395.55 1146.54 1413.55 1146.54 1431.55 1146.54 1449.55 1146.54 1467.55 1146.54 1485.55 1146.54 1503.55 1146.54 1521.55 1146.54 1539.55 1146.54 1557.55 1146.54 1575.55 1146.54 1593.55 1146.54 1611.55 1146.54 1629.55 1146.54 1647.55 1146.54 1665.55 1146.54 1683.56 1146.54 1701.56 1146.54 1719.56 1146.54 1737.56 1146.54 1755.56 1146.54 1773.56 1146.54 1791.56 1146.54 1809.56 1146.54 1827.56 1146.54 1845.56 1146.54 1863.56 1146.54 1881.56 1146.54 1899.56 1146.54 1917.56 1146.54 1935.56 1146.54 1953.56 1146.54 1971.56 1146.54 1989.57 1146.54 2007.57 1146.54 2025.57 1146.54 2043.57 1146.54 2061.57 1146.54 2079.5 1146.5" stroke="#000000" stroke-width="9.16667" stroke-linecap="round" stroke-linejoin="round" stroke-miterlimit="10" fill="none"/></g><g clip-path="url(#clip9)"><text fill="#595959" font-family="Calibri,Calibri_MSFontService,sans-serif" font-weight="400" font-size="41" transform="matrix(1 0 0 1 210.581 1158)">0</text></g><g clip-path="url(#clip10)"><text fill="#595959" font-family="Calibri,Calibri_MSFontService,sans-serif" font-weight="400" font-size="41" transform="matrix(1 0 0 1 147.881 959)">2000</text></g><g clip-path="url(#clip11)"><text fill="#595959" font-family="Calibri,Calibri_MSFontService,sans-serif" font-weight="400" font-size="41" transform="matrix(1 0 0 1 147.881 759)">4000</text></g><g clip-path="url(#clip12)"><text fill="#595959" font-family="Calibri,Calibri_MSFontService,sans-serif" font-weight="400" font-size="41" transform="matrix(1 0 0 1 147.881 560)">6000</text></g><g clip-path="url(#clip13)"><text fill="#595959" font-family="Calibri,Calibri_MSFontService,sans-serif" font-weight="400" font-size="41" transform="matrix(1 0 0 1 147.881 361)">8000</text></g><g clip-path="url(#clip14)"><text fill="#595959" font-family="Calibri,Calibri_MSFontService,sans-serif" font-weight="400" font-size="41" transform="matrix(1 0 0 1 126.981 162)">10000</text></g><g clip-path="url(#clip15)"><text fill="#595959" font-family="Calibri,Calibri_MSFontService,sans-serif" font-weight="400" font-size="41" transform="matrix(1 0 0 1 247.401 1211)">315</text></g><g clip-path="url(#clip16)"><text fill="#595959" font-family="Calibri,Calibri_MSFontService,sans-serif" font-weight="400" font-size="41" transform="matrix(1 0 0 1 697.554 1211)">340</text></g><g clip-path="url(#clip17)"><text fill="#595959" font-family="Calibri,Calibri_MSFontService,sans-serif" font-weight="400" font-size="41" transform="matrix(1 0 0 1 1147.71 1211)">365</text></g><g clip-path="url(#clip18)"><text fill="#595959" font-family="Calibri,Calibri_MSFontService,sans-serif" font-weight="400" font-size="41" transform="matrix(1 0 0 1 1597.86 1211)">390</text></g><g clip-path="url(#clip19)"><text fill="#595959" font-family="Calibri,Calibri_MSFontService,sans-serif" font-weight="400" font-size="41" transform="matrix(1 0 0 1 2048.01 1211)">415</text></g><g clip-path="url(#clip20)"><text fill="#595959" font-family="Calibri,Calibri_MSFontService,sans-serif" font-weight="400" font-size="46" transform="matrix(6.12323e-17 -1 1 6.12323e-17 101.292 680)">Intensity</text></g><g clip-path="url(#clip21)"><text fill="#595959" font-family="Calibri,Calibri_MSFontService,sans-serif" font-weight="400" font-size="46" transform="matrix(1 0 0 1 1017.32 1281)">Wavelength (nm)</text></g><rect x="0" y="0" width="2160" height="1350" stroke="#898989" stroke-width="2.29167" stroke-linejoin="round" stroke-miterlimit="10" fill="none"/></g></svg>