<svg width="2279" height="1425" xmlns="http://www.w3.org/2000/svg" xmlns:xlink="http://www.w3.org/1999/xlink" overflow="hidden"><defs><clipPath id="clip0"><rect x="-1" y="-1" width="2279" height="1425"/></clipPath><clipPath id="clip1"><rect x="0" y="0" width="2277" height="1423"/></clipPath><clipPath id="clip2"><rect x="0" y="0" width="2277" height="1423"/></clipPath><clipPath id="clip3"><rect x="0" y="0" width="2277" height="1423"/></clipPath><clipPath id="clip4"><rect x="0" y="0" width="2277" height="1423"/></clipPath><clipPath id="clip5"><rect x="0" y="0" width="2277" height="1423"/></clipPath><clipPath id="clip6"><rect x="0" y="0" width="2277" height="1423"/></clipPath><clipPath id="clip7"><rect x="248" y="50" width="1961" height="1173"/></clipPath><clipPath id="clip8"><rect x="0" y="0" width="2277" height="1423"/></clipPath><clipPath id="clip9"><rect x="0" y="0" width="2277" height="1423"/></clipPath><clipPath id="clip10"><rect x="0" y="0" width="2277" height="1423"/></clipPath><clipPath id="clip11"><rect x="0" y="0" width="2277" height="1423"/></clipPath><clipPath id="clip12"><rect x="0" y="0" width="2277" height="1423"/></clipPath><clipPath id="clip13"><rect x="0" y="0" width="2277" height="1423"/></clipPath><clipPath id="clip14"><rect x="0" y="0" width="2277" height="1423"/></clipPath><clipPath id="clip15"><rect x="0" y="0" width="2277" height="1423"/></clipPath><clipPath id="clip16"><rect x="0" y="0" width="2277" height="1423"/></clipPath><clipPath id="clip17"><rect x="0" y="0" width="2277" height="1423"/></clipPath><clipPath id="clip18"><rect x="0" y="0" width="2277" height="1423"/></clipPath><clipPath id="clip19"><rect x="0" y="0" width="2277" height="1423"/></clipPath><clipPath id="clip20"><rect x="0" y="0" width="2277" height="1423"/></clipPath><clipPath id="clip21"><rect x="0" y="0" width="2277" height="1423"/></clipPath><clipPath id="clip22"><rect x="0" y="0" width="2277" height="1423"/></clipPath></defs><g clip-path="url(#clip0)" transform="translate(1 1)"><rect x="0" y="0" width="2277" height="1423" fill="#FFFFFF"/><g clip-path="url(#clip1)"><rect x="249" y="49.9998" width="1957" height="1170" fill="#FFFFFF"/></g><g clip-path="url(#clip2)"><path d="M248.5 1052.53 2206.5 1052.53M248.5 885.529 2206.5 885.529M248.5 718.524 2206.5 718.524M248.5 551.518 2206.5 551.518M248.5 384.513 2206.5 384.513M248.5 217.507 2206.5 217.507M248.5 50.5 2206.5 50.5" stroke="#D9D9D9" stroke-width="3.4375" stroke-linejoin="round" stroke-miterlimit="10" fill="none"/></g><g clip-path="url(#clip3)"><path d="M0 0 0.000360892 1169" stroke="#000000" stroke-width="6.875" stroke-linejoin="round" stroke-miterlimit="10" fill="none" fill-rule="evenodd" transform="matrix(1 0 0 -1 248.5 1219.5)"/></g><g clip-path="url(#clip4)"><path d="M235.5 1219.5 248.5 1219.5M235.5 1052.53 248.5 1052.53M235.5 885.529 248.5 885.529M235.5 718.524 248.5 718.524M235.5 551.518 248.5 551.518M235.5 384.513 248.5 384.513M235.5 217.507 248.5 217.507M235.5 50.5 248.5 50.5" stroke="#000000" stroke-width="6.875" stroke-linejoin="round" stroke-miterlimit="10" fill="none"/></g><g clip-path="url(#clip5)"><path d="M248.5 1219.5 2206.5 1219.5" stroke="#000000" stroke-width="6.875" stroke-linejoin="round" stroke-miterlimit="10" fill="none" fill-rule="evenodd"/></g><g clip-path="url(#clip6)"><path d="M248.5 1219.5 248.5 1232.5M733.524 1219.5 733.524 1232.5M1217.54 1219.5 1217.54 1232.5M1702.56 1219.5 1702.56 1232.5M2186.5 1219.5 2186.5 1232.5" stroke="#000000" stroke-width="6.875" stroke-linejoin="round" stroke-miterlimit="10" fill="none"/></g><g clip-path="url(#clip7)"><path d="M258.5 495.516 277.509 523.517 297.51 552.518 316.511 576.519 336.511 597.52 355.512 613.52 374.512 623.521 394.513 628.521 413.514 628.521 432.514 622.521 452.515 608.52 471.516 591.52 491.516 572.519 510.517 550.518 529.518 528.518 549.518 503.517 568.519 479.516 587.519 455.515 607.52 430.514 626.521 406.513 646.521 384.513 665.522 363.512 684.523 344.511 704.523 327.511 723.524 308.51 743.525 291.51 762.525 275.509 781.526 260.509 801.526 248.508 820.527 238.508 839.528 227.508 859.528 221.507 878.529 214.507 898.53 210.507 917.53 207.507 936.531 206.5 956.532 206.507 975.532 206.507 994.533 207.507 1014.53 207.507 1033.53 212.507 1053.53 219.507 1072.54 226.508 1091.54 233.508 1111.54 241.508 1130.54 249.508 1150.54 259.509 1169.54 269.509 1188.54 279.509 1208.54 292.51 1227.54 305.51 1246.54 319.511 1266.54 332.511 1285.54 345.512 1305.54 360.512 1324.54 375.513 1343.54 391.513 1363.54 405.513 1382.55 421.514 1401.55 435.514 1421.55 450.515 1440.55 466.515 1460.55 481.516 1479.55 498.517 1498.55 513.517 1518.55 529.518 1537.55 543.518 1556.55 558.518 1576.55 573.519 1595.55 587.519 1615.55 603.52 1634.55 619.521 1653.55 634.521 1673.56 649.521 1692.56 662.522 1712.56 675.522 1731.56 688.523 1750.56 701.523 1770.56 714.524 1789.56 727.524 1808.56 740.524 1828.56 753.525 1847.56 765.525 1867.56 776.526 1886.56 786.526 1905.56 797.526 1925.56 808.527 1944.56 820.527 1963.56 830.527 1983.57 841.528 2002.57 852.528 2022.57 864.529 2041.57 875.529 2060.57 885.529 2080.57 894.53 2099.57 903.53 2118.57 912.53 2138.57 922.53 2157.57 932.531 2177.57 941.531 2196.5 951.5" stroke="#000000" stroke-width="9.16667" stroke-linecap="round" stroke-linejoin="round" stroke-miterlimit="10" fill="none"/></g><g clip-path="url(#clip8)"><text fill="#595959" font-family="Calibri,Calibri_MSFontService,sans-serif" font-weight="400" font-size="41" transform="matrix(1 0 0 1 189.681 1231)">0</text></g><g clip-path="url(#clip9)"><text fill="#595959" font-family="Calibri,Calibri_MSFontService,sans-serif" font-weight="400" font-size="41" transform="matrix(1 0 0 1 147.881 1064)">500</text></g><g clip-path="url(#clip10)"><text fill="#595959" font-family="Calibri,Calibri_MSFontService,sans-serif" font-weight="400" font-size="41" transform="matrix(1 0 0 1 126.981 897)">1000</text></g><g clip-path="url(#clip11)"><text fill="#595959" font-family="Calibri,Calibri_MSFontService,sans-serif" font-weight="400" font-size="41" transform="matrix(1 0 0 1 126.981 730)">1500</text></g><g clip-path="url(#clip12)"><text fill="#595959" font-family="Calibri,Calibri_MSFontService,sans-serif" font-weight="400" font-size="41" transform="matrix(1 0 0 1 126.981 563)">2000</text></g><g clip-path="url(#clip13)"><text fill="#595959" font-family="Calibri,Calibri_MSFontService,sans-serif" font-weight="400" font-size="41" transform="matrix(1 0 0 1 126.981 396)">2500</text></g><g clip-path="url(#clip14)"><text fill="#595959" font-family="Calibri,Calibri_MSFontService,sans-serif" font-weight="400" font-size="41" transform="matrix(1 0 0 1 126.981 229)">3000</text></g><g clip-path="url(#clip15)"><text fill="#595959" font-family="Calibri,Calibri_MSFontService,sans-serif" font-weight="400" font-size="41" transform="matrix(1 0 0 1 126.981 62)">3500</text></g><g clip-path="url(#clip16)"><text fill="#595959" font-family="Calibri,Calibri_MSFontService,sans-serif" font-weight="400" font-size="41" transform="matrix(1 0 0 1 227.189 1285)">315</text></g><g clip-path="url(#clip17)"><text fill="#595959" font-family="Calibri,Calibri_MSFontService,sans-serif" font-weight="400" font-size="41" transform="matrix(1 0 0 1 711.701 1285)">340</text></g><g clip-path="url(#clip18)"><text fill="#595959" font-family="Calibri,Calibri_MSFontService,sans-serif" font-weight="400" font-size="41" transform="matrix(1 0 0 1 1196.21 1285)">365</text></g><g clip-path="url(#clip19)"><text fill="#595959" font-family="Calibri,Calibri_MSFontService,sans-serif" font-weight="400" font-size="41" transform="matrix(1 0 0 1 1680.73 1285)">390</text></g><g clip-path="url(#clip20)"><text fill="#595959" font-family="Calibri,Calibri_MSFontService,sans-serif" font-weight="400" font-size="41" transform="matrix(1 0 0 1 2165.24 1285)">415</text></g><g clip-path="url(#clip21)"><text fill="#595959" font-family="Calibri,Calibri_MSFontService,sans-serif" font-weight="400" font-size="46" transform="matrix(6.12323e-17 -1 1 6.12323e-17 101.292 716)">Intensity</text></g><g clip-path="url(#clip22)"><text fill="#595959" font-family="Calibri,Calibri_MSFontService,sans-serif" font-weight="400" font-size="46" transform="matrix(1 0 0 1 1065.83 1354)">Wavelength (nm)</text></g><rect x="0" y="0" width="2277" height="1423" stroke="#898989" stroke-width="2.29167" stroke-linejoin="round" stroke-miterlimit="10" fill="none"/></g></svg>