<svg width="2303" height="1440" xmlns="http://www.w3.org/2000/svg" xmlns:xlink="http://www.w3.org/1999/xlink" overflow="hidden"><defs><clipPath id="clip0"><rect x="-1" y="-1" width="2303" height="1440"/></clipPath><clipPath id="clip1"><rect x="0" y="0" width="2301" height="1438"/></clipPath><clipPath id="clip2"><rect x="0" y="0" width="2301" height="1438"/></clipPath><clipPath id="clip3"><rect x="0" y="0" width="2301" height="1438"/></clipPath><clipPath id="clip4"><rect x="0" y="0" width="2301" height="1438"/></clipPath><clipPath id="clip5"><rect x="0" y="0" width="2301" height="1438"/></clipPath><clipPath id="clip6"><rect x="0" y="0" width="2301" height="1438"/></clipPath><clipPath id="clip7"><rect x="248" y="50" width="1985" height="1188"/></clipPath><clipPath id="clip8"><rect x="0" y="0" width="2301" height="1438"/></clipPath><clipPath id="clip9"><rect x="0" y="0" width="2301" height="1438"/></clipPath><clipPath id="clip10"><rect x="0" y="0" width="2301" height="1438"/></clipPath><clipPath id="clip11"><rect x="0" y="0" width="2301" height="1438"/></clipPath><clipPath id="clip12"><rect x="0" y="0" width="2301" height="1438"/></clipPath><clipPath id="clip13"><rect x="0" y="0" width="2301" height="1438"/></clipPath><clipPath id="clip14"><rect x="0" y="0" width="2301" height="1438"/></clipPath><clipPath id="clip15"><rect x="0" y="0" width="2301" height="1438"/></clipPath><clipPath id="clip16"><rect x="0" y="0" width="2301" height="1438"/></clipPath><clipPath id="clip17"><rect x="0" y="0" width="2301" height="1438"/></clipPath><clipPath id="clip18"><rect x="0" y="0" width="2301" height="1438"/></clipPath><clipPath id="clip19"><rect x="0" y="0" width="2301" height="1438"/></clipPath><clipPath id="clip20"><rect x="0" y="0" width="2301" height="1438"/></clipPath><clipPath id="clip21"><rect x="0" y="0" width="2301" height="1438"/></clipPath><clipPath id="clip22"><rect x="0" y="0" width="2301" height="1438"/></clipPath></defs><g clip-path="url(#clip0)" transform="translate(1 1)"><rect x="0" y="0" width="2301" height="1438" fill="#FFFFFF"/><g clip-path="url(#clip1)"><rect x="249" y="49.9998" width="1981" height="1185" fill="#FFFFFF"/></g><g clip-path="url(#clip2)"><path d="M248.5 1065.54 2230.5 1065.54M248.5 896.53 2230.5 896.53M248.5 727.524 2230.5 727.524M248.5 557.518 2230.5 557.518M248.5 388.513 2230.5 388.513M248.5 219.507 2230.5 219.507M248.5 50.5 2230.5 50.5" stroke="#D9D9D9" stroke-width="3.4375" stroke-linejoin="round" stroke-miterlimit="10" fill="none"/></g><g clip-path="url(#clip3)"><path d="M0 0 0.000360892 1184" stroke="#000000" stroke-width="6.875" stroke-linejoin="round" stroke-miterlimit="10" fill="none" fill-rule="evenodd" transform="matrix(1 0 0 -1 248.5 1234.5)"/></g><g clip-path="url(#clip4)"><path d="M235.5 1234.5 248.5 1234.5M235.5 1065.54 248.5 1065.54M235.5 896.53 248.5 896.53M235.5 727.524 248.5 727.524M235.5 557.518 248.5 557.518M235.5 388.513 248.5 388.513M235.5 219.507 248.5 219.507M235.5 50.5 248.5 50.5" stroke="#000000" stroke-width="6.875" stroke-linejoin="round" stroke-miterlimit="10" fill="none"/></g><g clip-path="url(#clip5)"><path d="M248.5 1234.5 2230.5 1234.5" stroke="#000000" stroke-width="6.875" stroke-linejoin="round" stroke-miterlimit="10" fill="none" fill-rule="evenodd"/></g><g clip-path="url(#clip6)"><path d="M248.5 1234.5 248.5 1247.5M739.524 1234.5 739.524 1247.5M1229.54 1234.5 1229.54 1247.5M1720.56 1234.5 1720.56 1247.5M2210.5 1234.5 2210.5 1247.5" stroke="#000000" stroke-width="6.875" stroke-linejoin="round" stroke-miterlimit="10" fill="none"/></g><g clip-path="url(#clip7)"><path d="M258.5 1201.54 278.509 1205.54 297.51 1206.54 317.511 1207.54 337.511 1207.54 356.512 1206.54 376.513 1205.54 395.513 1203.54 415.514 1202.54 435.514 1201.54 454.515 1199.54 474.516 1197.54 494.516 1195.54 513.517 1193.54 533.518 1192.54 552.518 1190.54 572.519 1188.54 592.52 1187.54 611.52 1185.54 631.521 1183.54 651.522 1182.54 670.522 1181.54 690.523 1180.54 709.523 1179.54 729.524 1178.54 749.525 1177.54 768.525 1176.54 788.526 1175.54 807.527 1174.54 827.527 1173.54 847.528 1173.54 866.529 1173.54 886.529 1172.54 906.53 1172.54 925.531 1171.54 945.531 1171.5 964.532 1172.54 984.532 1172.54 1004.53 1172.54 1023.53 1172.54 1043.53 1172.54 1063.54 1172.54 1082.54 1172.54 1102.54 1173.54 1121.54 1174.54 1141.54 1174.54 1161.54 1175.54 1180.54 1176.54 1200.54 1177.54 1219.54 1177.54 1239.54 1178.54 1259.54 1179.54 1278.54 1180.54 1298.54 1181.54 1318.54 1181.54 1337.54 1182.54 1357.54 1183.54 1376.55 1185.54 1396.55 1186.54 1416.55 1187.54 1435.55 1188.54 1455.55 1188.54 1475.55 1189.54 1494.55 1190.54 1514.55 1192.54 1533.55 1193.54 1553.55 1193.54 1573.55 1194.54 1592.55 1195.54 1612.55 1195.54 1631.55 1197.54 1651.55 1198.54 1671.56 1199.54 1690.56 1200.54 1710.56 1201.54 1730.56 1202.54 1749.56 1203.54 1769.56 1204.54 1788.56 1205.54 1808.56 1206.54 1828.56 1206.54 1847.56 1206.54 1867.56 1207.54 1887.56 1207.54 1906.56 1208.54 1926.56 1209.54 1945.56 1210.54 1965.56 1211.54 1985.57 1212.54 2004.57 1212.54 2024.57 1212.54 2044.57 1213.54 2063.57 1213.54 2083.57 1214.54 2102.57 1215.54 2122.57 1216.54 2142.57 1216.54 2161.57 1217.54 2181.57 1217.54 2200.57 1218.54 2220.5 1219.5" stroke="#000000" stroke-width="9.16667" stroke-linecap="round" stroke-linejoin="round" stroke-miterlimit="10" fill="none"/></g><g clip-path="url(#clip8)"><text fill="#595959" font-family="Calibri,Calibri_MSFontService,sans-serif" font-weight="400" font-size="41" transform="matrix(1 0 0 1 189.681 1246)">0</text></g><g clip-path="url(#clip9)"><text fill="#595959" font-family="Calibri,Calibri_MSFontService,sans-serif" font-weight="400" font-size="41" transform="matrix(1 0 0 1 147.881 1077)">500</text></g><g clip-path="url(#clip10)"><text fill="#595959" font-family="Calibri,Calibri_MSFontService,sans-serif" font-weight="400" font-size="41" transform="matrix(1 0 0 1 126.981 908)">1000</text></g><g clip-path="url(#clip11)"><text fill="#595959" font-family="Calibri,Calibri_MSFontService,sans-serif" font-weight="400" font-size="41" transform="matrix(1 0 0 1 126.981 739)">1500</text></g><g clip-path="url(#clip12)"><text fill="#595959" font-family="Calibri,Calibri_MSFontService,sans-serif" font-weight="400" font-size="41" transform="matrix(1 0 0 1 126.981 570)">2000</text></g><g clip-path="url(#clip13)"><text fill="#595959" font-family="Calibri,Calibri_MSFontService,sans-serif" font-weight="400" font-size="41" transform="matrix(1 0 0 1 126.981 400)">2500</text></g><g clip-path="url(#clip14)"><text fill="#595959" font-family="Calibri,Calibri_MSFontService,sans-serif" font-weight="400" font-size="41" transform="matrix(1 0 0 1 126.981 231)">3000</text></g><g clip-path="url(#clip15)"><text fill="#595959" font-family="Calibri,Calibri_MSFontService,sans-serif" font-weight="400" font-size="41" transform="matrix(1 0 0 1 126.981 62)">3500</text></g><g clip-path="url(#clip16)"><text fill="#595959" font-family="Calibri,Calibri_MSFontService,sans-serif" font-weight="400" font-size="41" transform="matrix(1 0 0 1 227.308 1300)">315</text></g><g clip-path="url(#clip17)"><text fill="#595959" font-family="Calibri,Calibri_MSFontService,sans-serif" font-weight="400" font-size="41" transform="matrix(1 0 0 1 717.806 1300)">340</text></g><g clip-path="url(#clip18)"><text fill="#595959" font-family="Calibri,Calibri_MSFontService,sans-serif" font-weight="400" font-size="41" transform="matrix(1 0 0 1 1208.3 1300)">365</text></g><g clip-path="url(#clip19)"><text fill="#595959" font-family="Calibri,Calibri_MSFontService,sans-serif" font-weight="400" font-size="41" transform="matrix(1 0 0 1 1698.8 1300)">390</text></g><g clip-path="url(#clip20)"><text fill="#595959" font-family="Calibri,Calibri_MSFontService,sans-serif" font-weight="400" font-size="41" transform="matrix(1 0 0 1 2189.3 1300)">415</text></g><g clip-path="url(#clip21)"><text fill="#595959" font-family="Calibri,Calibri_MSFontService,sans-serif" font-weight="400" font-size="46" transform="matrix(6.12323e-17 -1 1 6.12323e-17 101.292 724)">Intensity</text></g><g clip-path="url(#clip22)"><text fill="#595959" font-family="Calibri,Calibri_MSFontService,sans-serif" font-weight="400" font-size="46" transform="matrix(1 0 0 1 1077.92 1369)">Wavelength (nm)</text></g><rect x="0" y="0" width="2301" height="1438" stroke="#898989" stroke-width="2.29167" stroke-linejoin="round" stroke-miterlimit="10" fill="none"/></g></svg>