<svg width="2179" height="1363" xmlns="http://www.w3.org/2000/svg" xmlns:xlink="http://www.w3.org/1999/xlink" overflow="hidden"><defs><clipPath id="clip0"><rect x="-1" y="-1" width="2179" height="1363"/></clipPath><clipPath id="clip1"><rect x="0" y="0" width="2177" height="1360"/></clipPath><clipPath id="clip2"><rect x="0" y="0" width="2177" height="1360"/></clipPath><clipPath id="clip3"><rect x="0" y="0" width="2177" height="1360"/></clipPath><clipPath id="clip4"><rect x="0" y="0" width="2177" height="1360"/></clipPath><clipPath id="clip5"><rect x="0" y="0" width="2177" height="1360"/></clipPath><clipPath id="clip6"><rect x="0" y="0" width="2177" height="1360"/></clipPath><clipPath id="clip7"><rect x="248" y="50" width="1861" height="1110"/></clipPath><clipPath id="clip8"><rect x="0" y="0" width="2177" height="1360"/></clipPath><clipPath id="clip9"><rect x="0" y="0" width="2177" height="1360"/></clipPath><clipPath id="clip10"><rect x="0" y="0" width="2177" height="1360"/></clipPath><clipPath id="clip11"><rect x="0" y="0" width="2177" height="1360"/></clipPath><clipPath id="clip12"><rect x="0" y="0" width="2177" height="1360"/></clipPath><clipPath id="clip13"><rect x="0" y="0" width="2177" height="1360"/></clipPath><clipPath id="clip14"><rect x="0" y="0" width="2177" height="1360"/></clipPath><clipPath id="clip15"><rect x="0" y="0" width="2177" height="1360"/></clipPath><clipPath id="clip16"><rect x="0" y="0" width="2177" height="1360"/></clipPath><clipPath id="clip17"><rect x="0" y="0" width="2177" height="1360"/></clipPath></defs><g clip-path="url(#clip0)" transform="translate(1 1)"><rect x="0" y="0" width="2177" height="1361" fill="#FFFFFF"/><g clip-path="url(#clip1)"><rect x="249" y="49.9998" width="1857" height="1107" fill="#FFFFFF"/></g><g clip-path="url(#clip2)"><path d="M248.5 603.52 2106.5 603.52M248.5 50.5 2106.5 50.5" stroke="#D9D9D9" stroke-width="3.4375" stroke-linejoin="round" stroke-miterlimit="10" fill="none"/></g><g clip-path="url(#clip3)"><path d="M0 0 0.000360892 1107" stroke="#000000" stroke-width="6.875" stroke-linejoin="round" stroke-miterlimit="10" fill="none" fill-rule="evenodd" transform="matrix(1 0 0 -1 248.5 1157.5)"/></g><g clip-path="url(#clip4)"><path d="M235.5 1157.5 248.5 1157.5M235.5 603.52 248.5 603.52M235.5 50.5 248.5 50.5" stroke="#000000" stroke-width="6.875" stroke-linejoin="round" stroke-miterlimit="10" fill="none"/></g><g clip-path="url(#clip5)"><path d="M248.5 1157.5 2106.5 1157.5" stroke="#000000" stroke-width="6.875" stroke-linejoin="round" stroke-miterlimit="10" fill="none" fill-rule="evenodd"/></g><g clip-path="url(#clip6)"><path d="M248.5 1157.5 248.5 1170.5M708.523 1157.5 708.523 1170.5M1168.54 1157.5 1168.54 1170.5M1627.55 1157.5 1627.55 1170.5M2087.5 1157.5 2087.5 1170.5" stroke="#000000" stroke-width="6.875" stroke-linejoin="round" stroke-miterlimit="10" fill="none"/></g><g clip-path="url(#clip7)"><path d="M258.5 539.518 276.509 580.519 294.51 625.521 313.51 652.522 331.511 671.522 349.512 676.522 368.512 673.522 386.513 661.522 405.513 647.521 423.514 630.521 441.515 604.52 460.515 581.519 478.516 557.518 497.516 535.518 515.517 510.517 533.518 489.516 552.518 469.516 570.519 441.515 589.52 413.514 607.52 391.513 625.521 372.512 644.521 348.512 662.522 330.511 680.522 307.51 699.523 293.51 717.524 283.509 736.524 264.509 754.525 253.508 772.526 245.508 791.526 239.508 809.527 220.507 828.527 217.507 846.528 212.507 864.529 190.506 883.529 189.506 901.53 189.506 920.53 193.507 938.531 186.5 956.532 195.507 975.532 197.507 993.533 200.507 1011.53 207.507 1030.53 209.507 1048.53 219.507 1067.54 213.507 1085.54 225.508 1103.54 236.508 1122.54 252.508 1140.54 263.509 1159.54 273.509 1177.54 286.51 1195.54 305.51 1214.54 318.511 1232.54 334.511 1250.54 348.512 1269.54 357.512 1287.54 360.512 1306.54 371.512 1324.54 388.513 1342.54 415.514 1361.54 425.514 1379.55 440.515 1398.55 447.515 1416.55 461.515 1434.55 480.516 1453.55 502.517 1471.55 517.517 1490.55 525.517 1508.55 548.518 1526.55 560.519 1545.55 575.519 1563.55 591.52 1581.55 607.52 1600.55 619.521 1618.55 626.521 1637.55 643.521 1655.55 660.522 1673.56 670.522 1692.56 678.522 1710.56 690.523 1729.56 701.523 1747.56 718.524 1765.56 731.524 1784.56 740.524 1802.56 756.525 1821.56 766.525 1839.56 776.526 1857.56 782.526 1876.56 790.526 1894.56 799.526 1912.56 802.527 1931.56 819.527 1949.56 833.528 1968.56 842.528 1986.57 852.528 2004.57 865.529 2023.57 877.529 2041.57 882.529 2060.57 890.529 2078.57 897.53 2096.5 911.5" stroke="#000000" stroke-width="9.16667" stroke-linecap="round" stroke-linejoin="round" stroke-miterlimit="10" fill="none"/></g><g clip-path="url(#clip8)"><text fill="#595959" font-family="Calibri,Calibri_MSFontService,sans-serif" font-weight="400" font-size="41" transform="matrix(1 0 0 1 189.681 1169)">0</text></g><g clip-path="url(#clip9)"><text fill="#595959" font-family="Calibri,Calibri_MSFontService,sans-serif" font-weight="400" font-size="41" transform="matrix(1 0 0 1 147.881 615)">500</text></g><g clip-path="url(#clip10)"><text fill="#595959" font-family="Calibri,Calibri_MSFontService,sans-serif" font-weight="400" font-size="41" transform="matrix(1 0 0 1 126.981 62)">1000</text></g><g clip-path="url(#clip11)"><text fill="#595959" font-family="Calibri,Calibri_MSFontService,sans-serif" font-weight="400" font-size="41" transform="matrix(1 0 0 1 226.693 1222)">315</text></g><g clip-path="url(#clip12)"><text fill="#595959" font-family="Calibri,Calibri_MSFontService,sans-serif" font-weight="400" font-size="41" transform="matrix(1 0 0 1 686.408 1222)">340</text></g><g clip-path="url(#clip13)"><text fill="#595959" font-family="Calibri,Calibri_MSFontService,sans-serif" font-weight="400" font-size="41" transform="matrix(1 0 0 1 1146.12 1222)">365</text></g><g clip-path="url(#clip14)"><text fill="#595959" font-family="Calibri,Calibri_MSFontService,sans-serif" font-weight="400" font-size="41" transform="matrix(1 0 0 1 1605.84 1222)">390</text></g><g clip-path="url(#clip15)"><text fill="#595959" font-family="Calibri,Calibri_MSFontService,sans-serif" font-weight="400" font-size="41" transform="matrix(1 0 0 1 2065.55 1222)">415</text></g><g clip-path="url(#clip16)"><text fill="#595959" font-family="Calibri,Calibri_MSFontService,sans-serif" font-weight="400" font-size="46" transform="matrix(6.12323e-17 -1 1 6.12323e-17 101.292 685)">Intensity</text></g><g clip-path="url(#clip17)"><text fill="#595959" font-family="Calibri,Calibri_MSFontService,sans-serif" font-weight="400" font-size="46" transform="matrix(1 0 0 1 1015.74 1292)">Wavelength (nm)</text></g><rect x="0" y="0" width="2177" height="1361" stroke="#898989" stroke-width="2.29167" stroke-linejoin="round" stroke-miterlimit="10" fill="none"/></g></svg>