<svg width="2173" height="1359" xmlns="http://www.w3.org/2000/svg" xmlns:xlink="http://www.w3.org/1999/xlink" overflow="hidden"><defs><clipPath id="clip0"><rect x="-1" y="-1" width="2173" height="1359"/></clipPath><clipPath id="clip1"><rect x="0" y="0" width="2170" height="1356"/></clipPath><clipPath id="clip2"><rect x="0" y="0" width="2170" height="1356"/></clipPath><clipPath id="clip3"><rect x="0" y="0" width="2170" height="1356"/></clipPath><clipPath id="clip4"><rect x="0" y="0" width="2170" height="1356"/></clipPath><clipPath id="clip5"><rect x="0" y="0" width="2170" height="1356"/></clipPath><clipPath id="clip6"><rect x="0" y="0" width="2170" height="1356"/></clipPath><clipPath id="clip7"><rect x="248" y="50" width="1854" height="1106"/></clipPath><clipPath id="clip8"><rect x="0" y="0" width="2170" height="1356"/></clipPath><clipPath id="clip9"><rect x="0" y="0" width="2170" height="1356"/></clipPath><clipPath id="clip10"><rect x="0" y="0" width="2170" height="1356"/></clipPath><clipPath id="clip11"><rect x="0" y="0" width="2170" height="1356"/></clipPath><clipPath id="clip12"><rect x="0" y="0" width="2170" height="1356"/></clipPath><clipPath id="clip13"><rect x="0" y="0" width="2170" height="1356"/></clipPath><clipPath id="clip14"><rect x="0" y="0" width="2170" height="1356"/></clipPath><clipPath id="clip15"><rect x="0" y="0" width="2170" height="1356"/></clipPath><clipPath id="clip16"><rect x="0" y="0" width="2170" height="1356"/></clipPath><clipPath id="clip17"><rect x="0" y="0" width="2170" height="1356"/></clipPath></defs><g clip-path="url(#clip0)" transform="translate(1 1)"><rect x="0" y="0" width="2171" height="1357" fill="#FFFFFF"/><g clip-path="url(#clip1)"><rect x="249" y="49.9998" width="1850" height="1103" fill="#FFFFFF"/></g><g clip-path="url(#clip2)"><path d="M248.5 601.52 2099.5 601.52M248.5 50.5 2099.5 50.5" stroke="#D9D9D9" stroke-width="3.4375" stroke-linejoin="round" stroke-miterlimit="10" fill="none"/></g><g clip-path="url(#clip3)"><path d="M0 0 0.000360892 1103" stroke="#000000" stroke-width="6.875" stroke-linejoin="round" stroke-miterlimit="10" fill="none" fill-rule="evenodd" transform="matrix(1 0 0 -1 248.5 1153.5)"/></g><g clip-path="url(#clip4)"><path d="M235.5 1153.5 248.5 1153.5M235.5 601.52 248.5 601.52M235.5 50.5 248.5 50.5" stroke="#000000" stroke-width="6.875" stroke-linejoin="round" stroke-miterlimit="10" fill="none"/></g><g clip-path="url(#clip5)"><path d="M248.5 1153.5 2099.5 1153.5" stroke="#000000" stroke-width="6.875" stroke-linejoin="round" stroke-miterlimit="10" fill="none" fill-rule="evenodd"/></g><g clip-path="url(#clip6)"><path d="M248.5 1153.5 248.5 1166.5M706.523 1153.5 706.523 1166.5M1164.54 1153.5 1164.54 1166.5M1622.55 1153.5 1622.55 1166.5M2081.5 1153.5 2081.5 1166.5" stroke="#000000" stroke-width="6.875" stroke-linejoin="round" stroke-miterlimit="10" fill="none"/></g><g clip-path="url(#clip7)"><path d="M258.5 509.517 276.509 549.518 294.51 587.519 312.51 615.52 331.511 631.521 349.512 636.521 367.512 630.521 386.513 620.521 404.513 605.52 422.514 583.519 441.515 559.519 459.515 532.518 477.516 509.517 496.516 484.516 514.517 456.515 532.518 426.514 551.518 397.513 569.519 371.512 587.519 345.512 606.52 321.511 624.521 296.51 642.521 276.509 661.522 254.509 679.522 231.508 697.523 212.507 716.524 194.507 734.524 182.506 752.525 164.506 771.526 152.505 789.526 142.505 807.527 133.505 825.527 127.504 844.528 116.504 862.529 110.504 880.529 103.504 899.53 101.504 917.53 96.5001 935.531 100.503 954.531 100.503 972.532 104.504 990.533 105.504 1009.53 111.504 1027.53 114.504 1045.53 121.504 1064.54 133.505 1082.54 143.505 1100.54 155.505 1119.54 167.506 1137.54 180.506 1155.54 193.507 1174.54 205.507 1192.54 214.507 1210.54 228.508 1229.54 240.508 1247.54 256.509 1265.54 273.509 1284.54 288.51 1302.54 307.51 1320.54 322.511 1338.54 340.511 1357.54 355.512 1375.55 369.512 1393.55 386.513 1412.55 407.514 1430.55 425.514 1448.55 439.515 1467.55 455.515 1485.55 469.516 1503.55 484.516 1522.55 505.517 1540.55 521.517 1558.55 539.518 1577.55 552.518 1595.55 565.519 1613.55 578.519 1632.55 594.52 1650.55 613.52 1668.55 629.521 1687.56 642.521 1705.56 653.522 1723.56 664.522 1742.56 678.522 1760.56 692.523 1778.56 705.523 1797.56 717.524 1815.56 730.524 1833.56 741.525 1852.56 754.525 1870.56 762.525 1888.56 772.526 1906.56 783.526 1925.56 796.526 1943.56 806.527 1961.56 815.527 1980.57 823.527 1998.57 834.528 2016.57 846.528 2035.57 857.528 2053.57 868.529 2071.57 879.529 2090.5 888.5" stroke="#000000" stroke-width="9.16667" stroke-linecap="round" stroke-linejoin="round" stroke-miterlimit="10" fill="none"/></g><g clip-path="url(#clip8)"><text fill="#595959" font-family="Calibri,Calibri_MSFontService,sans-serif" font-weight="400" font-size="41" transform="matrix(1 0 0 1 189.681 1165)">0</text></g><g clip-path="url(#clip9)"><text fill="#595959" font-family="Calibri,Calibri_MSFontService,sans-serif" font-weight="400" font-size="41" transform="matrix(1 0 0 1 147.881 613)">500</text></g><g clip-path="url(#clip10)"><text fill="#595959" font-family="Calibri,Calibri_MSFontService,sans-serif" font-weight="400" font-size="41" transform="matrix(1 0 0 1 126.981 62)">1000</text></g><g clip-path="url(#clip11)"><text fill="#595959" font-family="Calibri,Calibri_MSFontService,sans-serif" font-weight="400" font-size="41" transform="matrix(1 0 0 1 226.66 1218)">315</text></g><g clip-path="url(#clip12)"><text fill="#595959" font-family="Calibri,Calibri_MSFontService,sans-serif" font-weight="400" font-size="41" transform="matrix(1 0 0 1 684.721 1218)">340</text></g><g clip-path="url(#clip13)"><text fill="#595959" font-family="Calibri,Calibri_MSFontService,sans-serif" font-weight="400" font-size="41" transform="matrix(1 0 0 1 1142.78 1218)">365</text></g><g clip-path="url(#clip14)"><text fill="#595959" font-family="Calibri,Calibri_MSFontService,sans-serif" font-weight="400" font-size="41" transform="matrix(1 0 0 1 1600.85 1218)">390</text></g><g clip-path="url(#clip15)"><text fill="#595959" font-family="Calibri,Calibri_MSFontService,sans-serif" font-weight="400" font-size="41" transform="matrix(1 0 0 1 2058.91 1218)">415</text></g><g clip-path="url(#clip16)"><text fill="#595959" font-family="Calibri,Calibri_MSFontService,sans-serif" font-weight="400" font-size="46" transform="matrix(6.12323e-17 -1 1 6.12323e-17 101.292 683)">Intensity</text></g><g clip-path="url(#clip17)"><text fill="#595959" font-family="Calibri,Calibri_MSFontService,sans-serif" font-weight="400" font-size="46" transform="matrix(1 0 0 1 1012.4 1287)">Wavelength (nm)</text></g><rect x="0" y="0" width="2171" height="1357" stroke="#898989" stroke-width="2.29167" stroke-linejoin="round" stroke-miterlimit="10" fill="none"/></g></svg>