<svg width="2122" height="1327" xmlns="http://www.w3.org/2000/svg" xmlns:xlink="http://www.w3.org/1999/xlink" overflow="hidden"><defs><clipPath id="clip0"><rect x="-1" y="-1" width="2122" height="1327"/></clipPath><clipPath id="clip1"><rect x="0" y="0" width="2119" height="1324"/></clipPath><clipPath id="clip2"><rect x="0" y="0" width="2119" height="1324"/></clipPath><clipPath id="clip3"><rect x="0" y="0" width="2119" height="1324"/></clipPath><clipPath id="clip4"><rect x="0" y="0" width="2119" height="1324"/></clipPath><clipPath id="clip5"><rect x="0" y="0" width="2119" height="1324"/></clipPath><clipPath id="clip6"><rect x="0" y="0" width="2119" height="1324"/></clipPath><clipPath id="clip7"><rect x="248" y="50" width="1803" height="1074"/></clipPath><clipPath id="clip8"><rect x="0" y="0" width="2119" height="1324"/></clipPath><clipPath id="clip9"><rect x="0" y="0" width="2119" height="1324"/></clipPath><clipPath id="clip10"><rect x="0" y="0" width="2119" height="1324"/></clipPath><clipPath id="clip11"><rect x="0" y="0" width="2119" height="1324"/></clipPath><clipPath id="clip12"><rect x="0" y="0" width="2119" height="1324"/></clipPath><clipPath id="clip13"><rect x="0" y="0" width="2119" height="1324"/></clipPath><clipPath id="clip14"><rect x="0" y="0" width="2119" height="1324"/></clipPath><clipPath id="clip15"><rect x="0" y="0" width="2119" height="1324"/></clipPath><clipPath id="clip16"><rect x="0" y="0" width="2119" height="1324"/></clipPath><clipPath id="clip17"><rect x="0" y="0" width="2119" height="1324"/></clipPath></defs><g clip-path="url(#clip0)" transform="translate(1 1)"><rect x="0" y="0" width="2120" height="1325" fill="#FFFFFF"/><g clip-path="url(#clip1)"><rect x="249" y="49.9998" width="1799" height="1071" fill="#FFFFFF"/></g><g clip-path="url(#clip2)"><path d="M248.5 585.519 2048.5 585.519M248.5 50.5 2048.5 50.5" stroke="#D9D9D9" stroke-width="3.4375" stroke-linejoin="round" stroke-miterlimit="10" fill="none"/></g><g clip-path="url(#clip3)"><path d="M0 0 0.000360892 1071" stroke="#000000" stroke-width="6.875" stroke-linejoin="round" stroke-miterlimit="10" fill="none" fill-rule="evenodd" transform="matrix(1 0 0 -1 248.5 1121.5)"/></g><g clip-path="url(#clip4)"><path d="M235.5 1121.5 248.5 1121.5M235.5 585.519 248.5 585.519M235.5 50.5 248.5 50.5" stroke="#000000" stroke-width="6.875" stroke-linejoin="round" stroke-miterlimit="10" fill="none"/></g><g clip-path="url(#clip5)"><path d="M248.5 1121.5 2048.5 1121.5" stroke="#000000" stroke-width="6.875" stroke-linejoin="round" stroke-miterlimit="10" fill="none" fill-rule="evenodd"/></g><g clip-path="url(#clip6)"><path d="M248.5 1121.5 248.5 1134.5M694.523 1121.5 694.523 1134.5M1139.54 1121.5 1139.54 1134.5M1585.55 1121.5 1585.55 1134.5M2030.5 1121.5 2030.5 1134.5" stroke="#000000" stroke-width="6.875" stroke-linejoin="round" stroke-miterlimit="10" fill="none"/></g><g clip-path="url(#clip7)"><path d="M257.5 522.517 275.509 559.519 293.51 603.52 311.51 630.521 329.511 642.521 346.512 650.521 364.512 656.522 382.513 640.521 400.513 616.52 418.514 607.52 435.514 581.519 453.515 547.518 471.516 536.518 489.516 520.517 507.517 493.516 524.517 469.516 542.518 449.515 560.519 422.514 578.519 398.513 596.52 371.512 614.52 347.512 631.521 328.511 649.521 329.511 667.522 297.51 685.523 279.509 703.523 251.508 720.524 259.509 738.524 240.508 756.525 225.508 774.526 206.507 792.526 225.508 810.527 205.507 827.527 192.507 845.528 192.507 863.529 184.506 881.529 180.5 899.53 182.506 916.53 184.506 934.531 192.507 952.531 185.506 970.532 202.507 988.533 211.507 1006.53 207.507 1023.53 208.507 1041.53 224.508 1059.53 221.507 1077.54 233.508 1095.54 244.508 1112.54 252.508 1130.54 270.509 1148.54 277.509 1166.54 272.509 1184.54 303.51 1201.54 311.51 1219.54 329.511 1237.54 337.511 1255.54 352.512 1273.54 359.512 1291.54 372.512 1308.54 391.513 1326.54 413.514 1344.54 431.514 1362.54 455.515 1380.55 469.516 1397.55 464.515 1415.55 478.516 1433.55 504.517 1451.55 517.517 1469.55 529.518 1487.55 523.517 1504.55 554.518 1522.55 565.519 1540.55 597.52 1558.55 589.52 1576.55 607.52 1593.55 620.521 1611.55 630.521 1629.55 639.521 1647.55 652.522 1665.55 675.522 1683.56 684.523 1700.56 701.523 1718.56 706.523 1736.56 723.524 1754.56 728.524 1772.56 738.524 1789.56 737.524 1807.56 756.525 1825.56 768.525 1843.56 780.526 1861.56 789.526 1878.56 799.526 1896.56 813.527 1914.56 824.527 1932.56 828.527 1950.56 837.528 1968.56 846.528 1985.57 849.528 2003.57 866.529 2021.57 874.529 2039.5 885.5" stroke="#000000" stroke-width="9.16667" stroke-linecap="round" stroke-linejoin="round" stroke-miterlimit="10" fill="none"/></g><g clip-path="url(#clip8)"><text fill="#595959" font-family="Calibri,Calibri_MSFontService,sans-serif" font-weight="400" font-size="41" transform="matrix(1 0 0 1 189.681 1133)">0</text></g><g clip-path="url(#clip9)"><text fill="#595959" font-family="Calibri,Calibri_MSFontService,sans-serif" font-weight="400" font-size="41" transform="matrix(1 0 0 1 147.881 597)">500</text></g><g clip-path="url(#clip10)"><text fill="#595959" font-family="Calibri,Calibri_MSFontService,sans-serif" font-weight="400" font-size="41" transform="matrix(1 0 0 1 126.981 62)">1000</text></g><g clip-path="url(#clip11)"><text fill="#595959" font-family="Calibri,Calibri_MSFontService,sans-serif" font-weight="400" font-size="41" transform="matrix(1 0 0 1 226.407 1186)">315</text></g><g clip-path="url(#clip12)"><text fill="#595959" font-family="Calibri,Calibri_MSFontService,sans-serif" font-weight="400" font-size="41" transform="matrix(1 0 0 1 671.813 1186)">340</text></g><g clip-path="url(#clip13)"><text fill="#595959" font-family="Calibri,Calibri_MSFontService,sans-serif" font-weight="400" font-size="41" transform="matrix(1 0 0 1 1117.22 1186)">365</text></g><g clip-path="url(#clip14)"><text fill="#595959" font-family="Calibri,Calibri_MSFontService,sans-serif" font-weight="400" font-size="41" transform="matrix(1 0 0 1 1562.63 1186)">390</text></g><g clip-path="url(#clip15)"><text fill="#595959" font-family="Calibri,Calibri_MSFontService,sans-serif" font-weight="400" font-size="41" transform="matrix(1 0 0 1 2008.03 1186)">415</text></g><g clip-path="url(#clip16)"><text fill="#595959" font-family="Calibri,Calibri_MSFontService,sans-serif" font-weight="400" font-size="46" transform="matrix(6.12323e-17 -1 1 6.12323e-17 101.292 667)">Intensity</text></g><g clip-path="url(#clip17)"><text fill="#595959" font-family="Calibri,Calibri_MSFontService,sans-serif" font-weight="400" font-size="46" transform="matrix(1 0 0 1 986.836 1256)">Wavelength (nm)</text></g><rect x="0" y="0" width="2120" height="1325" stroke="#898989" stroke-width="2.29167" stroke-linejoin="round" stroke-miterlimit="10" fill="none"/></g></svg>